%TF.GenerationSoftware,KiCad,Pcbnew,(5.1.8)-1*%
%TF.CreationDate,2021-01-18T01:00:06-05:00*%
%TF.ProjectId,Mercury,4d657263-7572-4792-9e6b-696361645f70,rev?*%
%TF.SameCoordinates,Original*%
%TF.FileFunction,Soldermask,Bot*%
%TF.FilePolarity,Negative*%
%FSLAX46Y46*%
G04 Gerber Fmt 4.6, Leading zero omitted, Abs format (unit mm)*
G04 Created by KiCad (PCBNEW (5.1.8)-1) date 2021-01-18 01:00:06*
%MOMM*%
%LPD*%
G01*
G04 APERTURE LIST*
%ADD10C,1.600000*%
%ADD11R,2.600000X2.600000*%
%ADD12C,2.600000*%
%ADD13C,6.000000*%
%ADD14C,0.800000*%
%ADD15O,1.000000X1.000000*%
%ADD16R,1.000000X1.000000*%
%ADD17C,2.250000*%
%ADD18C,2.400000*%
%ADD19O,2.200000X3.500000*%
%ADD20O,1.500000X2.500000*%
%ADD21R,1.500000X2.500000*%
G04 APERTURE END LIST*
%TO.C,J5*%
G36*
G01*
X59870000Y-75040000D02*
X60970000Y-75040000D01*
G75*
G02*
X61220000Y-75290000I0J-250000D01*
G01*
X61220000Y-76390000D01*
G75*
G02*
X60970000Y-76640000I-250000J0D01*
G01*
X59870000Y-76640000D01*
G75*
G02*
X59620000Y-76390000I0J250000D01*
G01*
X59620000Y-75290000D01*
G75*
G02*
X59870000Y-75040000I250000J0D01*
G01*
G37*
D10*
X60420000Y-79440000D03*
X60420000Y-83040000D03*
X60420000Y-86640000D03*
%TD*%
D11*
%TO.C,J8*%
X108720000Y-74240000D03*
D12*
X108720000Y-69160000D03*
%TD*%
%TO.C,J3*%
G36*
G01*
X77444500Y-94509500D02*
X77444500Y-95609500D01*
G75*
G02*
X77194500Y-95859500I-250000J0D01*
G01*
X76094500Y-95859500D01*
G75*
G02*
X75844500Y-95609500I0J250000D01*
G01*
X75844500Y-94509500D01*
G75*
G02*
X76094500Y-94259500I250000J0D01*
G01*
X77194500Y-94259500D01*
G75*
G02*
X77444500Y-94509500I0J-250000D01*
G01*
G37*
D10*
X73044500Y-95059500D03*
X69444500Y-95059500D03*
%TD*%
D13*
%TO.C,H4*%
X110620000Y-20640000D03*
D14*
X108370000Y-20640000D03*
X109029010Y-19049010D03*
X110620000Y-18390000D03*
X112210990Y-19049010D03*
X112870000Y-20640000D03*
X112210990Y-22230990D03*
X110620000Y-22890000D03*
X109029010Y-22230990D03*
%TD*%
%TO.C,J6*%
G36*
G01*
X82260000Y-57160000D02*
X82260000Y-56060000D01*
G75*
G02*
X82510000Y-55810000I250000J0D01*
G01*
X83610000Y-55810000D01*
G75*
G02*
X83860000Y-56060000I0J-250000D01*
G01*
X83860000Y-57160000D01*
G75*
G02*
X83610000Y-57410000I-250000J0D01*
G01*
X82510000Y-57410000D01*
G75*
G02*
X82260000Y-57160000I0J250000D01*
G01*
G37*
D10*
X86660000Y-56610000D03*
X90260000Y-56610000D03*
X93860000Y-56610000D03*
%TD*%
%TO.C,J2*%
G36*
G01*
X63220000Y-42190000D02*
X63220000Y-43290000D01*
G75*
G02*
X62970000Y-43540000I-250000J0D01*
G01*
X61870000Y-43540000D01*
G75*
G02*
X61620000Y-43290000I0J250000D01*
G01*
X61620000Y-42190000D01*
G75*
G02*
X61870000Y-41940000I250000J0D01*
G01*
X62970000Y-41940000D01*
G75*
G02*
X63220000Y-42190000I0J-250000D01*
G01*
G37*
X58820000Y-42740000D03*
%TD*%
D13*
%TO.C,H3*%
X18220000Y-20640000D03*
D14*
X15970000Y-20640000D03*
X16629010Y-19049010D03*
X18220000Y-18390000D03*
X19810990Y-19049010D03*
X20470000Y-20640000D03*
X19810990Y-22230990D03*
X18220000Y-22890000D03*
X16629010Y-22230990D03*
%TD*%
D13*
%TO.C,H2*%
X18220000Y-93040000D03*
D14*
X15970000Y-93040000D03*
X16629010Y-91449010D03*
X18220000Y-90790000D03*
X19810990Y-91449010D03*
X20470000Y-93040000D03*
X19810990Y-94630990D03*
X18220000Y-95290000D03*
X16629010Y-94630990D03*
%TD*%
D13*
%TO.C,H1*%
X110620000Y-93040000D03*
D14*
X108370000Y-93040000D03*
X109029010Y-91449010D03*
X110620000Y-90790000D03*
X112210990Y-91449010D03*
X112870000Y-93040000D03*
X112210990Y-94630990D03*
X110620000Y-95290000D03*
X109029010Y-94630990D03*
%TD*%
%TO.C,J4*%
G36*
G01*
X30645000Y-48218000D02*
X30645000Y-49318000D01*
G75*
G02*
X30395000Y-49568000I-250000J0D01*
G01*
X29295000Y-49568000D01*
G75*
G02*
X29045000Y-49318000I0J250000D01*
G01*
X29045000Y-48218000D01*
G75*
G02*
X29295000Y-47968000I250000J0D01*
G01*
X30395000Y-47968000D01*
G75*
G02*
X30645000Y-48218000I0J-250000D01*
G01*
G37*
D10*
X26245000Y-48768000D03*
%TD*%
D15*
%TO.C,J1*%
X111150000Y-31060000D03*
X112420000Y-31060000D03*
X111150000Y-32330000D03*
X112420000Y-32330000D03*
X111150000Y-33600000D03*
X112420000Y-33600000D03*
X111150000Y-34870000D03*
X112420000Y-34870000D03*
X111150000Y-36140000D03*
D16*
X112420000Y-36140000D03*
%TD*%
D12*
%TO.C,J9*%
X61480500Y-22309500D03*
X66560500Y-22309500D03*
D11*
X71640500Y-22309500D03*
%TD*%
%TO.C,J10*%
X88722000Y-22309500D03*
D12*
X83642000Y-22309500D03*
X78562000Y-22309500D03*
%TD*%
%TO.C,J11*%
X95840000Y-22240000D03*
D11*
X100920000Y-22240000D03*
%TD*%
%TO.C,J12*%
X108720000Y-85740000D03*
D12*
X108720000Y-80660000D03*
%TD*%
D17*
%TO.C,J13*%
X35920000Y-21040000D03*
D18*
X38460000Y-23580000D03*
X33380000Y-23580000D03*
X33380000Y-18500000D03*
X38460000Y-18500000D03*
%TD*%
%TO.C,J14*%
X16891000Y-83312000D03*
X21971000Y-83312000D03*
X21971000Y-78232000D03*
X16891000Y-78232000D03*
D17*
X19431000Y-80772000D03*
%TD*%
D19*
%TO.C,SW1*%
X44255500Y-19316700D03*
X52455500Y-19316700D03*
D20*
X46355500Y-19316700D03*
X48355500Y-19316700D03*
D21*
X50355500Y-19316700D03*
%TD*%
M02*
