M48
; DRILL file {KiCad (5.1.8)-1} date 01/18/21 01:00:03
; FORMAT={-:-/ absolute / inch / decimal}
; #@! TF.CreationDate,2021-01-18T01:00:03-05:00
; #@! TF.GenerationSoftware,Kicad,Pcbnew,(5.1.8)-1
; #@! TF.FileFunction,Plated,1,4,PTH
FMAT,2
INCH
T1C0.0157
T2C0.0197
T3C0.0236
T4C0.0256
T5C0.0354
T6C0.0512
T7C0.0591
T8C0.0630
T9C0.1181
%
G90
G05
T1
X0.6587Y-3.3598
X0.6591Y-3.3906
X0.6618Y-2.9657
X0.6638Y-3.002
X0.8Y-1.0
X0.8Y-1.1
X0.8Y-1.2
X0.8Y-1.3
X0.8Y-1.4
X0.8Y-1.5
X0.8Y-1.6
X0.8Y-1.7
X0.8Y-1.8
X0.8Y-1.9
X0.8Y-2.0
X0.8Y-2.1
X0.8Y-2.2
X0.8Y-2.3
X0.8Y-2.4
X0.8Y-2.5
X0.8Y-2.6
X0.8Y-2.7
X0.8Y-2.8
X0.8Y-2.9
X0.8Y-3.5
X0.8654Y-3.3646
X0.8665Y-3.0098
X0.8665Y-3.3965
X0.8673Y-2.9752
X1.0Y-0.7
X1.0Y-0.8
X1.0Y-0.9
X1.0Y-1.0
X1.0Y-1.1
X1.0Y-1.2
X1.0Y-1.3
X1.0Y-1.4
X1.0Y-1.5
X1.0Y-1.6
X1.0Y-1.7
X1.0Y-2.1
X1.0Y-2.2
X1.0Y-2.3
X1.0Y-2.4
X1.0Y-2.5
X1.0Y-2.6
X1.0Y-2.8
X1.0Y-2.9
X1.0Y-3.0
X1.0Y-3.3
X1.0Y-3.4
X1.0Y-3.5
X1.0Y-3.6
X1.0Y-3.7
X1.0461Y-3.1201
X1.0614Y-1.6673
X1.1008Y-1.372
X1.1787Y-3.2602
X1.2Y-2.2
X1.2Y-2.3
X1.2Y-2.4
X1.2Y-2.6
X1.2Y-2.7
X1.2Y-2.8
X1.2Y-2.9
X1.2Y-3.0
X1.2Y-3.5
X1.2Y-3.6
X1.2Y-3.7
X1.2354Y-3.3996
X1.2374Y-0.9311
X1.2374Y-3.3417
X1.2378Y-3.287
X1.2496Y-0.7146
X1.2961Y-1.739
X1.3228Y-1.8067
X1.3232Y-1.7142
X1.3343Y-3.2854
X1.3358Y-3.3386
X1.3358Y-3.3965
X1.3417Y-3.2319
X1.3567Y-1.2917
X1.3642Y-1.7122
X1.378Y-3.2654
X1.4Y-2.0
X1.4Y-2.1
X1.4Y-2.4
X1.4Y-2.5
X1.4Y-2.6
X1.4Y-2.7
X1.4Y-2.8
X1.4Y-2.9
X1.4Y-3.0
X1.4Y-3.5
X1.4Y-3.6
X1.4Y-3.7
X1.4047Y-3.3118
X1.4055Y-3.111
X1.4059Y-3.1449
X1.4079Y-1.8063
X1.4307Y-3.287
X1.4323Y-1.7063
X1.4402Y-1.7394
X1.4425Y-3.4531
X1.4465Y-1.1583
X1.4469Y-3.4138
X1.4768Y-3.4539
X1.4791Y-3.4142
X1.4799Y-2.9984
X1.5122Y-3.487
X1.5654Y-3.487
X1.5685Y-3.3811
X1.5846Y-3.3276
X1.587Y-0.9244
X1.5909Y-0.7146
X1.6Y-0.8
X1.6Y-1.0
X1.6Y-1.1
X1.6Y-1.2
X1.6Y-1.3
X1.6Y-1.4
X1.6Y-1.5
X1.6Y-1.8
X1.6Y-2.0
X1.6Y-2.1
X1.6Y-2.2
X1.6Y-2.3
X1.6Y-2.6
X1.6Y-3.5
X1.6Y-3.6
X1.6Y-3.7
X1.6012Y-3.413
X1.6016Y-3.4563
X1.6268Y-3.1453
X1.6272Y-3.276
X1.678Y-2.6827
X1.6953Y-3.1354
X1.6969Y-3.25
X1.6969Y-3.2917
X1.7213Y-2.5213
X1.724Y-3.3283
X1.7469Y-2.835
X1.7638Y-3.3287
X1.7642Y-3.1004
X1.7988Y-3.2965
X1.8Y-1.1
X1.8Y-1.2
X1.8Y-1.3
X1.8Y-1.4
X1.8Y-1.5
X1.8Y-1.7
X1.8Y-1.8
X1.8Y-2.0
X1.8Y-2.1
X1.8Y-2.2
X1.8Y-2.3
X1.8Y-2.4
X1.8Y-2.8
X1.8Y-3.0
X1.8Y-3.4
X1.8Y-3.5
X1.8Y-3.6
X1.8Y-3.7
X1.8047Y-2.5579
X1.8157Y-2.4898
X1.8243Y-0.8354
X1.8247Y-0.878
X1.8276Y-2.6433
X1.8685Y-3.3154
X1.8736Y-3.4902
X1.874Y-3.4543
X1.8965Y-2.3539
X1.9185Y-3.4555
X1.9197Y-3.4913
X1.9476Y-3.0114
X1.9488Y-2.9713
X1.95Y-3.3417
X1.9795Y-3.4031
X1.9841Y-0.8358
X1.9849Y-0.8732
X2.0Y-1.0
X2.0Y-1.1
X2.0Y-1.2
X2.0Y-1.3
X2.0Y-1.4
X2.0Y-1.5
X2.0Y-1.7
X2.0Y-2.0
X2.0Y-3.5
X2.0Y-3.6
X2.0Y-3.7
X2.0047Y-2.1079
X2.0343Y-1.3063
X2.0484Y-2.9232
X2.0508Y-3.1543
X2.0831Y-3.1535
X2.0846Y-2.8874
X2.0988Y-1.3362
X2.1Y-1.2783
X2.1028Y-3.0776
X2.1272Y-1.4075
X2.1272Y-2.548
X2.1283Y-3.0457
X2.1508Y-2.1858
X2.1512Y-2.1295
X2.1559Y-3.1315
X2.1614Y-2.5138
X2.1626Y-2.5484
X2.1701Y-2.6827
X2.1858Y-3.0291
X2.2Y-0.7
X2.2Y-0.8
X2.2Y-0.9
X2.2Y-1.0
X2.2Y-1.7
X2.2Y-1.8
X2.2Y-3.5
X2.2Y-3.6
X2.2Y-3.7
X2.2165Y-1.6051
X2.2209Y-1.1512
X2.2409Y-2.8441
X2.2508Y-2.6449
X2.2512Y-1.8909
X2.2591Y-2.1882
X2.2764Y-2.789
X2.2772Y-2.9236
X2.2862Y-1.15
X2.3169Y-1.9909
X2.3189Y-1.2193
X2.3303Y-2.6787
X2.3472Y-1.5382
X2.3484Y-1.861
X2.3744Y-1.5098
X2.3748Y-2.785
X2.3815Y-2.1197
X2.3917Y-2.2146
X2.3945Y-2.348
X2.3945Y-2.4425
X2.4Y-3.5
X2.4Y-3.6
X2.4Y-3.7
X2.4039Y-2.0303
X2.4209Y-2.2575
X2.426Y-1.9083
X2.4351Y-2.6748
X2.4413Y-2.3559
X2.4417Y-2.4228
X2.4496Y-2.9898
X2.453Y-3.2
X2.4535Y-1.8205
X2.4575Y-2.5055
X2.5Y-2.1
X2.5Y-2.2
X2.5021Y-1.542
X2.5244Y-2.5173
X2.5299Y-1.513
X2.5402Y-2.411
X2.5434Y-2.6795
X2.5465Y-1.8571
X2.5827Y-2.6834
X2.6Y-2.1
X2.6Y-2.2
X2.6Y-2.3
X2.6Y-2.4
X2.6Y-2.9
X2.6Y-3.0
X2.6Y-3.1
X2.6Y-3.2
X2.6Y-3.3
X2.6Y-3.4
X2.6Y-3.5
X2.6Y-3.6
X2.6Y-3.7
X2.6028Y-2.4591
X2.6071Y-1.8805
X2.6221Y-2.6544
X2.6815Y-3.1732
X2.6819Y-3.2087
X2.6882Y-3.0571
X2.7Y-2.1
X2.7Y-2.2
X2.7Y-2.3
X2.7Y-2.4
X2.7Y-2.5
X2.7528Y-3.1685
X2.7539Y-3.0697
X2.8Y-2.1
X2.8Y-2.2
X2.8Y-2.3
X2.8Y-2.4
X2.8Y-2.5
X2.8043Y-3.0642
X2.8134Y-3.2685
X2.8161Y-3.2051
X2.8472Y-2.474
X2.8685Y-2.061
X2.8937Y-3.2075
X2.8957Y-3.2693
X2.9Y-1.0
X2.9Y-1.2
X2.9Y-1.3
X2.9037Y-3.0201
X2.9047Y-2.7354
X2.9106Y-2.6283
X2.922Y-2.8736
X2.9496Y-2.6299
X2.9618Y-3.0406
X2.9638Y-3.0921
X2.9638Y-3.1429
X2.9791Y-2.5929
X3.0098Y-3.2736
X3.0293Y-3.0752
X3.0352Y-1.9553
X3.0677Y-1.9553
X3.0772Y-3.2358
X3.1Y-1.0
X3.1Y-1.4
X3.1Y-1.5
X3.1Y-1.7
X3.1Y-1.8
X3.1189Y-2.5472
X3.1236Y-2.6008
X3.1244Y-2.7917
X3.1264Y-2.835
X3.1272Y-2.8732
X3.1283Y-2.9118
X3.1409Y-1.9858
X3.1543Y-1.8717
X3.1606Y-2.7929
X3.1626Y-2.8331
X3.1626Y-2.9087
X3.163Y-2.8705
X3.1693Y-2.0654
X3.1795Y-1.9858
X3.1862Y-3.374
X3.1862Y-3.4067
X3.1894Y-2.6713
X3.1902Y-2.637
X3.198Y-2.8717
X3.1984Y-2.7921
X3.1984Y-2.9075
X3.1984Y-3.335
X3.2004Y-2.8346
X3.2043Y-2.9563
X3.2177Y-3.002
X3.2193Y-3.3732
X3.2197Y-3.4067
X3.2224Y-2.6705
X3.2236Y-2.6374
X3.2343Y-2.7906
X3.2366Y-2.8283
X3.2531Y-3.0012
X3.2531Y-3.3713
X3.2547Y-3.4051
X3.2866Y-3.3323
X3.2878Y-3.3701
X3.2894Y-3.4035
X3.2902Y-3.0016
X3.3Y-1.2
X3.3Y-1.3
X3.3Y-1.5
X3.3Y-1.6
X3.3Y-2.0
X3.3Y-2.7
X3.3Y-3.1
X3.3Y-3.5
X3.3Y-3.6
X3.3Y-3.7
X3.3028Y-2.9508
X3.3354Y-1.7693
X3.5Y-1.0
X3.5Y-1.3
X3.5Y-1.4
X3.5Y-1.5
X3.5Y-1.8
X3.5Y-2.0
X3.5Y-3.5
X3.5Y-3.6
X3.5Y-3.7
X3.5657Y-2.9874
X3.6Y-3.4075
X3.602Y-2.9874
X3.6358Y-3.4063
X3.6362Y-2.4516
X3.6366Y-2.9874
X3.637Y-2.4185
X3.6442Y-2.5511
X3.6709Y-2.9866
X3.6709Y-3.4083
X3.7Y-1.2
X3.7Y-1.3
X3.7Y-1.6
X3.7Y-1.7
X3.7Y-1.8
X3.7Y-2.0
X3.7Y-3.5
X3.7Y-3.6
X3.7Y-3.7
X3.7004Y-2.8937
X3.7035Y-3.3563
X3.7043Y-3.3913
X3.7055Y-2.4669
X3.7059Y-2.9858
X3.737Y-2.5012
X3.8063Y-3.2783
X3.8461Y-3.2795
X3.8551Y-2.7744
X3.8827Y-3.2791
X3.8921Y-3.1661
X3.8937Y-3.2398
X3.8965Y-3.2039
X3.8996Y-2.7783
X3.9Y-1.4
X3.9Y-1.5
X3.9Y-1.6
X3.9Y-1.8
X3.9Y-1.9
X3.9Y-2.0
X3.9Y-2.2
X3.9Y-2.3
X3.9Y-2.4
X3.9Y-2.5
X3.9Y-2.6
X3.9Y-2.7
X3.9Y-2.9
X3.9Y-3.5
X3.9Y-3.6
X3.9Y-3.7
X3.9008Y-2.8228
X4.0472Y-3.1925
X4.0484Y-3.1559
X4.0829Y-3.1933
X4.0841Y-3.1567
X4.0984Y-2.0642
X4.1Y-1.1
X4.1Y-1.4
X4.1Y-1.6
X4.1Y-1.7
X4.1Y-1.8
X4.1Y-1.9
X4.1Y-2.0
X4.1Y-2.2
X4.1Y-2.3
X4.1Y-2.4
X4.1Y-2.5
X4.1Y-2.6
X4.1Y-2.8
X4.1Y-3.1
X4.1Y-3.3
X4.1Y-3.5
X4.1Y-3.6
X4.1Y-3.7
X4.1186Y-3.1941
X4.1198Y-3.1575
X4.1374Y-2.0654
X4.1543Y-3.1945
X4.1555Y-3.1579
X4.16Y-2.52
X4.16Y-2.56
X4.16Y-2.6
X4.16Y-2.64
X4.16Y-2.68
X4.174Y-2.0646
X4.2Y-2.52
X4.2Y-2.56
X4.2Y-2.6
X4.2Y-2.64
X4.2114Y-2.0657
X4.24Y-2.52
X4.24Y-2.56
X4.24Y-2.6
X4.24Y-2.64
X4.28Y-2.52
X4.28Y-2.56
X4.28Y-2.6
X4.28Y-2.64
X4.32Y-2.52
X4.32Y-2.56
X4.32Y-2.6
X4.32Y-2.64
X4.36Y-2.52
X4.36Y-2.56
X4.36Y-2.6
X4.36Y-2.64
X4.36Y-2.68
X4.3807Y-1.4862
X4.3807Y-1.5232
X4.387Y-1.1693
X4.4209Y-1.5228
X4.4213Y-1.4866
X4.4264Y-1.1697
X4.4587Y-1.4858
X4.4587Y-1.5224
T2
X0.6287Y-0.8126
X0.6547Y-0.75
X0.6547Y-0.8752
X0.7173Y-0.724
X0.7173Y-0.9012
X0.78Y-0.75
X0.78Y-0.8752
X0.8059Y-0.8126
X4.2665Y-0.8126
X4.2925Y-0.75
X4.2925Y-0.8752
X4.3551Y-0.724
X4.3551Y-0.9012
X4.4178Y-0.75
X4.4178Y-0.8752
X4.4437Y-0.8126
X0.6287Y-3.663
X0.6547Y-3.6004
X0.6547Y-3.7256
X0.7173Y-3.5744
X0.7173Y-3.7516
X0.78Y-3.6004
X0.78Y-3.7256
X0.8059Y-3.663
X4.2665Y-3.663
X4.2925Y-3.6004
X4.2925Y-3.7256
X4.3551Y-3.5744
X4.3551Y-3.7516
X4.4178Y-3.6004
X4.4178Y-3.7256
X4.4437Y-3.663
T3
X2.3787Y-2.9858
X2.3787Y-3.1276
X2.3787Y-3.2693
X2.3787Y-3.411
X2.3157Y-1.6827
X2.4575Y-1.6827
X2.734Y-3.7425
X2.8758Y-3.7425
X3.0175Y-3.7425
X3.2701Y-2.2287
X3.4118Y-2.2287
X3.5535Y-2.2287
X3.6953Y-2.2287
X1.0333Y-1.92
X1.175Y-1.92
T4
X4.376Y-1.2228
X4.376Y-1.2728
X4.376Y-1.3228
X4.376Y-1.3728
X4.376Y-1.4228
X4.426Y-1.2228
X4.426Y-1.2728
X4.426Y-1.3228
X4.426Y-1.3728
X4.426Y-1.4228
T5
X1.825Y-0.7605
X1.9038Y-0.7605
X1.9825Y-0.7605
T6
X4.2803Y-3.1756
X4.2803Y-3.3756
X3.093Y-0.8783
X3.293Y-0.8783
X3.493Y-0.8783
X3.7732Y-0.8756
X3.9732Y-0.8756
X2.4205Y-0.8783
X2.6205Y-0.8783
X2.8205Y-0.8783
X4.2803Y-2.7228
X4.2803Y-2.9228
T7
X1.4142Y-0.8283
X0.765Y-3.18
X1.7423Y-0.7605
X2.0652Y-0.7605
T8
X1.3142Y-0.7283
X1.3142Y-0.9283
X1.5142Y-0.7283
X1.5142Y-0.9283
X0.665Y-3.08
X0.665Y-3.28
X0.865Y-3.08
X0.865Y-3.28
T9
X0.7173Y-0.8126
X4.3551Y-0.8126
X0.7173Y-3.663
X4.3551Y-3.663
T0
M30
