%TF.GenerationSoftware,KiCad,Pcbnew,(5.1.8)-1*%
%TF.CreationDate,2021-01-18T01:00:06-05:00*%
%TF.ProjectId,Mercury,4d657263-7572-4792-9e6b-696361645f70,rev?*%
%TF.SameCoordinates,Original*%
%TF.FileFunction,Legend,Top*%
%TF.FilePolarity,Positive*%
%FSLAX46Y46*%
G04 Gerber Fmt 4.6, Leading zero omitted, Abs format (unit mm)*
G04 Created by KiCad (PCBNEW (5.1.8)-1) date 2021-01-18 01:00:06*
%MOMM*%
%LPD*%
G01*
G04 APERTURE LIST*
%ADD10C,0.150000*%
%ADD11C,0.100000*%
%ADD12C,0.120000*%
%ADD13C,0.200000*%
%ADD14C,0.010000*%
%ADD15C,0.127000*%
%ADD16C,0.254000*%
G04 APERTURE END LIST*
D10*
X62614752Y-56576980D02*
X62614752Y-57291266D01*
X62567133Y-57434123D01*
X62471895Y-57529361D01*
X62329038Y-57576980D01*
X62233800Y-57576980D01*
X63567133Y-57576980D02*
X63090942Y-57576980D01*
X63090942Y-56576980D01*
X64471895Y-57481742D02*
X64424276Y-57529361D01*
X64281419Y-57576980D01*
X64186180Y-57576980D01*
X64043323Y-57529361D01*
X63948085Y-57434123D01*
X63900466Y-57338885D01*
X63852847Y-57148409D01*
X63852847Y-57005552D01*
X63900466Y-56815076D01*
X63948085Y-56719838D01*
X64043323Y-56624600D01*
X64186180Y-56576980D01*
X64281419Y-56576980D01*
X64424276Y-56624600D01*
X64471895Y-56672219D01*
X65186180Y-56576980D02*
X65186180Y-57291266D01*
X65138561Y-57434123D01*
X65043323Y-57529361D01*
X64900466Y-57576980D01*
X64805228Y-57576980D01*
X66138561Y-57576980D02*
X65662371Y-57576980D01*
X65662371Y-56576980D01*
X67043323Y-57481742D02*
X66995704Y-57529361D01*
X66852847Y-57576980D01*
X66757609Y-57576980D01*
X66614752Y-57529361D01*
X66519514Y-57434123D01*
X66471895Y-57338885D01*
X66424276Y-57148409D01*
X66424276Y-57005552D01*
X66471895Y-56815076D01*
X66519514Y-56719838D01*
X66614752Y-56624600D01*
X66757609Y-56576980D01*
X66852847Y-56576980D01*
X66995704Y-56624600D01*
X67043323Y-56672219D01*
X67757609Y-56576980D02*
X67757609Y-57291266D01*
X67709990Y-57434123D01*
X67614752Y-57529361D01*
X67471895Y-57576980D01*
X67376657Y-57576980D01*
X68709990Y-57576980D02*
X68233800Y-57576980D01*
X68233800Y-56576980D01*
X69614752Y-57481742D02*
X69567133Y-57529361D01*
X69424276Y-57576980D01*
X69329038Y-57576980D01*
X69186180Y-57529361D01*
X69090942Y-57434123D01*
X69043323Y-57338885D01*
X68995704Y-57148409D01*
X68995704Y-57005552D01*
X69043323Y-56815076D01*
X69090942Y-56719838D01*
X69186180Y-56624600D01*
X69329038Y-56576980D01*
X69424276Y-56576980D01*
X69567133Y-56624600D01*
X69614752Y-56672219D01*
X70329038Y-56576980D02*
X70329038Y-57291266D01*
X70281419Y-57434123D01*
X70186180Y-57529361D01*
X70043323Y-57576980D01*
X69948085Y-57576980D01*
X71281419Y-57576980D02*
X70805228Y-57576980D01*
X70805228Y-56576980D01*
X72186180Y-57481742D02*
X72138561Y-57529361D01*
X71995704Y-57576980D01*
X71900466Y-57576980D01*
X71757609Y-57529361D01*
X71662371Y-57434123D01*
X71614752Y-57338885D01*
X71567133Y-57148409D01*
X71567133Y-57005552D01*
X71614752Y-56815076D01*
X71662371Y-56719838D01*
X71757609Y-56624600D01*
X71900466Y-56576980D01*
X71995704Y-56576980D01*
X72138561Y-56624600D01*
X72186180Y-56672219D01*
X51601857Y-22559971D02*
X51744714Y-22607590D01*
X51792333Y-22655209D01*
X51839952Y-22750447D01*
X51839952Y-22893304D01*
X51792333Y-22988542D01*
X51744714Y-23036161D01*
X51649476Y-23083780D01*
X51268523Y-23083780D01*
X51268523Y-22083780D01*
X51601857Y-22083780D01*
X51697095Y-22131400D01*
X51744714Y-22179019D01*
X51792333Y-22274257D01*
X51792333Y-22369495D01*
X51744714Y-22464733D01*
X51697095Y-22512352D01*
X51601857Y-22559971D01*
X51268523Y-22559971D01*
X52459000Y-22083780D02*
X52649476Y-22083780D01*
X52744714Y-22131400D01*
X52839952Y-22226638D01*
X52887571Y-22417114D01*
X52887571Y-22750447D01*
X52839952Y-22940923D01*
X52744714Y-23036161D01*
X52649476Y-23083780D01*
X52459000Y-23083780D01*
X52363761Y-23036161D01*
X52268523Y-22940923D01*
X52220904Y-22750447D01*
X52220904Y-22417114D01*
X52268523Y-22226638D01*
X52363761Y-22131400D01*
X52459000Y-22083780D01*
X53506619Y-22083780D02*
X53697095Y-22083780D01*
X53792333Y-22131400D01*
X53887571Y-22226638D01*
X53935190Y-22417114D01*
X53935190Y-22750447D01*
X53887571Y-22940923D01*
X53792333Y-23036161D01*
X53697095Y-23083780D01*
X53506619Y-23083780D01*
X53411380Y-23036161D01*
X53316142Y-22940923D01*
X53268523Y-22750447D01*
X53268523Y-22417114D01*
X53316142Y-22226638D01*
X53411380Y-22131400D01*
X53506619Y-22083780D01*
X54220904Y-22083780D02*
X54792333Y-22083780D01*
X54506619Y-23083780D02*
X54506619Y-22083780D01*
X43102304Y-23261580D02*
X42768971Y-22785390D01*
X42530876Y-23261580D02*
X42530876Y-22261580D01*
X42911828Y-22261580D01*
X43007066Y-22309200D01*
X43054685Y-22356819D01*
X43102304Y-22452057D01*
X43102304Y-22594914D01*
X43054685Y-22690152D01*
X43007066Y-22737771D01*
X42911828Y-22785390D01*
X42530876Y-22785390D01*
X43530876Y-22261580D02*
X43530876Y-23071104D01*
X43578495Y-23166342D01*
X43626114Y-23213961D01*
X43721352Y-23261580D01*
X43911828Y-23261580D01*
X44007066Y-23213961D01*
X44054685Y-23166342D01*
X44102304Y-23071104D01*
X44102304Y-22261580D01*
X44578495Y-23261580D02*
X44578495Y-22261580D01*
X45149923Y-23261580D01*
X45149923Y-22261580D01*
D11*
G36*
X113588800Y-39801800D02*
G01*
X113385600Y-39827200D01*
X113385600Y-40309800D01*
X113080800Y-40309800D01*
X113080800Y-39801800D01*
X112877600Y-39801800D01*
X113258600Y-39243000D01*
X113588800Y-39801800D01*
G37*
X113588800Y-39801800D02*
X113385600Y-39827200D01*
X113385600Y-40309800D01*
X113080800Y-40309800D01*
X113080800Y-39801800D01*
X112877600Y-39801800D01*
X113258600Y-39243000D01*
X113588800Y-39801800D01*
D12*
X113385600Y-40309800D02*
X113080800Y-40309800D01*
X113385600Y-39827200D02*
X113385600Y-40309800D01*
X113080800Y-39827200D02*
X113080800Y-40309800D01*
X113614200Y-39827200D02*
X113284000Y-39217600D01*
X113385600Y-39827200D02*
X113614200Y-39827200D01*
X113284000Y-39217600D02*
X112852200Y-39827200D01*
X112852200Y-39827200D02*
X113080800Y-39827200D01*
D13*
X31603596Y-48844200D02*
G75*
G03*
X31603596Y-48844200I-56796J0D01*
G01*
X64191796Y-42976800D02*
G75*
G03*
X64191796Y-42976800I-56796J0D01*
G01*
X78314196Y-94081600D02*
G75*
G03*
X78314196Y-94081600I-56796J0D01*
G01*
X47554796Y-55829200D02*
G75*
G03*
X47554796Y-55829200I-56796J0D01*
G01*
D10*
X78562247Y-81859428D02*
X79324152Y-81859428D01*
X78943200Y-82240380D02*
X78943200Y-81478476D01*
X80264047Y-81859428D02*
X81025952Y-81859428D01*
X80645000Y-82240380D02*
X80645000Y-81478476D01*
X51689047Y-65654228D02*
X52450952Y-65654228D01*
X52070000Y-66035180D02*
X52070000Y-65273276D01*
D13*
X107727396Y-55092600D02*
G75*
G03*
X107727396Y-55092600I-56796J0D01*
G01*
X60076996Y-35763200D02*
G75*
G03*
X60076996Y-35763200I-56796J0D01*
G01*
X57384596Y-51892200D02*
G75*
G03*
X57384596Y-51892200I-56796J0D01*
G01*
X81616196Y-56591200D02*
G75*
G03*
X81616196Y-56591200I-56796J0D01*
G01*
X92284196Y-66090800D02*
G75*
G03*
X92284196Y-66090800I-56796J0D01*
G01*
X94087596Y-74676000D02*
G75*
G03*
X94087596Y-74676000I-56796J0D01*
G01*
X27818996Y-42392600D02*
G75*
G03*
X27818996Y-42392600I-56796J0D01*
G01*
X50704396Y-24257000D02*
G75*
G03*
X50704396Y-24257000I-56796J0D01*
G01*
X71354596Y-28625800D02*
G75*
G03*
X71354596Y-28625800I-56796J0D01*
G01*
X88956796Y-28625800D02*
G75*
G03*
X88956796Y-28625800I-56796J0D01*
G01*
X102158800Y-28625800D02*
G75*
G03*
X102158800Y-28625800I-101600J0D01*
G01*
X50704396Y-24257000D02*
G75*
G03*
X50704396Y-24257000I-56796J0D01*
G01*
X71354596Y-28625800D02*
G75*
G03*
X71354596Y-28625800I-56796J0D01*
G01*
X88956796Y-28625800D02*
G75*
G03*
X88956796Y-28625800I-56796J0D01*
G01*
X102139396Y-28625800D02*
G75*
G03*
X102139396Y-28625800I-56796J0D01*
G01*
X113620196Y-37261800D02*
G75*
G03*
X113620196Y-37261800I-56796J0D01*
G01*
X108794196Y-89357200D02*
G75*
G03*
X108794196Y-89357200I-56796J0D01*
G01*
X94036796Y-84455000D02*
G75*
G03*
X94036796Y-84455000I-56796J0D01*
G01*
X73056396Y-80391000D02*
G75*
G03*
X73056396Y-80391000I-56796J0D01*
G01*
X61550196Y-74726800D02*
G75*
G03*
X61550196Y-74726800I-56796J0D01*
G01*
X50038000Y-70789800D02*
G75*
G03*
X50038000Y-70789800I-101600J0D01*
G01*
X51739800Y-82397600D02*
G75*
G03*
X51739800Y-82397600I-101600J0D01*
G01*
D10*
X29472000Y-23307371D02*
X29424380Y-23402609D01*
X29424380Y-23545466D01*
X29472000Y-23688323D01*
X29567238Y-23783561D01*
X29662476Y-23831180D01*
X29852952Y-23878800D01*
X29995809Y-23878800D01*
X30186285Y-23831180D01*
X30281523Y-23783561D01*
X30376761Y-23688323D01*
X30424380Y-23545466D01*
X30424380Y-23450228D01*
X30376761Y-23307371D01*
X30329142Y-23259752D01*
X29995809Y-23259752D01*
X29995809Y-23450228D01*
X30424380Y-22831180D02*
X29424380Y-22831180D01*
X29424380Y-22450228D01*
X29472000Y-22354990D01*
X29519619Y-22307371D01*
X29614857Y-22259752D01*
X29757714Y-22259752D01*
X29852952Y-22307371D01*
X29900571Y-22354990D01*
X29948190Y-22450228D01*
X29948190Y-22831180D01*
X30376761Y-21878800D02*
X30424380Y-21735942D01*
X30424380Y-21497847D01*
X30376761Y-21402609D01*
X30329142Y-21354990D01*
X30233904Y-21307371D01*
X30138666Y-21307371D01*
X30043428Y-21354990D01*
X29995809Y-21402609D01*
X29948190Y-21497847D01*
X29900571Y-21688323D01*
X29852952Y-21783561D01*
X29805333Y-21831180D01*
X29710095Y-21878800D01*
X29614857Y-21878800D01*
X29519619Y-21831180D01*
X29472000Y-21783561D01*
X29424380Y-21688323D01*
X29424380Y-21450228D01*
X29472000Y-21307371D01*
X30138666Y-20164514D02*
X30138666Y-19688323D01*
X30424380Y-20259752D02*
X29424380Y-19926419D01*
X30424380Y-19593085D01*
X30424380Y-19259752D02*
X29424380Y-19259752D01*
X30424380Y-18688323D01*
X29424380Y-18688323D01*
X29424380Y-18354990D02*
X29424380Y-17783561D01*
X30424380Y-18069276D02*
X29424380Y-18069276D01*
X52404685Y-26614428D02*
X52261828Y-26566809D01*
X52214209Y-26519190D01*
X52166590Y-26423952D01*
X52166590Y-26281095D01*
X52214209Y-26185857D01*
X52261828Y-26138238D01*
X52357066Y-26090619D01*
X52738019Y-26090619D01*
X52738019Y-27090619D01*
X52404685Y-27090619D01*
X52309447Y-27043000D01*
X52261828Y-26995380D01*
X52214209Y-26900142D01*
X52214209Y-26804904D01*
X52261828Y-26709666D01*
X52309447Y-26662047D01*
X52404685Y-26614428D01*
X52738019Y-26614428D01*
X51547542Y-27090619D02*
X51357066Y-27090619D01*
X51261828Y-27043000D01*
X51166590Y-26947761D01*
X51118971Y-26757285D01*
X51118971Y-26423952D01*
X51166590Y-26233476D01*
X51261828Y-26138238D01*
X51357066Y-26090619D01*
X51547542Y-26090619D01*
X51642780Y-26138238D01*
X51738019Y-26233476D01*
X51785638Y-26423952D01*
X51785638Y-26757285D01*
X51738019Y-26947761D01*
X51642780Y-27043000D01*
X51547542Y-27090619D01*
X50499923Y-27090619D02*
X50309447Y-27090619D01*
X50214209Y-27043000D01*
X50118971Y-26947761D01*
X50071352Y-26757285D01*
X50071352Y-26423952D01*
X50118971Y-26233476D01*
X50214209Y-26138238D01*
X50309447Y-26090619D01*
X50499923Y-26090619D01*
X50595161Y-26138238D01*
X50690400Y-26233476D01*
X50738019Y-26423952D01*
X50738019Y-26757285D01*
X50690400Y-26947761D01*
X50595161Y-27043000D01*
X50499923Y-27090619D01*
X49785638Y-27090619D02*
X49214209Y-27090619D01*
X49499923Y-26090619D02*
X49499923Y-27090619D01*
X47928495Y-27090619D02*
X47833257Y-27090619D01*
X47738019Y-27043000D01*
X47690400Y-26995380D01*
X47642780Y-26900142D01*
X47595161Y-26709666D01*
X47595161Y-26471571D01*
X47642780Y-26281095D01*
X47690400Y-26185857D01*
X47738019Y-26138238D01*
X47833257Y-26090619D01*
X47928495Y-26090619D01*
X48023733Y-26138238D01*
X48071352Y-26185857D01*
X48118971Y-26281095D01*
X48166590Y-26471571D01*
X48166590Y-26709666D01*
X48118971Y-26900142D01*
X48071352Y-26995380D01*
X48023733Y-27043000D01*
X47928495Y-27090619D01*
X69416371Y-28554419D02*
X69416371Y-29554419D01*
X68940180Y-28554419D02*
X68940180Y-29554419D01*
X68368752Y-28554419D01*
X68368752Y-29554419D01*
X67892561Y-28554419D02*
X67892561Y-29554419D01*
X67511609Y-29554419D01*
X67416371Y-29506800D01*
X67368752Y-29459180D01*
X67321133Y-29363942D01*
X67321133Y-29221085D01*
X67368752Y-29125847D01*
X67416371Y-29078228D01*
X67511609Y-29030609D01*
X67892561Y-29030609D01*
X66892561Y-29554419D02*
X66892561Y-28744895D01*
X66844942Y-28649657D01*
X66797323Y-28602038D01*
X66702085Y-28554419D01*
X66511609Y-28554419D01*
X66416371Y-28602038D01*
X66368752Y-28649657D01*
X66321133Y-28744895D01*
X66321133Y-29554419D01*
X65987800Y-29554419D02*
X65416371Y-29554419D01*
X65702085Y-28554419D02*
X65702085Y-29554419D01*
X85970761Y-29427419D02*
X85780285Y-29427419D01*
X85685047Y-29379800D01*
X85589809Y-29284561D01*
X85542190Y-29094085D01*
X85542190Y-28760752D01*
X85589809Y-28570276D01*
X85685047Y-28475038D01*
X85780285Y-28427419D01*
X85970761Y-28427419D01*
X86066000Y-28475038D01*
X86161238Y-28570276D01*
X86208857Y-28760752D01*
X86208857Y-29094085D01*
X86161238Y-29284561D01*
X86066000Y-29379800D01*
X85970761Y-29427419D01*
X85113619Y-29427419D02*
X85113619Y-28617895D01*
X85066000Y-28522657D01*
X85018380Y-28475038D01*
X84923142Y-28427419D01*
X84732666Y-28427419D01*
X84637428Y-28475038D01*
X84589809Y-28522657D01*
X84542190Y-28617895D01*
X84542190Y-29427419D01*
X84208857Y-29427419D02*
X83637428Y-29427419D01*
X83923142Y-28427419D02*
X83923142Y-29427419D01*
X83304095Y-28427419D02*
X83304095Y-29427419D01*
X82923142Y-29427419D01*
X82827904Y-29379800D01*
X82780285Y-29332180D01*
X82732666Y-29236942D01*
X82732666Y-29094085D01*
X82780285Y-28998847D01*
X82827904Y-28951228D01*
X82923142Y-28903609D01*
X83304095Y-28903609D01*
X82304095Y-29427419D02*
X82304095Y-28617895D01*
X82256476Y-28522657D01*
X82208857Y-28475038D01*
X82113619Y-28427419D01*
X81923142Y-28427419D01*
X81827904Y-28475038D01*
X81780285Y-28522657D01*
X81732666Y-28617895D01*
X81732666Y-29427419D01*
X81399333Y-29427419D02*
X80827904Y-29427419D01*
X81113619Y-28427419D02*
X81113619Y-29427419D01*
X100247200Y-28763933D02*
X99771009Y-28763933D01*
X100342438Y-28478219D02*
X100009104Y-29478219D01*
X99675771Y-28478219D01*
X98818628Y-29430600D02*
X98913866Y-29478219D01*
X99056723Y-29478219D01*
X99199580Y-29430600D01*
X99294819Y-29335361D01*
X99342438Y-29240123D01*
X99390057Y-29049647D01*
X99390057Y-28906790D01*
X99342438Y-28716314D01*
X99294819Y-28621076D01*
X99199580Y-28525838D01*
X99056723Y-28478219D01*
X98961485Y-28478219D01*
X98818628Y-28525838D01*
X98771009Y-28573457D01*
X98771009Y-28906790D01*
X98961485Y-28906790D01*
X98342438Y-28478219D02*
X98342438Y-29478219D01*
X97961485Y-29478219D01*
X97866247Y-29430600D01*
X97818628Y-29382980D01*
X97771009Y-29287742D01*
X97771009Y-29144885D01*
X97818628Y-29049647D01*
X97866247Y-29002028D01*
X97961485Y-28954409D01*
X98342438Y-28954409D01*
X97342438Y-28478219D02*
X97342438Y-29478219D01*
X96675771Y-29478219D02*
X96485295Y-29478219D01*
X96390057Y-29430600D01*
X96294819Y-29335361D01*
X96247200Y-29144885D01*
X96247200Y-28811552D01*
X96294819Y-28621076D01*
X96390057Y-28525838D01*
X96485295Y-28478219D01*
X96675771Y-28478219D01*
X96771009Y-28525838D01*
X96866247Y-28621076D01*
X96913866Y-28811552D01*
X96913866Y-29144885D01*
X96866247Y-29335361D01*
X96771009Y-29430600D01*
X96675771Y-29478219D01*
X109116761Y-39660342D02*
X109164380Y-39517485D01*
X109164380Y-39279390D01*
X109116761Y-39184152D01*
X109069142Y-39136533D01*
X108973904Y-39088914D01*
X108878666Y-39088914D01*
X108783428Y-39136533D01*
X108735809Y-39184152D01*
X108688190Y-39279390D01*
X108640571Y-39469866D01*
X108592952Y-39565104D01*
X108545333Y-39612723D01*
X108450095Y-39660342D01*
X108354857Y-39660342D01*
X108259619Y-39612723D01*
X108212000Y-39565104D01*
X108164380Y-39469866D01*
X108164380Y-39231771D01*
X108212000Y-39088914D01*
X108164380Y-38755580D02*
X109164380Y-38517485D01*
X108450095Y-38327009D01*
X109164380Y-38136533D01*
X108164380Y-37898438D01*
X109164380Y-37517485D02*
X108164380Y-37517485D01*
X108164380Y-37279390D01*
X108212000Y-37136533D01*
X108307238Y-37041295D01*
X108402476Y-36993676D01*
X108592952Y-36946057D01*
X108735809Y-36946057D01*
X108926285Y-36993676D01*
X109021523Y-37041295D01*
X109116761Y-37136533D01*
X109164380Y-37279390D01*
X109164380Y-37517485D01*
D12*
X113643722Y-37261800D02*
G75*
G03*
X113643722Y-37261800I-80322J0D01*
G01*
D10*
X106832447Y-53233628D02*
X107594352Y-53233628D01*
X107213400Y-53614580D02*
X107213400Y-52852676D01*
X107234028Y-55651352D02*
X107234028Y-54889447D01*
X105446580Y-59351704D02*
X106256104Y-59351704D01*
X106351342Y-59304085D01*
X106398961Y-59256466D01*
X106446580Y-59161228D01*
X106446580Y-58970752D01*
X106398961Y-58875514D01*
X106351342Y-58827895D01*
X106256104Y-58780276D01*
X105446580Y-58780276D01*
X106398961Y-58351704D02*
X106446580Y-58208847D01*
X106446580Y-57970752D01*
X106398961Y-57875514D01*
X106351342Y-57827895D01*
X106256104Y-57780276D01*
X106160866Y-57780276D01*
X106065628Y-57827895D01*
X106018009Y-57875514D01*
X105970390Y-57970752D01*
X105922771Y-58161228D01*
X105875152Y-58256466D01*
X105827533Y-58304085D01*
X105732295Y-58351704D01*
X105637057Y-58351704D01*
X105541819Y-58304085D01*
X105494200Y-58256466D01*
X105446580Y-58161228D01*
X105446580Y-57923133D01*
X105494200Y-57780276D01*
X105922771Y-57018371D02*
X105970390Y-56875514D01*
X106018009Y-56827895D01*
X106113247Y-56780276D01*
X106256104Y-56780276D01*
X106351342Y-56827895D01*
X106398961Y-56875514D01*
X106446580Y-56970752D01*
X106446580Y-57351704D01*
X105446580Y-57351704D01*
X105446580Y-57018371D01*
X105494200Y-56923133D01*
X105541819Y-56875514D01*
X105637057Y-56827895D01*
X105732295Y-56827895D01*
X105827533Y-56875514D01*
X105875152Y-56923133D01*
X105922771Y-57018371D01*
X105922771Y-57351704D01*
X101849180Y-74002590D02*
X100849180Y-74002590D01*
X100849180Y-73621638D01*
X100896800Y-73526400D01*
X100944419Y-73478780D01*
X101039657Y-73431161D01*
X101182514Y-73431161D01*
X101277752Y-73478780D01*
X101325371Y-73526400D01*
X101372990Y-73621638D01*
X101372990Y-74002590D01*
X100849180Y-73097828D02*
X101849180Y-72859733D01*
X101134895Y-72669257D01*
X101849180Y-72478780D01*
X100849180Y-72240685D01*
X101849180Y-71288304D02*
X101372990Y-71621638D01*
X101849180Y-71859733D02*
X100849180Y-71859733D01*
X100849180Y-71478780D01*
X100896800Y-71383542D01*
X100944419Y-71335923D01*
X101039657Y-71288304D01*
X101182514Y-71288304D01*
X101277752Y-71335923D01*
X101325371Y-71383542D01*
X101372990Y-71478780D01*
X101372990Y-71859733D01*
X101849180Y-70097828D02*
X100849180Y-70097828D01*
X101849180Y-69621638D02*
X100849180Y-69621638D01*
X101849180Y-69050209D01*
X100849180Y-69050209D01*
X101874580Y-84854657D02*
X100874580Y-84854657D01*
X100874580Y-84473704D01*
X100922200Y-84378466D01*
X100969819Y-84330847D01*
X101065057Y-84283228D01*
X101207914Y-84283228D01*
X101303152Y-84330847D01*
X101350771Y-84378466D01*
X101398390Y-84473704D01*
X101398390Y-84854657D01*
X100874580Y-83949895D02*
X101874580Y-83711800D01*
X101160295Y-83521323D01*
X101874580Y-83330847D01*
X100874580Y-83092752D01*
X101874580Y-82140371D02*
X101398390Y-82473704D01*
X101874580Y-82711800D02*
X100874580Y-82711800D01*
X100874580Y-82330847D01*
X100922200Y-82235609D01*
X100969819Y-82187990D01*
X101065057Y-82140371D01*
X101207914Y-82140371D01*
X101303152Y-82187990D01*
X101350771Y-82235609D01*
X101398390Y-82330847D01*
X101398390Y-82711800D01*
X100874580Y-80759419D02*
X100874580Y-80568942D01*
X100922200Y-80473704D01*
X101017438Y-80378466D01*
X101207914Y-80330847D01*
X101541247Y-80330847D01*
X101731723Y-80378466D01*
X101826961Y-80473704D01*
X101874580Y-80568942D01*
X101874580Y-80759419D01*
X101826961Y-80854657D01*
X101731723Y-80949895D01*
X101541247Y-80997514D01*
X101207914Y-80997514D01*
X101017438Y-80949895D01*
X100922200Y-80854657D01*
X100874580Y-80759419D01*
X100874580Y-79902276D02*
X101684104Y-79902276D01*
X101779342Y-79854657D01*
X101826961Y-79807038D01*
X101874580Y-79711800D01*
X101874580Y-79521323D01*
X101826961Y-79426085D01*
X101779342Y-79378466D01*
X101684104Y-79330847D01*
X100874580Y-79330847D01*
X100874580Y-78997514D02*
X100874580Y-78426085D01*
X101874580Y-78711800D02*
X100874580Y-78711800D01*
X70278952Y-93130666D02*
X70755142Y-93130666D01*
X70183714Y-93416380D02*
X70517047Y-92416380D01*
X70850380Y-93416380D01*
X71659904Y-93416380D02*
X71183714Y-93416380D01*
X71183714Y-92416380D01*
X71850380Y-92416380D02*
X72421809Y-92416380D01*
X72136095Y-93416380D02*
X72136095Y-92416380D01*
X73517047Y-93416380D02*
X73517047Y-92416380D01*
X73945619Y-92511619D02*
X73993238Y-92464000D01*
X74088476Y-92416380D01*
X74326571Y-92416380D01*
X74421809Y-92464000D01*
X74469428Y-92511619D01*
X74517047Y-92606857D01*
X74517047Y-92702095D01*
X74469428Y-92844952D01*
X73898000Y-93416380D01*
X74517047Y-93416380D01*
X75517047Y-93321142D02*
X75469428Y-93368761D01*
X75326571Y-93416380D01*
X75231333Y-93416380D01*
X75088476Y-93368761D01*
X74993238Y-93273523D01*
X74945619Y-93178285D01*
X74898000Y-92987809D01*
X74898000Y-92844952D01*
X74945619Y-92654476D01*
X74993238Y-92559238D01*
X75088476Y-92464000D01*
X75231333Y-92416380D01*
X75326571Y-92416380D01*
X75469428Y-92464000D01*
X75517047Y-92511619D01*
X17216666Y-88082380D02*
X16883333Y-87606190D01*
X16645238Y-88082380D02*
X16645238Y-87082380D01*
X17026190Y-87082380D01*
X17121428Y-87130000D01*
X17169047Y-87177619D01*
X17216666Y-87272857D01*
X17216666Y-87415714D01*
X17169047Y-87510952D01*
X17121428Y-87558571D01*
X17026190Y-87606190D01*
X16645238Y-87606190D01*
X17978571Y-87558571D02*
X17645238Y-87558571D01*
X17645238Y-88082380D02*
X17645238Y-87082380D01*
X18121428Y-87082380D01*
X19216666Y-87796666D02*
X19692857Y-87796666D01*
X19121428Y-88082380D02*
X19454761Y-87082380D01*
X19788095Y-88082380D01*
X20121428Y-88082380D02*
X20121428Y-87082380D01*
X20692857Y-88082380D01*
X20692857Y-87082380D01*
X21026190Y-87082380D02*
X21597619Y-87082380D01*
X21311904Y-88082380D02*
X21311904Y-87082380D01*
D14*
%TO.C,G1*%
G36*
X27593665Y-71636538D02*
G01*
X27564026Y-71677093D01*
X27538770Y-71752917D01*
X27520262Y-71912292D01*
X27510169Y-72137295D01*
X27508800Y-72270800D01*
X27513986Y-72522243D01*
X27528433Y-72717150D01*
X27550474Y-72837598D01*
X27564026Y-72864506D01*
X27596102Y-72924554D01*
X27552655Y-72948417D01*
X27454543Y-72932050D01*
X27377136Y-72900762D01*
X27196407Y-72759918D01*
X27087575Y-72548201D01*
X27051600Y-72270800D01*
X27088347Y-71990795D01*
X27197944Y-71779817D01*
X27377136Y-71640837D01*
X27498262Y-71598065D01*
X27577392Y-71597980D01*
X27593665Y-71636538D01*
G37*
X27593665Y-71636538D02*
X27564026Y-71677093D01*
X27538770Y-71752917D01*
X27520262Y-71912292D01*
X27510169Y-72137295D01*
X27508800Y-72270800D01*
X27513986Y-72522243D01*
X27528433Y-72717150D01*
X27550474Y-72837598D01*
X27564026Y-72864506D01*
X27596102Y-72924554D01*
X27552655Y-72948417D01*
X27454543Y-72932050D01*
X27377136Y-72900762D01*
X27196407Y-72759918D01*
X27087575Y-72548201D01*
X27051600Y-72270800D01*
X27088347Y-71990795D01*
X27197944Y-71779817D01*
X27377136Y-71640837D01*
X27498262Y-71598065D01*
X27577392Y-71597980D01*
X27593665Y-71636538D01*
G36*
X27783119Y-71589723D02*
G01*
X27906201Y-71656441D01*
X28042200Y-71768931D01*
X28123474Y-71856720D01*
X28169275Y-71943007D01*
X28189629Y-72060816D01*
X28194567Y-72243172D01*
X28194600Y-72270800D01*
X28190832Y-72463063D01*
X28172844Y-72586839D01*
X28130607Y-72675151D01*
X28054092Y-72761026D01*
X28042200Y-72772668D01*
X27903862Y-72886758D01*
X27781222Y-72952570D01*
X27693823Y-72962948D01*
X27661200Y-72912221D01*
X27690850Y-72824270D01*
X27712000Y-72804200D01*
X27733930Y-72742569D01*
X27750994Y-72601969D01*
X27761038Y-72404997D01*
X27762800Y-72270800D01*
X27757934Y-72051072D01*
X27744774Y-71874319D01*
X27725469Y-71763136D01*
X27712000Y-71737400D01*
X27665839Y-71664148D01*
X27661200Y-71629378D01*
X27694937Y-71578316D01*
X27783119Y-71589723D01*
G37*
X27783119Y-71589723D02*
X27906201Y-71656441D01*
X28042200Y-71768931D01*
X28123474Y-71856720D01*
X28169275Y-71943007D01*
X28189629Y-72060816D01*
X28194567Y-72243172D01*
X28194600Y-72270800D01*
X28190832Y-72463063D01*
X28172844Y-72586839D01*
X28130607Y-72675151D01*
X28054092Y-72761026D01*
X28042200Y-72772668D01*
X27903862Y-72886758D01*
X27781222Y-72952570D01*
X27693823Y-72962948D01*
X27661200Y-72912221D01*
X27690850Y-72824270D01*
X27712000Y-72804200D01*
X27733930Y-72742569D01*
X27750994Y-72601969D01*
X27761038Y-72404997D01*
X27762800Y-72270800D01*
X27757934Y-72051072D01*
X27744774Y-71874319D01*
X27725469Y-71763136D01*
X27712000Y-71737400D01*
X27665839Y-71664148D01*
X27661200Y-71629378D01*
X27694937Y-71578316D01*
X27783119Y-71589723D01*
G36*
X30954941Y-71641228D02*
G01*
X30947896Y-71705596D01*
X30912400Y-71737400D01*
X30890469Y-71799030D01*
X30873405Y-71939630D01*
X30863361Y-72136602D01*
X30861600Y-72270800D01*
X30866465Y-72490527D01*
X30879625Y-72667280D01*
X30898930Y-72778463D01*
X30912400Y-72804200D01*
X30958244Y-72870611D01*
X30952431Y-72946038D01*
X30899700Y-72979966D01*
X30812205Y-72955674D01*
X30697138Y-72902478D01*
X30571868Y-72800843D01*
X30481238Y-72678434D01*
X30422517Y-72485863D01*
X30407801Y-72253433D01*
X30437301Y-72031178D01*
X30478003Y-71920221D01*
X30582865Y-71779849D01*
X30722674Y-71667830D01*
X30860498Y-71612266D01*
X30885212Y-71610400D01*
X30954941Y-71641228D01*
G37*
X30954941Y-71641228D02*
X30947896Y-71705596D01*
X30912400Y-71737400D01*
X30890469Y-71799030D01*
X30873405Y-71939630D01*
X30863361Y-72136602D01*
X30861600Y-72270800D01*
X30866465Y-72490527D01*
X30879625Y-72667280D01*
X30898930Y-72778463D01*
X30912400Y-72804200D01*
X30958244Y-72870611D01*
X30952431Y-72946038D01*
X30899700Y-72979966D01*
X30812205Y-72955674D01*
X30697138Y-72902478D01*
X30571868Y-72800843D01*
X30481238Y-72678434D01*
X30422517Y-72485863D01*
X30407801Y-72253433D01*
X30437301Y-72031178D01*
X30478003Y-71920221D01*
X30582865Y-71779849D01*
X30722674Y-71667830D01*
X30860498Y-71612266D01*
X30885212Y-71610400D01*
X30954941Y-71641228D01*
G36*
X31423313Y-72608993D02*
G01*
X31433420Y-72687527D01*
X31372282Y-72789251D01*
X31264916Y-72890734D01*
X31149201Y-72950626D01*
X31058273Y-72953525D01*
X31042341Y-72942608D01*
X31015815Y-72870971D01*
X31072159Y-72830435D01*
X31086512Y-72829600D01*
X31165233Y-72792614D01*
X31258697Y-72702695D01*
X31265769Y-72693896D01*
X31360219Y-72603926D01*
X31423313Y-72608993D01*
G37*
X31423313Y-72608993D02*
X31433420Y-72687527D01*
X31372282Y-72789251D01*
X31264916Y-72890734D01*
X31149201Y-72950626D01*
X31058273Y-72953525D01*
X31042341Y-72942608D01*
X31015815Y-72870971D01*
X31072159Y-72830435D01*
X31086512Y-72829600D01*
X31165233Y-72792614D01*
X31258697Y-72702695D01*
X31265769Y-72693896D01*
X31360219Y-72603926D01*
X31423313Y-72608993D01*
G36*
X31685055Y-72520453D02*
G01*
X31749821Y-72624894D01*
X31835437Y-72748030D01*
X31930348Y-72830642D01*
X31998672Y-72890857D01*
X32003024Y-72933748D01*
X31977910Y-72962735D01*
X31931722Y-72972293D01*
X31835717Y-72963596D01*
X31712500Y-72945614D01*
X31625563Y-72922776D01*
X31584880Y-72869087D01*
X31573217Y-72754152D01*
X31572800Y-72699225D01*
X31586034Y-72542116D01*
X31624213Y-72482205D01*
X31685055Y-72520453D01*
G37*
X31685055Y-72520453D02*
X31749821Y-72624894D01*
X31835437Y-72748030D01*
X31930348Y-72830642D01*
X31998672Y-72890857D01*
X32003024Y-72933748D01*
X31977910Y-72962735D01*
X31931722Y-72972293D01*
X31835717Y-72963596D01*
X31712500Y-72945614D01*
X31625563Y-72922776D01*
X31584880Y-72869087D01*
X31573217Y-72754152D01*
X31572800Y-72699225D01*
X31586034Y-72542116D01*
X31624213Y-72482205D01*
X31685055Y-72520453D01*
G36*
X32036812Y-71599543D02*
G01*
X32048537Y-71609240D01*
X32072817Y-71669178D01*
X32017300Y-71717688D01*
X31937414Y-71796099D01*
X31957798Y-71885057D01*
X32078707Y-71985091D01*
X32172890Y-72037381D01*
X32325733Y-72123764D01*
X32446872Y-72207965D01*
X32487850Y-72246184D01*
X32552747Y-72395843D01*
X32549442Y-72575120D01*
X32482008Y-72742225D01*
X32433860Y-72800367D01*
X32314098Y-72894738D01*
X32198227Y-72952789D01*
X32111950Y-72965261D01*
X32080800Y-72927523D01*
X32117816Y-72849792D01*
X32165253Y-72804446D01*
X32222457Y-72716565D01*
X32191978Y-72619930D01*
X32082901Y-72536752D01*
X32050067Y-72522772D01*
X31807823Y-72396495D01*
X31653710Y-72238804D01*
X31592004Y-72056467D01*
X31626979Y-71856253D01*
X31627827Y-71854194D01*
X31708451Y-71732509D01*
X31823261Y-71637994D01*
X31942599Y-71587917D01*
X32036812Y-71599543D01*
G37*
X32036812Y-71599543D02*
X32048537Y-71609240D01*
X32072817Y-71669178D01*
X32017300Y-71717688D01*
X31937414Y-71796099D01*
X31957798Y-71885057D01*
X32078707Y-71985091D01*
X32172890Y-72037381D01*
X32325733Y-72123764D01*
X32446872Y-72207965D01*
X32487850Y-72246184D01*
X32552747Y-72395843D01*
X32549442Y-72575120D01*
X32482008Y-72742225D01*
X32433860Y-72800367D01*
X32314098Y-72894738D01*
X32198227Y-72952789D01*
X32111950Y-72965261D01*
X32080800Y-72927523D01*
X32117816Y-72849792D01*
X32165253Y-72804446D01*
X32222457Y-72716565D01*
X32191978Y-72619930D01*
X32082901Y-72536752D01*
X32050067Y-72522772D01*
X31807823Y-72396495D01*
X31653710Y-72238804D01*
X31592004Y-72056467D01*
X31626979Y-71856253D01*
X31627827Y-71854194D01*
X31708451Y-71732509D01*
X31823261Y-71637994D01*
X31942599Y-71587917D01*
X32036812Y-71599543D01*
G36*
X24229240Y-71970745D02*
G01*
X24232432Y-72056945D01*
X24210068Y-72209009D01*
X24166902Y-72395824D01*
X24160908Y-72417809D01*
X24110984Y-72608708D01*
X24090859Y-72724057D01*
X24099047Y-72784968D01*
X24133125Y-72812198D01*
X24204470Y-72859067D01*
X24185281Y-72900667D01*
X24086515Y-72926934D01*
X24003600Y-72931200D01*
X23876308Y-72923985D01*
X23805553Y-72905965D01*
X23800400Y-72898700D01*
X23835409Y-72843987D01*
X23873510Y-72809800D01*
X23920022Y-72737565D01*
X23981346Y-72593228D01*
X24046841Y-72403048D01*
X24071368Y-72321600D01*
X24136464Y-72115605D01*
X24187845Y-71993192D01*
X24222421Y-71961225D01*
X24229240Y-71970745D01*
G37*
X24229240Y-71970745D02*
X24232432Y-72056945D01*
X24210068Y-72209009D01*
X24166902Y-72395824D01*
X24160908Y-72417809D01*
X24110984Y-72608708D01*
X24090859Y-72724057D01*
X24099047Y-72784968D01*
X24133125Y-72812198D01*
X24204470Y-72859067D01*
X24185281Y-72900667D01*
X24086515Y-72926934D01*
X24003600Y-72931200D01*
X23876308Y-72923985D01*
X23805553Y-72905965D01*
X23800400Y-72898700D01*
X23835409Y-72843987D01*
X23873510Y-72809800D01*
X23920022Y-72737565D01*
X23981346Y-72593228D01*
X24046841Y-72403048D01*
X24071368Y-72321600D01*
X24136464Y-72115605D01*
X24187845Y-71993192D01*
X24222421Y-71961225D01*
X24229240Y-71970745D01*
G36*
X24603614Y-71619057D02*
G01*
X24648445Y-71653088D01*
X24685726Y-71727551D01*
X24723941Y-71857919D01*
X24771571Y-72059663D01*
X24819411Y-72270800D01*
X24871019Y-72482959D01*
X24919917Y-72658398D01*
X24959010Y-72772822D01*
X24974399Y-72801660D01*
X25015608Y-72867594D01*
X24982330Y-72907896D01*
X24864984Y-72927370D01*
X24716070Y-72931200D01*
X24412540Y-72931200D01*
X24443020Y-72778800D01*
X24455498Y-72673799D01*
X24416734Y-72633060D01*
X24311751Y-72626400D01*
X24206597Y-72613121D01*
X24179705Y-72578751D01*
X24181400Y-72575600D01*
X24253051Y-72532924D01*
X24311398Y-72524800D01*
X24367914Y-72522489D01*
X24396689Y-72501851D01*
X24398875Y-72442327D01*
X24375628Y-72323360D01*
X24332783Y-72143800D01*
X24279591Y-71909257D01*
X24258142Y-71755560D01*
X24272381Y-71665830D01*
X24326249Y-71623191D01*
X24423688Y-71610764D01*
X24457376Y-71610400D01*
X24542752Y-71609985D01*
X24603614Y-71619057D01*
G37*
X24603614Y-71619057D02*
X24648445Y-71653088D01*
X24685726Y-71727551D01*
X24723941Y-71857919D01*
X24771571Y-72059663D01*
X24819411Y-72270800D01*
X24871019Y-72482959D01*
X24919917Y-72658398D01*
X24959010Y-72772822D01*
X24974399Y-72801660D01*
X25015608Y-72867594D01*
X24982330Y-72907896D01*
X24864984Y-72927370D01*
X24716070Y-72931200D01*
X24412540Y-72931200D01*
X24443020Y-72778800D01*
X24455498Y-72673799D01*
X24416734Y-72633060D01*
X24311751Y-72626400D01*
X24206597Y-72613121D01*
X24179705Y-72578751D01*
X24181400Y-72575600D01*
X24253051Y-72532924D01*
X24311398Y-72524800D01*
X24367914Y-72522489D01*
X24396689Y-72501851D01*
X24398875Y-72442327D01*
X24375628Y-72323360D01*
X24332783Y-72143800D01*
X24279591Y-71909257D01*
X24258142Y-71755560D01*
X24272381Y-71665830D01*
X24326249Y-71623191D01*
X24423688Y-71610764D01*
X24457376Y-71610400D01*
X24542752Y-71609985D01*
X24603614Y-71619057D01*
G36*
X25546511Y-71612622D02*
G01*
X25633737Y-71625685D01*
X25662316Y-71659184D01*
X25653722Y-71722710D01*
X25651407Y-71732033D01*
X25649918Y-71839145D01*
X25674382Y-72008420D01*
X25719617Y-72205305D01*
X25725686Y-72227333D01*
X25789955Y-72514460D01*
X25797768Y-72721720D01*
X25748288Y-72854274D01*
X25640676Y-72917280D01*
X25612855Y-72921902D01*
X25499986Y-72911810D01*
X25453957Y-72871102D01*
X25430829Y-72797198D01*
X25385506Y-72649090D01*
X25325031Y-72449873D01*
X25270948Y-72270800D01*
X25201988Y-72053525D01*
X25138945Y-71875631D01*
X25089560Y-71757767D01*
X25064585Y-71720361D01*
X25021580Y-71685103D01*
X25063204Y-71651199D01*
X25172590Y-71624543D01*
X25332867Y-71611032D01*
X25379165Y-71610400D01*
X25546511Y-71612622D01*
G37*
X25546511Y-71612622D02*
X25633737Y-71625685D01*
X25662316Y-71659184D01*
X25653722Y-71722710D01*
X25651407Y-71732033D01*
X25649918Y-71839145D01*
X25674382Y-72008420D01*
X25719617Y-72205305D01*
X25725686Y-72227333D01*
X25789955Y-72514460D01*
X25797768Y-72721720D01*
X25748288Y-72854274D01*
X25640676Y-72917280D01*
X25612855Y-72921902D01*
X25499986Y-72911810D01*
X25453957Y-72871102D01*
X25430829Y-72797198D01*
X25385506Y-72649090D01*
X25325031Y-72449873D01*
X25270948Y-72270800D01*
X25201988Y-72053525D01*
X25138945Y-71875631D01*
X25089560Y-71757767D01*
X25064585Y-71720361D01*
X25021580Y-71685103D01*
X25063204Y-71651199D01*
X25172590Y-71624543D01*
X25332867Y-71611032D01*
X25379165Y-71610400D01*
X25546511Y-71612622D01*
G36*
X26840772Y-71621452D02*
G01*
X26937953Y-71652569D01*
X26943633Y-71700696D01*
X26899200Y-71737400D01*
X26877542Y-71799118D01*
X26860673Y-71941210D01*
X26850507Y-72142489D01*
X26848400Y-72299198D01*
X26853038Y-72542398D01*
X26866067Y-72719196D01*
X26886158Y-72815725D01*
X26899200Y-72829600D01*
X26948523Y-72868257D01*
X26950000Y-72880400D01*
X26903942Y-72907725D01*
X26784586Y-72926156D01*
X26657900Y-72931200D01*
X26365800Y-72931200D01*
X26365800Y-71610400D01*
X26657900Y-71610400D01*
X26840772Y-71621452D01*
G37*
X26840772Y-71621452D02*
X26937953Y-71652569D01*
X26943633Y-71700696D01*
X26899200Y-71737400D01*
X26877542Y-71799118D01*
X26860673Y-71941210D01*
X26850507Y-72142489D01*
X26848400Y-72299198D01*
X26853038Y-72542398D01*
X26866067Y-72719196D01*
X26886158Y-72815725D01*
X26899200Y-72829600D01*
X26948523Y-72868257D01*
X26950000Y-72880400D01*
X26903942Y-72907725D01*
X26784586Y-72926156D01*
X26657900Y-72931200D01*
X26365800Y-72931200D01*
X26365800Y-71610400D01*
X26657900Y-71610400D01*
X26840772Y-71621452D01*
G36*
X28542035Y-72061103D02*
G01*
X28550200Y-72067600D01*
X28599400Y-72155672D01*
X28623224Y-72324042D01*
X28626400Y-72451822D01*
X28633876Y-72623536D01*
X28653357Y-72751670D01*
X28677200Y-72804200D01*
X28729201Y-72863573D01*
X28690789Y-72909498D01*
X28573124Y-72930814D01*
X28550200Y-72931200D01*
X28432668Y-72919191D01*
X28373931Y-72889663D01*
X28372400Y-72883398D01*
X28409326Y-72814597D01*
X28423200Y-72804200D01*
X28447587Y-72741644D01*
X28465577Y-72605013D01*
X28473811Y-72421782D01*
X28474000Y-72388581D01*
X28476302Y-72195463D01*
X28485808Y-72087463D01*
X28506419Y-72048152D01*
X28542035Y-72061103D01*
G37*
X28542035Y-72061103D02*
X28550200Y-72067600D01*
X28599400Y-72155672D01*
X28623224Y-72324042D01*
X28626400Y-72451822D01*
X28633876Y-72623536D01*
X28653357Y-72751670D01*
X28677200Y-72804200D01*
X28729201Y-72863573D01*
X28690789Y-72909498D01*
X28573124Y-72930814D01*
X28550200Y-72931200D01*
X28432668Y-72919191D01*
X28373931Y-72889663D01*
X28372400Y-72883398D01*
X28409326Y-72814597D01*
X28423200Y-72804200D01*
X28447587Y-72741644D01*
X28465577Y-72605013D01*
X28473811Y-72421782D01*
X28474000Y-72388581D01*
X28476302Y-72195463D01*
X28485808Y-72087463D01*
X28506419Y-72048152D01*
X28542035Y-72061103D01*
G36*
X29177208Y-72083324D02*
G01*
X29321391Y-72361514D01*
X29407011Y-72572085D01*
X29438779Y-72726909D01*
X29439200Y-72743724D01*
X29431758Y-72867396D01*
X29393201Y-72919831D01*
X29299181Y-72931165D01*
X29287739Y-72931200D01*
X29208763Y-72922299D01*
X29141925Y-72883946D01*
X29070466Y-72798664D01*
X28977623Y-72648975D01*
X28919439Y-72547164D01*
X28794263Y-72330088D01*
X28662932Y-72109690D01*
X28551086Y-71928896D01*
X28537500Y-71907730D01*
X28449827Y-71768884D01*
X28389956Y-71667905D01*
X28372400Y-71631365D01*
X28418289Y-71619736D01*
X28536346Y-71612123D01*
X28643808Y-71610400D01*
X28915217Y-71610400D01*
X29177208Y-72083324D01*
G37*
X29177208Y-72083324D02*
X29321391Y-72361514D01*
X29407011Y-72572085D01*
X29438779Y-72726909D01*
X29439200Y-72743724D01*
X29431758Y-72867396D01*
X29393201Y-72919831D01*
X29299181Y-72931165D01*
X29287739Y-72931200D01*
X29208763Y-72922299D01*
X29141925Y-72883946D01*
X29070466Y-72798664D01*
X28977623Y-72648975D01*
X28919439Y-72547164D01*
X28794263Y-72330088D01*
X28662932Y-72109690D01*
X28551086Y-71928896D01*
X28537500Y-71907730D01*
X28449827Y-71768884D01*
X28389956Y-71667905D01*
X28372400Y-71631365D01*
X28418289Y-71619736D01*
X28536346Y-71612123D01*
X28643808Y-71610400D01*
X28915217Y-71610400D01*
X29177208Y-72083324D01*
G36*
X30193572Y-71621452D02*
G01*
X30290753Y-71652569D01*
X30296433Y-71700696D01*
X30252000Y-71737400D01*
X30230342Y-71799118D01*
X30213473Y-71941210D01*
X30203307Y-72142489D01*
X30201200Y-72299198D01*
X30205838Y-72542398D01*
X30218867Y-72719196D01*
X30238958Y-72815725D01*
X30252000Y-72829600D01*
X30301323Y-72868257D01*
X30302800Y-72880400D01*
X30256742Y-72907725D01*
X30137386Y-72926156D01*
X30010700Y-72931200D01*
X29718600Y-72931200D01*
X29718600Y-71610400D01*
X30010700Y-71610400D01*
X30193572Y-71621452D01*
G37*
X30193572Y-71621452D02*
X30290753Y-71652569D01*
X30296433Y-71700696D01*
X30252000Y-71737400D01*
X30230342Y-71799118D01*
X30213473Y-71941210D01*
X30203307Y-72142489D01*
X30201200Y-72299198D01*
X30205838Y-72542398D01*
X30218867Y-72719196D01*
X30238958Y-72815725D01*
X30252000Y-72829600D01*
X30301323Y-72868257D01*
X30302800Y-72880400D01*
X30256742Y-72907725D01*
X30137386Y-72926156D01*
X30010700Y-72931200D01*
X29718600Y-72931200D01*
X29718600Y-71610400D01*
X30010700Y-71610400D01*
X30193572Y-71621452D01*
G36*
X26146250Y-71620707D02*
G01*
X26180967Y-71660206D01*
X26130231Y-71741762D01*
X26108549Y-71766391D01*
X26050197Y-71865059D01*
X25988966Y-72020003D01*
X25959361Y-72118546D01*
X25907863Y-72300114D01*
X25870680Y-72392275D01*
X25842022Y-72405215D01*
X25820494Y-72362875D01*
X25819883Y-72278117D01*
X25843180Y-72135462D01*
X25865346Y-72042200D01*
X25901632Y-71887021D01*
X25904844Y-71798207D01*
X25874263Y-71745813D01*
X25857933Y-71732377D01*
X25809126Y-71669025D01*
X25856227Y-71627440D01*
X25995296Y-71610613D01*
X26018666Y-71610400D01*
X26146250Y-71620707D01*
G37*
X26146250Y-71620707D02*
X26180967Y-71660206D01*
X26130231Y-71741762D01*
X26108549Y-71766391D01*
X26050197Y-71865059D01*
X25988966Y-72020003D01*
X25959361Y-72118546D01*
X25907863Y-72300114D01*
X25870680Y-72392275D01*
X25842022Y-72405215D01*
X25820494Y-72362875D01*
X25819883Y-72278117D01*
X25843180Y-72135462D01*
X25865346Y-72042200D01*
X25901632Y-71887021D01*
X25904844Y-71798207D01*
X25874263Y-71745813D01*
X25857933Y-71732377D01*
X25809126Y-71669025D01*
X25856227Y-71627440D01*
X25995296Y-71610613D01*
X26018666Y-71610400D01*
X26146250Y-71620707D01*
G36*
X29498244Y-71624870D02*
G01*
X29538189Y-71669824D01*
X29492910Y-71739940D01*
X29463047Y-71814919D01*
X29438621Y-71954506D01*
X29429410Y-72057886D01*
X29415847Y-72211114D01*
X29394655Y-72277722D01*
X29360079Y-72272671D01*
X29350300Y-72263626D01*
X29310391Y-72175258D01*
X29288334Y-72032808D01*
X29286800Y-71984238D01*
X29275799Y-71843939D01*
X29248240Y-71751328D01*
X29236000Y-71737400D01*
X29183998Y-71678026D01*
X29222410Y-71632101D01*
X29340075Y-71610785D01*
X29363000Y-71610400D01*
X29498244Y-71624870D01*
G37*
X29498244Y-71624870D02*
X29538189Y-71669824D01*
X29492910Y-71739940D01*
X29463047Y-71814919D01*
X29438621Y-71954506D01*
X29429410Y-72057886D01*
X29415847Y-72211114D01*
X29394655Y-72277722D01*
X29360079Y-72272671D01*
X29350300Y-72263626D01*
X29310391Y-72175258D01*
X29288334Y-72032808D01*
X29286800Y-71984238D01*
X29275799Y-71843939D01*
X29248240Y-71751328D01*
X29236000Y-71737400D01*
X29183998Y-71678026D01*
X29222410Y-71632101D01*
X29340075Y-71610785D01*
X29363000Y-71610400D01*
X29498244Y-71624870D01*
G36*
X31245053Y-71623073D02*
G01*
X31476106Y-71626566D01*
X31460953Y-71855812D01*
X31438964Y-71998191D01*
X31401060Y-72090473D01*
X31382300Y-72105962D01*
X31328543Y-72084072D01*
X31318800Y-72042525D01*
X31284873Y-71955698D01*
X31200159Y-71841643D01*
X31166400Y-71805784D01*
X31072724Y-71708515D01*
X31018995Y-71645764D01*
X31014000Y-71636482D01*
X31059463Y-71627131D01*
X31174611Y-71622816D01*
X31245053Y-71623073D01*
G37*
X31245053Y-71623073D02*
X31476106Y-71626566D01*
X31460953Y-71855812D01*
X31438964Y-71998191D01*
X31401060Y-72090473D01*
X31382300Y-72105962D01*
X31328543Y-72084072D01*
X31318800Y-72042525D01*
X31284873Y-71955698D01*
X31200159Y-71841643D01*
X31166400Y-71805784D01*
X31072724Y-71708515D01*
X31018995Y-71645764D01*
X31014000Y-71636482D01*
X31059463Y-71627131D01*
X31174611Y-71622816D01*
X31245053Y-71623073D01*
G36*
X32189720Y-71589524D02*
G01*
X32280304Y-71614566D01*
X32395679Y-71621241D01*
X32488841Y-71625381D01*
X32528298Y-71663660D01*
X32532208Y-71764120D01*
X32528058Y-71825671D01*
X32501601Y-71972508D01*
X32457219Y-72046329D01*
X32407315Y-72038076D01*
X32365662Y-71944278D01*
X32303074Y-71824805D01*
X32232600Y-71762478D01*
X32151933Y-71688340D01*
X32131600Y-71631014D01*
X32158690Y-71581058D01*
X32189720Y-71589524D01*
G37*
X32189720Y-71589524D02*
X32280304Y-71614566D01*
X32395679Y-71621241D01*
X32488841Y-71625381D01*
X32528298Y-71663660D01*
X32532208Y-71764120D01*
X32528058Y-71825671D01*
X32501601Y-71972508D01*
X32457219Y-72046329D01*
X32407315Y-72038076D01*
X32365662Y-71944278D01*
X32303074Y-71824805D01*
X32232600Y-71762478D01*
X32151933Y-71688340D01*
X32131600Y-71631014D01*
X32158690Y-71581058D01*
X32189720Y-71589524D01*
G36*
X28465741Y-69304428D02*
G01*
X28458696Y-69368796D01*
X28423200Y-69400600D01*
X28401269Y-69462230D01*
X28384205Y-69602830D01*
X28374161Y-69799802D01*
X28372400Y-69934000D01*
X28377265Y-70153727D01*
X28390425Y-70330480D01*
X28409730Y-70441663D01*
X28423200Y-70467400D01*
X28469044Y-70533811D01*
X28463231Y-70609238D01*
X28410500Y-70643166D01*
X28323005Y-70618874D01*
X28207938Y-70565678D01*
X28082668Y-70464043D01*
X27992038Y-70341634D01*
X27933317Y-70149063D01*
X27918601Y-69916633D01*
X27948101Y-69694378D01*
X27988803Y-69583421D01*
X28093665Y-69443049D01*
X28233474Y-69331030D01*
X28371298Y-69275466D01*
X28396012Y-69273600D01*
X28465741Y-69304428D01*
G37*
X28465741Y-69304428D02*
X28458696Y-69368796D01*
X28423200Y-69400600D01*
X28401269Y-69462230D01*
X28384205Y-69602830D01*
X28374161Y-69799802D01*
X28372400Y-69934000D01*
X28377265Y-70153727D01*
X28390425Y-70330480D01*
X28409730Y-70441663D01*
X28423200Y-70467400D01*
X28469044Y-70533811D01*
X28463231Y-70609238D01*
X28410500Y-70643166D01*
X28323005Y-70618874D01*
X28207938Y-70565678D01*
X28082668Y-70464043D01*
X27992038Y-70341634D01*
X27933317Y-70149063D01*
X27918601Y-69916633D01*
X27948101Y-69694378D01*
X27988803Y-69583421D01*
X28093665Y-69443049D01*
X28233474Y-69331030D01*
X28371298Y-69275466D01*
X28396012Y-69273600D01*
X28465741Y-69304428D01*
G36*
X28934113Y-70272193D02*
G01*
X28944220Y-70350727D01*
X28883082Y-70452451D01*
X28775716Y-70553934D01*
X28660001Y-70613826D01*
X28569073Y-70616725D01*
X28553141Y-70605808D01*
X28526615Y-70534171D01*
X28582959Y-70493635D01*
X28597312Y-70492800D01*
X28676033Y-70455814D01*
X28769497Y-70365895D01*
X28776569Y-70357096D01*
X28871019Y-70267126D01*
X28934113Y-70272193D01*
G37*
X28934113Y-70272193D02*
X28944220Y-70350727D01*
X28883082Y-70452451D01*
X28775716Y-70553934D01*
X28660001Y-70613826D01*
X28569073Y-70616725D01*
X28553141Y-70605808D01*
X28526615Y-70534171D01*
X28582959Y-70493635D01*
X28597312Y-70492800D01*
X28676033Y-70455814D01*
X28769497Y-70365895D01*
X28776569Y-70357096D01*
X28871019Y-70267126D01*
X28934113Y-70272193D01*
G36*
X29551788Y-69281536D02*
G01*
X29674020Y-69302108D01*
X29718600Y-69324400D01*
X29714572Y-69371211D01*
X29696198Y-69375200D01*
X29672697Y-69421694D01*
X29655784Y-69544371D01*
X29645527Y-69718025D01*
X29641996Y-69917448D01*
X29645258Y-70117432D01*
X29655385Y-70292771D01*
X29672445Y-70418257D01*
X29693200Y-70467400D01*
X29742313Y-70539041D01*
X29723129Y-70614295D01*
X29655100Y-70644887D01*
X29549070Y-70621889D01*
X29417228Y-70566890D01*
X29414959Y-70565712D01*
X29298993Y-70493811D01*
X29226637Y-70428436D01*
X29225237Y-70426325D01*
X29208614Y-70351870D01*
X29195428Y-70201296D01*
X29187479Y-70000073D01*
X29185977Y-69870500D01*
X29180671Y-69639140D01*
X29166624Y-69472067D01*
X29145428Y-69384560D01*
X29134400Y-69375200D01*
X29085076Y-69336542D01*
X29083600Y-69324400D01*
X29129822Y-69297278D01*
X29250352Y-69278913D01*
X29385401Y-69273600D01*
X29551788Y-69281536D01*
G37*
X29551788Y-69281536D02*
X29674020Y-69302108D01*
X29718600Y-69324400D01*
X29714572Y-69371211D01*
X29696198Y-69375200D01*
X29672697Y-69421694D01*
X29655784Y-69544371D01*
X29645527Y-69718025D01*
X29641996Y-69917448D01*
X29645258Y-70117432D01*
X29655385Y-70292771D01*
X29672445Y-70418257D01*
X29693200Y-70467400D01*
X29742313Y-70539041D01*
X29723129Y-70614295D01*
X29655100Y-70644887D01*
X29549070Y-70621889D01*
X29417228Y-70566890D01*
X29414959Y-70565712D01*
X29298993Y-70493811D01*
X29226637Y-70428436D01*
X29225237Y-70426325D01*
X29208614Y-70351870D01*
X29195428Y-70201296D01*
X29187479Y-70000073D01*
X29185977Y-69870500D01*
X29180671Y-69639140D01*
X29166624Y-69472067D01*
X29145428Y-69384560D01*
X29134400Y-69375200D01*
X29085076Y-69336542D01*
X29083600Y-69324400D01*
X29129822Y-69297278D01*
X29250352Y-69278913D01*
X29385401Y-69273600D01*
X29551788Y-69281536D01*
G36*
X30247285Y-69287209D02*
G01*
X30298384Y-69329206D01*
X30254354Y-69401340D01*
X30226600Y-69426000D01*
X30185658Y-69491186D01*
X30161437Y-69615193D01*
X30151196Y-69815714D01*
X30150400Y-69918159D01*
X30144432Y-70128274D01*
X30128571Y-70307837D01*
X30105878Y-70425850D01*
X30098435Y-70444175D01*
X30015479Y-70548197D01*
X29917382Y-70607176D01*
X29835413Y-70605633D01*
X29814288Y-70584835D01*
X29814131Y-70519718D01*
X29837512Y-70503962D01*
X29937085Y-70450600D01*
X30000960Y-70357721D01*
X30035826Y-70206484D01*
X30048368Y-69978045D01*
X30048800Y-69908600D01*
X30042394Y-69667537D01*
X30021456Y-69510411D01*
X29983407Y-69420267D01*
X29972600Y-69407857D01*
X29908675Y-69330850D01*
X29920953Y-69290081D01*
X30019495Y-69274911D01*
X30099600Y-69273600D01*
X30247285Y-69287209D01*
G37*
X30247285Y-69287209D02*
X30298384Y-69329206D01*
X30254354Y-69401340D01*
X30226600Y-69426000D01*
X30185658Y-69491186D01*
X30161437Y-69615193D01*
X30151196Y-69815714D01*
X30150400Y-69918159D01*
X30144432Y-70128274D01*
X30128571Y-70307837D01*
X30105878Y-70425850D01*
X30098435Y-70444175D01*
X30015479Y-70548197D01*
X29917382Y-70607176D01*
X29835413Y-70605633D01*
X29814288Y-70584835D01*
X29814131Y-70519718D01*
X29837512Y-70503962D01*
X29937085Y-70450600D01*
X30000960Y-70357721D01*
X30035826Y-70206484D01*
X30048368Y-69978045D01*
X30048800Y-69908600D01*
X30042394Y-69667537D01*
X30021456Y-69510411D01*
X29983407Y-69420267D01*
X29972600Y-69407857D01*
X29908675Y-69330850D01*
X29920953Y-69290081D01*
X30019495Y-69274911D01*
X30099600Y-69273600D01*
X30247285Y-69287209D01*
G36*
X24053268Y-69830684D02*
G01*
X24054400Y-69832400D01*
X24084511Y-69927543D01*
X24102379Y-70077420D01*
X24104422Y-70143679D01*
X24123217Y-70324430D01*
X24173851Y-70434957D01*
X24181400Y-70442000D01*
X24250498Y-70521976D01*
X24225575Y-70571644D01*
X24104751Y-70593129D01*
X24046526Y-70594400D01*
X23916785Y-70591238D01*
X23871891Y-70573596D01*
X23895116Y-70529237D01*
X23919526Y-70501499D01*
X23973831Y-70396241D01*
X24000289Y-70221480D01*
X24004377Y-70082399D01*
X24009778Y-69905161D01*
X24025683Y-69823215D01*
X24053268Y-69830684D01*
G37*
X24053268Y-69830684D02*
X24054400Y-69832400D01*
X24084511Y-69927543D01*
X24102379Y-70077420D01*
X24104422Y-70143679D01*
X24123217Y-70324430D01*
X24173851Y-70434957D01*
X24181400Y-70442000D01*
X24250498Y-70521976D01*
X24225575Y-70571644D01*
X24104751Y-70593129D01*
X24046526Y-70594400D01*
X23916785Y-70591238D01*
X23871891Y-70573596D01*
X23895116Y-70529237D01*
X23919526Y-70501499D01*
X23973831Y-70396241D01*
X24000289Y-70221480D01*
X24004377Y-70082399D01*
X24009778Y-69905161D01*
X24025683Y-69823215D01*
X24053268Y-69830684D01*
G36*
X24491499Y-69540300D02*
G01*
X24543340Y-69686634D01*
X24575898Y-69747130D01*
X24599432Y-69733158D01*
X24617518Y-69680000D01*
X24643130Y-69598479D01*
X24654143Y-69608036D01*
X24659097Y-69705400D01*
X24648794Y-69815235D01*
X24617586Y-69974872D01*
X24572840Y-70157621D01*
X24521925Y-70336795D01*
X24472210Y-70485705D01*
X24431063Y-70577663D01*
X24413648Y-70594400D01*
X24386304Y-70549075D01*
X24335420Y-70425511D01*
X24268147Y-70242321D01*
X24191635Y-70018118D01*
X24187927Y-70006870D01*
X24107574Y-69777604D01*
X24030995Y-69585454D01*
X23966764Y-69450313D01*
X23923451Y-69392071D01*
X23922878Y-69391835D01*
X23851161Y-69346828D01*
X23871281Y-69308364D01*
X23973479Y-69282108D01*
X24126517Y-69273600D01*
X24401834Y-69273600D01*
X24491499Y-69540300D01*
G37*
X24491499Y-69540300D02*
X24543340Y-69686634D01*
X24575898Y-69747130D01*
X24599432Y-69733158D01*
X24617518Y-69680000D01*
X24643130Y-69598479D01*
X24654143Y-69608036D01*
X24659097Y-69705400D01*
X24648794Y-69815235D01*
X24617586Y-69974872D01*
X24572840Y-70157621D01*
X24521925Y-70336795D01*
X24472210Y-70485705D01*
X24431063Y-70577663D01*
X24413648Y-70594400D01*
X24386304Y-70549075D01*
X24335420Y-70425511D01*
X24268147Y-70242321D01*
X24191635Y-70018118D01*
X24187927Y-70006870D01*
X24107574Y-69777604D01*
X24030995Y-69585454D01*
X23966764Y-69450313D01*
X23923451Y-69392071D01*
X23922878Y-69391835D01*
X23851161Y-69346828D01*
X23871281Y-69308364D01*
X23973479Y-69282108D01*
X24126517Y-69273600D01*
X24401834Y-69273600D01*
X24491499Y-69540300D01*
G36*
X25171202Y-69285071D02*
G01*
X25263711Y-69317114D01*
X25265330Y-69366176D01*
X25222800Y-69400600D01*
X25201142Y-69462318D01*
X25184273Y-69604410D01*
X25174107Y-69805689D01*
X25172000Y-69962398D01*
X25176638Y-70205598D01*
X25189667Y-70382396D01*
X25209758Y-70478925D01*
X25222800Y-70492800D01*
X25272123Y-70531457D01*
X25273600Y-70543600D01*
X25226945Y-70570146D01*
X25103356Y-70588320D01*
X24943400Y-70594400D01*
X24770850Y-70587222D01*
X24652714Y-70568208D01*
X24613200Y-70543600D01*
X24651857Y-70494276D01*
X24664000Y-70492800D01*
X24686299Y-70443993D01*
X24702797Y-70305320D01*
X24712527Y-70088396D01*
X24714800Y-69883200D01*
X24714800Y-69273600D01*
X24994200Y-69273600D01*
X25171202Y-69285071D01*
G37*
X25171202Y-69285071D02*
X25263711Y-69317114D01*
X25265330Y-69366176D01*
X25222800Y-69400600D01*
X25201142Y-69462318D01*
X25184273Y-69604410D01*
X25174107Y-69805689D01*
X25172000Y-69962398D01*
X25176638Y-70205598D01*
X25189667Y-70382396D01*
X25209758Y-70478925D01*
X25222800Y-70492800D01*
X25272123Y-70531457D01*
X25273600Y-70543600D01*
X25226945Y-70570146D01*
X25103356Y-70588320D01*
X24943400Y-70594400D01*
X24770850Y-70587222D01*
X24652714Y-70568208D01*
X24613200Y-70543600D01*
X24651857Y-70494276D01*
X24664000Y-70492800D01*
X24686299Y-70443993D01*
X24702797Y-70305320D01*
X24712527Y-70088396D01*
X24714800Y-69883200D01*
X24714800Y-69273600D01*
X24994200Y-69273600D01*
X25171202Y-69285071D01*
G36*
X25934000Y-70594400D02*
G01*
X25451400Y-70594400D01*
X25451400Y-69273600D01*
X25934000Y-69273600D01*
X25934000Y-70594400D01*
G37*
X25934000Y-70594400D02*
X25451400Y-70594400D01*
X25451400Y-69273600D01*
X25934000Y-69273600D01*
X25934000Y-70594400D01*
G36*
X26438036Y-70297929D02*
G01*
X26442000Y-70391200D01*
X26442000Y-70594400D01*
X26213400Y-70594400D01*
X26077059Y-70584988D01*
X25995282Y-70561177D01*
X25984800Y-70547023D01*
X26026767Y-70495595D01*
X26087753Y-70466970D01*
X26191931Y-70400992D01*
X26271395Y-70311147D01*
X26355060Y-70209556D01*
X26410261Y-70204988D01*
X26438036Y-70297929D01*
G37*
X26438036Y-70297929D02*
X26442000Y-70391200D01*
X26442000Y-70594400D01*
X26213400Y-70594400D01*
X26077059Y-70584988D01*
X25995282Y-70561177D01*
X25984800Y-70547023D01*
X26026767Y-70495595D01*
X26087753Y-70466970D01*
X26191931Y-70400992D01*
X26271395Y-70311147D01*
X26355060Y-70209556D01*
X26410261Y-70204988D01*
X26438036Y-70297929D01*
G36*
X27102400Y-69854801D02*
G01*
X27106658Y-70099780D01*
X27118383Y-70296329D01*
X27135999Y-70425455D01*
X27153200Y-70467400D01*
X27206650Y-70524464D01*
X27165030Y-70566400D01*
X27034147Y-70590149D01*
X26911900Y-70594400D01*
X26619800Y-70594400D01*
X26619800Y-69273600D01*
X27102400Y-69273600D01*
X27102400Y-69854801D01*
G37*
X27102400Y-69854801D02*
X27106658Y-70099780D01*
X27118383Y-70296329D01*
X27135999Y-70425455D01*
X27153200Y-70467400D01*
X27206650Y-70524464D01*
X27165030Y-70566400D01*
X27034147Y-70590149D01*
X26911900Y-70594400D01*
X26619800Y-70594400D01*
X26619800Y-69273600D01*
X27102400Y-69273600D01*
X27102400Y-69854801D01*
G36*
X27496423Y-69311466D02*
G01*
X27626338Y-69409304D01*
X27700372Y-69543466D01*
X27707731Y-69690310D01*
X27637622Y-69826189D01*
X27592350Y-69867108D01*
X27472701Y-69957360D01*
X27579650Y-70010338D01*
X27672620Y-70110427D01*
X27702313Y-70224507D01*
X27728031Y-70336796D01*
X27779403Y-70361276D01*
X27791213Y-70357614D01*
X27854477Y-70355236D01*
X27853785Y-70407053D01*
X27792018Y-70490740D01*
X27771499Y-70510326D01*
X27627705Y-70584581D01*
X27474038Y-70580178D01*
X27347834Y-70499577D01*
X27333880Y-70481496D01*
X27275257Y-70346113D01*
X27254800Y-70212256D01*
X27237962Y-70083293D01*
X27199573Y-70000693D01*
X27171820Y-69939374D01*
X27199573Y-69911335D01*
X27234311Y-69841614D01*
X27251580Y-69713763D01*
X27251017Y-69569374D01*
X27232264Y-69450036D01*
X27204000Y-69400600D01*
X27152205Y-69340861D01*
X27190441Y-69294413D01*
X27307144Y-69273765D01*
X27321421Y-69273600D01*
X27496423Y-69311466D01*
G37*
X27496423Y-69311466D02*
X27626338Y-69409304D01*
X27700372Y-69543466D01*
X27707731Y-69690310D01*
X27637622Y-69826189D01*
X27592350Y-69867108D01*
X27472701Y-69957360D01*
X27579650Y-70010338D01*
X27672620Y-70110427D01*
X27702313Y-70224507D01*
X27728031Y-70336796D01*
X27779403Y-70361276D01*
X27791213Y-70357614D01*
X27854477Y-70355236D01*
X27853785Y-70407053D01*
X27792018Y-70490740D01*
X27771499Y-70510326D01*
X27627705Y-70584581D01*
X27474038Y-70580178D01*
X27347834Y-70499577D01*
X27333880Y-70481496D01*
X27275257Y-70346113D01*
X27254800Y-70212256D01*
X27237962Y-70083293D01*
X27199573Y-70000693D01*
X27171820Y-69939374D01*
X27199573Y-69911335D01*
X27234311Y-69841614D01*
X27251580Y-69713763D01*
X27251017Y-69569374D01*
X27232264Y-69450036D01*
X27204000Y-69400600D01*
X27152205Y-69340861D01*
X27190441Y-69294413D01*
X27307144Y-69273765D01*
X27321421Y-69273600D01*
X27496423Y-69311466D01*
G36*
X31014000Y-69854801D02*
G01*
X31018258Y-70099780D01*
X31029983Y-70296329D01*
X31047599Y-70425455D01*
X31064800Y-70467400D01*
X31118250Y-70524464D01*
X31076630Y-70566400D01*
X30945747Y-70590149D01*
X30823500Y-70594400D01*
X30531400Y-70594400D01*
X30531400Y-69273600D01*
X31014000Y-69273600D01*
X31014000Y-69854801D01*
G37*
X31014000Y-69854801D02*
X31018258Y-70099780D01*
X31029983Y-70296329D01*
X31047599Y-70425455D01*
X31064800Y-70467400D01*
X31118250Y-70524464D01*
X31076630Y-70566400D01*
X30945747Y-70590149D01*
X30823500Y-70594400D01*
X30531400Y-70594400D01*
X30531400Y-69273600D01*
X31014000Y-69273600D01*
X31014000Y-69854801D01*
G36*
X31408023Y-69311466D02*
G01*
X31537938Y-69409304D01*
X31611972Y-69543466D01*
X31619331Y-69690310D01*
X31549222Y-69826189D01*
X31503950Y-69867108D01*
X31384301Y-69957360D01*
X31491250Y-70010338D01*
X31584220Y-70110427D01*
X31613913Y-70224507D01*
X31639631Y-70336796D01*
X31691003Y-70361276D01*
X31702813Y-70357614D01*
X31766077Y-70355236D01*
X31765385Y-70407053D01*
X31703618Y-70490740D01*
X31683099Y-70510326D01*
X31539305Y-70584581D01*
X31385638Y-70580178D01*
X31259434Y-70499577D01*
X31245480Y-70481496D01*
X31186857Y-70346113D01*
X31166400Y-70212256D01*
X31149562Y-70083293D01*
X31111173Y-70000693D01*
X31083420Y-69939374D01*
X31111173Y-69911335D01*
X31145911Y-69841614D01*
X31163180Y-69713763D01*
X31162617Y-69569374D01*
X31143864Y-69450036D01*
X31115600Y-69400600D01*
X31063805Y-69340861D01*
X31102041Y-69294413D01*
X31218744Y-69273765D01*
X31233021Y-69273600D01*
X31408023Y-69311466D01*
G37*
X31408023Y-69311466D02*
X31537938Y-69409304D01*
X31611972Y-69543466D01*
X31619331Y-69690310D01*
X31549222Y-69826189D01*
X31503950Y-69867108D01*
X31384301Y-69957360D01*
X31491250Y-70010338D01*
X31584220Y-70110427D01*
X31613913Y-70224507D01*
X31639631Y-70336796D01*
X31691003Y-70361276D01*
X31702813Y-70357614D01*
X31766077Y-70355236D01*
X31765385Y-70407053D01*
X31703618Y-70490740D01*
X31683099Y-70510326D01*
X31539305Y-70584581D01*
X31385638Y-70580178D01*
X31259434Y-70499577D01*
X31245480Y-70481496D01*
X31186857Y-70346113D01*
X31166400Y-70212256D01*
X31149562Y-70083293D01*
X31111173Y-70000693D01*
X31083420Y-69939374D01*
X31111173Y-69911335D01*
X31145911Y-69841614D01*
X31163180Y-69713763D01*
X31162617Y-69569374D01*
X31143864Y-69450036D01*
X31115600Y-69400600D01*
X31063805Y-69340861D01*
X31102041Y-69294413D01*
X31218744Y-69273765D01*
X31233021Y-69273600D01*
X31408023Y-69311466D01*
G36*
X32254851Y-69277458D02*
G01*
X32345271Y-69292554D01*
X32372256Y-69324167D01*
X32366161Y-69352582D01*
X32369048Y-69438205D01*
X32406783Y-69582488D01*
X32462326Y-69732051D01*
X32536134Y-69948414D01*
X32581095Y-70162373D01*
X32588800Y-70262669D01*
X32598826Y-70399530D01*
X32624213Y-70481945D01*
X32639600Y-70492800D01*
X32688923Y-70531457D01*
X32690400Y-70543600D01*
X32643745Y-70570146D01*
X32520156Y-70588320D01*
X32360200Y-70594400D01*
X32187650Y-70587222D01*
X32069514Y-70568208D01*
X32030000Y-70543600D01*
X32069445Y-70495297D01*
X32087090Y-70492800D01*
X32120776Y-70445130D01*
X32124782Y-70301504D01*
X32118977Y-70226100D01*
X32096175Y-70078497D01*
X32050508Y-69916707D01*
X31974237Y-69719485D01*
X31859627Y-69465583D01*
X31785993Y-69311700D01*
X31822105Y-69291988D01*
X31934559Y-69278223D01*
X32082001Y-69273600D01*
X32254851Y-69277458D01*
G37*
X32254851Y-69277458D02*
X32345271Y-69292554D01*
X32372256Y-69324167D01*
X32366161Y-69352582D01*
X32369048Y-69438205D01*
X32406783Y-69582488D01*
X32462326Y-69732051D01*
X32536134Y-69948414D01*
X32581095Y-70162373D01*
X32588800Y-70262669D01*
X32598826Y-70399530D01*
X32624213Y-70481945D01*
X32639600Y-70492800D01*
X32688923Y-70531457D01*
X32690400Y-70543600D01*
X32643745Y-70570146D01*
X32520156Y-70588320D01*
X32360200Y-70594400D01*
X32187650Y-70587222D01*
X32069514Y-70568208D01*
X32030000Y-70543600D01*
X32069445Y-70495297D01*
X32087090Y-70492800D01*
X32120776Y-70445130D01*
X32124782Y-70301504D01*
X32118977Y-70226100D01*
X32096175Y-70078497D01*
X32050508Y-69916707D01*
X31974237Y-69719485D01*
X31859627Y-69465583D01*
X31785993Y-69311700D01*
X31822105Y-69291988D01*
X31934559Y-69278223D01*
X32082001Y-69273600D01*
X32254851Y-69277458D01*
G36*
X26232325Y-69776050D02*
G01*
X26238800Y-69934000D01*
X26231111Y-70101408D01*
X26203673Y-70172988D01*
X26149926Y-70153651D01*
X26071328Y-70059403D01*
X26011732Y-69964941D01*
X26015104Y-69895089D01*
X26071328Y-69808596D01*
X26155168Y-69709724D01*
X26206647Y-69697238D01*
X26232325Y-69776050D01*
G37*
X26232325Y-69776050D02*
X26238800Y-69934000D01*
X26231111Y-70101408D01*
X26203673Y-70172988D01*
X26149926Y-70153651D01*
X26071328Y-70059403D01*
X26011732Y-69964941D01*
X26015104Y-69895089D01*
X26071328Y-69808596D01*
X26155168Y-69709724D01*
X26206647Y-69697238D01*
X26232325Y-69776050D01*
G36*
X32882178Y-69288627D02*
G01*
X32944044Y-69328203D01*
X32916980Y-69384070D01*
X32892798Y-69401095D01*
X32841497Y-69462014D01*
X32767587Y-69582262D01*
X32722824Y-69665905D01*
X32646619Y-69794223D01*
X32589163Y-69848772D01*
X32568876Y-69841261D01*
X32561872Y-69754768D01*
X32586450Y-69684389D01*
X32628818Y-69564314D01*
X32636529Y-69451353D01*
X32609305Y-69382292D01*
X32588800Y-69375200D01*
X32539476Y-69336542D01*
X32538000Y-69324400D01*
X32583067Y-69292588D01*
X32695650Y-69274895D01*
X32741200Y-69273600D01*
X32882178Y-69288627D01*
G37*
X32882178Y-69288627D02*
X32944044Y-69328203D01*
X32916980Y-69384070D01*
X32892798Y-69401095D01*
X32841497Y-69462014D01*
X32767587Y-69582262D01*
X32722824Y-69665905D01*
X32646619Y-69794223D01*
X32589163Y-69848772D01*
X32568876Y-69841261D01*
X32561872Y-69754768D01*
X32586450Y-69684389D01*
X32628818Y-69564314D01*
X32636529Y-69451353D01*
X32609305Y-69382292D01*
X32588800Y-69375200D01*
X32539476Y-69336542D01*
X32538000Y-69324400D01*
X32583067Y-69292588D01*
X32695650Y-69274895D01*
X32741200Y-69273600D01*
X32882178Y-69288627D01*
G36*
X28755853Y-69286273D02*
G01*
X28986906Y-69289766D01*
X28971753Y-69519012D01*
X28949764Y-69661391D01*
X28911860Y-69753673D01*
X28893100Y-69769162D01*
X28839343Y-69747272D01*
X28829600Y-69705725D01*
X28795673Y-69618898D01*
X28710959Y-69504843D01*
X28677200Y-69468984D01*
X28583524Y-69371715D01*
X28529795Y-69308964D01*
X28524800Y-69299682D01*
X28570263Y-69290331D01*
X28685411Y-69286016D01*
X28755853Y-69286273D01*
G37*
X28755853Y-69286273D02*
X28986906Y-69289766D01*
X28971753Y-69519012D01*
X28949764Y-69661391D01*
X28911860Y-69753673D01*
X28893100Y-69769162D01*
X28839343Y-69747272D01*
X28829600Y-69705725D01*
X28795673Y-69618898D01*
X28710959Y-69504843D01*
X28677200Y-69468984D01*
X28583524Y-69371715D01*
X28529795Y-69308964D01*
X28524800Y-69299682D01*
X28570263Y-69290331D01*
X28685411Y-69286016D01*
X28755853Y-69286273D01*
G36*
X26391200Y-69476800D02*
G01*
X26377839Y-69613677D01*
X26345140Y-69676244D01*
X26304172Y-69654757D01*
X26275040Y-69579011D01*
X26210620Y-69486455D01*
X26116715Y-69427868D01*
X26007998Y-69368091D01*
X25996271Y-69316083D01*
X26076946Y-69281773D01*
X26188000Y-69273600D01*
X26391200Y-69273600D01*
X26391200Y-69476800D01*
G37*
X26391200Y-69476800D02*
X26377839Y-69613677D01*
X26345140Y-69676244D01*
X26304172Y-69654757D01*
X26275040Y-69579011D01*
X26210620Y-69486455D01*
X26116715Y-69427868D01*
X26007998Y-69368091D01*
X25996271Y-69316083D01*
X26076946Y-69281773D01*
X26188000Y-69273600D01*
X26391200Y-69273600D01*
X26391200Y-69476800D01*
G36*
X26256411Y-66603559D02*
G01*
X26297359Y-66631757D01*
X26255104Y-66667068D01*
X26120625Y-66703192D01*
X25971376Y-66747778D01*
X25853925Y-66808830D01*
X25795285Y-66859535D01*
X25814409Y-66879898D01*
X25917145Y-66884384D01*
X26087940Y-66900198D01*
X26202978Y-66938748D01*
X26238800Y-66984994D01*
X26195246Y-67022067D01*
X26086847Y-67068255D01*
X26048300Y-67080878D01*
X25894226Y-67150705D01*
X25723873Y-67259901D01*
X25654600Y-67314873D01*
X25451400Y-67490308D01*
X25843870Y-67429644D01*
X25712239Y-67628553D01*
X25622476Y-67790026D01*
X25558100Y-67951850D01*
X25547160Y-67994698D01*
X25513713Y-68161934D01*
X25743923Y-68006567D01*
X25894742Y-67918381D01*
X26029741Y-67862084D01*
X26087417Y-67851200D01*
X26162510Y-67863159D01*
X26182261Y-67918838D01*
X26167816Y-68015619D01*
X26150635Y-68121297D01*
X26165334Y-68142939D01*
X26213519Y-68101452D01*
X26276812Y-68009273D01*
X26350172Y-67862353D01*
X26386620Y-67773876D01*
X26463862Y-67597894D01*
X26525803Y-67520954D01*
X26574941Y-67542070D01*
X26613771Y-67660255D01*
X26618137Y-67682402D01*
X26647189Y-67789737D01*
X26680995Y-67812296D01*
X26722997Y-67745845D01*
X26776636Y-67586148D01*
X26817632Y-67436983D01*
X26860593Y-67288267D01*
X26891818Y-67227047D01*
X26919483Y-67241190D01*
X26932140Y-67267000D01*
X26966683Y-67428231D01*
X26969203Y-67640598D01*
X26942455Y-67859774D01*
X26889195Y-68041433D01*
X26883209Y-68054400D01*
X26821120Y-68160501D01*
X26732918Y-68284483D01*
X26633550Y-68409215D01*
X26537964Y-68517568D01*
X26461107Y-68592412D01*
X26417928Y-68616619D01*
X26417748Y-68587800D01*
X26446584Y-68470997D01*
X26473681Y-68313513D01*
X26477776Y-68283000D01*
X26503541Y-68079800D01*
X26333070Y-68357555D01*
X26218784Y-68513097D01*
X26076286Y-68664484D01*
X25927065Y-68793533D01*
X25792608Y-68882060D01*
X25694402Y-68911885D01*
X25681107Y-68909242D01*
X25679892Y-68862373D01*
X25727686Y-68759425D01*
X25783578Y-68669055D01*
X25885985Y-68500757D01*
X25931392Y-68390320D01*
X25920275Y-68345095D01*
X25853112Y-68372432D01*
X25768900Y-68442492D01*
X25600264Y-68580569D01*
X25417360Y-68700345D01*
X25249634Y-68784671D01*
X25126905Y-68816400D01*
X25031332Y-68838499D01*
X24887425Y-68894873D01*
X24799609Y-68936490D01*
X24661762Y-69003722D01*
X24591262Y-69025632D01*
X24565655Y-69004415D01*
X24562400Y-68959678D01*
X24596808Y-68878471D01*
X24687584Y-68753965D01*
X24816051Y-68611351D01*
X24833875Y-68593461D01*
X25013700Y-68391638D01*
X25118656Y-68220006D01*
X25138675Y-68157523D01*
X25169446Y-67949418D01*
X25158319Y-67833299D01*
X25102915Y-67807556D01*
X25000853Y-67870575D01*
X24883342Y-67984527D01*
X24709688Y-68168654D01*
X24744405Y-68022627D01*
X24818287Y-67779588D01*
X24919216Y-67602946D01*
X25071497Y-67457537D01*
X25192972Y-67373624D01*
X25336968Y-67277101D01*
X25439109Y-67200216D01*
X25476800Y-67160377D01*
X25434814Y-67143970D01*
X25330630Y-67156215D01*
X25196907Y-67189371D01*
X25066306Y-67235695D01*
X24986773Y-67276537D01*
X24896488Y-67320484D01*
X24870984Y-67297079D01*
X24908500Y-67215745D01*
X25007274Y-67085907D01*
X25026567Y-67063625D01*
X25306276Y-66815044D01*
X25629682Y-66658033D01*
X25961421Y-66593632D01*
X26141389Y-66588757D01*
X26256411Y-66603559D01*
G37*
X26256411Y-66603559D02*
X26297359Y-66631757D01*
X26255104Y-66667068D01*
X26120625Y-66703192D01*
X25971376Y-66747778D01*
X25853925Y-66808830D01*
X25795285Y-66859535D01*
X25814409Y-66879898D01*
X25917145Y-66884384D01*
X26087940Y-66900198D01*
X26202978Y-66938748D01*
X26238800Y-66984994D01*
X26195246Y-67022067D01*
X26086847Y-67068255D01*
X26048300Y-67080878D01*
X25894226Y-67150705D01*
X25723873Y-67259901D01*
X25654600Y-67314873D01*
X25451400Y-67490308D01*
X25843870Y-67429644D01*
X25712239Y-67628553D01*
X25622476Y-67790026D01*
X25558100Y-67951850D01*
X25547160Y-67994698D01*
X25513713Y-68161934D01*
X25743923Y-68006567D01*
X25894742Y-67918381D01*
X26029741Y-67862084D01*
X26087417Y-67851200D01*
X26162510Y-67863159D01*
X26182261Y-67918838D01*
X26167816Y-68015619D01*
X26150635Y-68121297D01*
X26165334Y-68142939D01*
X26213519Y-68101452D01*
X26276812Y-68009273D01*
X26350172Y-67862353D01*
X26386620Y-67773876D01*
X26463862Y-67597894D01*
X26525803Y-67520954D01*
X26574941Y-67542070D01*
X26613771Y-67660255D01*
X26618137Y-67682402D01*
X26647189Y-67789737D01*
X26680995Y-67812296D01*
X26722997Y-67745845D01*
X26776636Y-67586148D01*
X26817632Y-67436983D01*
X26860593Y-67288267D01*
X26891818Y-67227047D01*
X26919483Y-67241190D01*
X26932140Y-67267000D01*
X26966683Y-67428231D01*
X26969203Y-67640598D01*
X26942455Y-67859774D01*
X26889195Y-68041433D01*
X26883209Y-68054400D01*
X26821120Y-68160501D01*
X26732918Y-68284483D01*
X26633550Y-68409215D01*
X26537964Y-68517568D01*
X26461107Y-68592412D01*
X26417928Y-68616619D01*
X26417748Y-68587800D01*
X26446584Y-68470997D01*
X26473681Y-68313513D01*
X26477776Y-68283000D01*
X26503541Y-68079800D01*
X26333070Y-68357555D01*
X26218784Y-68513097D01*
X26076286Y-68664484D01*
X25927065Y-68793533D01*
X25792608Y-68882060D01*
X25694402Y-68911885D01*
X25681107Y-68909242D01*
X25679892Y-68862373D01*
X25727686Y-68759425D01*
X25783578Y-68669055D01*
X25885985Y-68500757D01*
X25931392Y-68390320D01*
X25920275Y-68345095D01*
X25853112Y-68372432D01*
X25768900Y-68442492D01*
X25600264Y-68580569D01*
X25417360Y-68700345D01*
X25249634Y-68784671D01*
X25126905Y-68816400D01*
X25031332Y-68838499D01*
X24887425Y-68894873D01*
X24799609Y-68936490D01*
X24661762Y-69003722D01*
X24591262Y-69025632D01*
X24565655Y-69004415D01*
X24562400Y-68959678D01*
X24596808Y-68878471D01*
X24687584Y-68753965D01*
X24816051Y-68611351D01*
X24833875Y-68593461D01*
X25013700Y-68391638D01*
X25118656Y-68220006D01*
X25138675Y-68157523D01*
X25169446Y-67949418D01*
X25158319Y-67833299D01*
X25102915Y-67807556D01*
X25000853Y-67870575D01*
X24883342Y-67984527D01*
X24709688Y-68168654D01*
X24744405Y-68022627D01*
X24818287Y-67779588D01*
X24919216Y-67602946D01*
X25071497Y-67457537D01*
X25192972Y-67373624D01*
X25336968Y-67277101D01*
X25439109Y-67200216D01*
X25476800Y-67160377D01*
X25434814Y-67143970D01*
X25330630Y-67156215D01*
X25196907Y-67189371D01*
X25066306Y-67235695D01*
X24986773Y-67276537D01*
X24896488Y-67320484D01*
X24870984Y-67297079D01*
X24908500Y-67215745D01*
X25007274Y-67085907D01*
X25026567Y-67063625D01*
X25306276Y-66815044D01*
X25629682Y-66658033D01*
X25961421Y-66593632D01*
X26141389Y-66588757D01*
X26256411Y-66603559D01*
G36*
X31999950Y-61410339D02*
G01*
X32122468Y-61466076D01*
X32132353Y-61476707D01*
X32172169Y-61591096D01*
X32174627Y-61775053D01*
X32142824Y-62004948D01*
X32079863Y-62257153D01*
X32000755Y-62479725D01*
X31840266Y-62794950D01*
X31604219Y-63153849D01*
X31302402Y-63544970D01*
X30944604Y-63956866D01*
X30540614Y-64378088D01*
X30100220Y-64797187D01*
X29773003Y-65085311D01*
X29471806Y-65341890D01*
X29433909Y-66244308D01*
X29396011Y-67146726D01*
X29150905Y-67409477D01*
X28998818Y-67567939D01*
X28847555Y-67718183D01*
X28743832Y-67815026D01*
X28640295Y-67900684D01*
X28583393Y-67922646D01*
X28546381Y-67887492D01*
X28534964Y-67866412D01*
X28506734Y-67785281D01*
X28461712Y-67625895D01*
X28405447Y-67409114D01*
X28343486Y-67155797D01*
X28324421Y-67074958D01*
X28160779Y-66374917D01*
X27984041Y-66484147D01*
X27807304Y-66593377D01*
X26988622Y-65774695D01*
X27097852Y-65597958D01*
X27207082Y-65421220D01*
X26507041Y-65257578D01*
X26183181Y-65182025D01*
X25948672Y-65123605D01*
X25794475Y-65074111D01*
X25711552Y-65025337D01*
X25690864Y-64969076D01*
X25723373Y-64897124D01*
X25800039Y-64801272D01*
X25890561Y-64697884D01*
X25967581Y-64611400D01*
X28743079Y-64611400D01*
X28829600Y-64752400D01*
X28977221Y-64841382D01*
X29135206Y-64831434D01*
X29270825Y-64743544D01*
X29369992Y-64594429D01*
X29373320Y-64436199D01*
X29286800Y-64295200D01*
X29139178Y-64206217D01*
X28981193Y-64216165D01*
X28845574Y-64304055D01*
X28746407Y-64453170D01*
X28743079Y-64611400D01*
X25967581Y-64611400D01*
X26045588Y-64523808D01*
X26178222Y-64393607D01*
X26307409Y-64300208D01*
X26452091Y-64236541D01*
X26631212Y-64195533D01*
X26863714Y-64170114D01*
X27168542Y-64153211D01*
X27371449Y-64145076D01*
X28238556Y-64111972D01*
X28495805Y-63809886D01*
X28525504Y-63776522D01*
X29481401Y-63776522D01*
X29509624Y-63927420D01*
X29596129Y-64045368D01*
X29607478Y-64053400D01*
X29739884Y-64086897D01*
X29895415Y-64055130D01*
X30030437Y-63969425D01*
X30059560Y-63936056D01*
X30122941Y-63826161D01*
X30118519Y-63728493D01*
X30097080Y-63674957D01*
X29986336Y-63526435D01*
X29843143Y-63465338D01*
X29688872Y-63492912D01*
X29544888Y-63610407D01*
X29521605Y-63641355D01*
X29481401Y-63776522D01*
X28525504Y-63776522D01*
X28916632Y-63337133D01*
X29123239Y-63124319D01*
X30219043Y-63124319D01*
X30318171Y-63261626D01*
X30335050Y-63275512D01*
X30482523Y-63363804D01*
X30607579Y-63363838D01*
X30738762Y-63275252D01*
X30744025Y-63270344D01*
X30844702Y-63120758D01*
X30844903Y-62957575D01*
X30782519Y-62833303D01*
X30663191Y-62740252D01*
X30511572Y-62728959D01*
X30355889Y-62799572D01*
X30318774Y-62830855D01*
X30219093Y-62976586D01*
X30219043Y-63124319D01*
X29123239Y-63124319D01*
X29346029Y-62894836D01*
X29770677Y-62495161D01*
X30177253Y-62150272D01*
X30552435Y-61872333D01*
X30764059Y-61738609D01*
X31030465Y-61604254D01*
X31306421Y-61500582D01*
X31572763Y-61431259D01*
X31810327Y-61399956D01*
X31999950Y-61410339D01*
G37*
X31999950Y-61410339D02*
X32122468Y-61466076D01*
X32132353Y-61476707D01*
X32172169Y-61591096D01*
X32174627Y-61775053D01*
X32142824Y-62004948D01*
X32079863Y-62257153D01*
X32000755Y-62479725D01*
X31840266Y-62794950D01*
X31604219Y-63153849D01*
X31302402Y-63544970D01*
X30944604Y-63956866D01*
X30540614Y-64378088D01*
X30100220Y-64797187D01*
X29773003Y-65085311D01*
X29471806Y-65341890D01*
X29433909Y-66244308D01*
X29396011Y-67146726D01*
X29150905Y-67409477D01*
X28998818Y-67567939D01*
X28847555Y-67718183D01*
X28743832Y-67815026D01*
X28640295Y-67900684D01*
X28583393Y-67922646D01*
X28546381Y-67887492D01*
X28534964Y-67866412D01*
X28506734Y-67785281D01*
X28461712Y-67625895D01*
X28405447Y-67409114D01*
X28343486Y-67155797D01*
X28324421Y-67074958D01*
X28160779Y-66374917D01*
X27984041Y-66484147D01*
X27807304Y-66593377D01*
X26988622Y-65774695D01*
X27097852Y-65597958D01*
X27207082Y-65421220D01*
X26507041Y-65257578D01*
X26183181Y-65182025D01*
X25948672Y-65123605D01*
X25794475Y-65074111D01*
X25711552Y-65025337D01*
X25690864Y-64969076D01*
X25723373Y-64897124D01*
X25800039Y-64801272D01*
X25890561Y-64697884D01*
X25967581Y-64611400D01*
X28743079Y-64611400D01*
X28829600Y-64752400D01*
X28977221Y-64841382D01*
X29135206Y-64831434D01*
X29270825Y-64743544D01*
X29369992Y-64594429D01*
X29373320Y-64436199D01*
X29286800Y-64295200D01*
X29139178Y-64206217D01*
X28981193Y-64216165D01*
X28845574Y-64304055D01*
X28746407Y-64453170D01*
X28743079Y-64611400D01*
X25967581Y-64611400D01*
X26045588Y-64523808D01*
X26178222Y-64393607D01*
X26307409Y-64300208D01*
X26452091Y-64236541D01*
X26631212Y-64195533D01*
X26863714Y-64170114D01*
X27168542Y-64153211D01*
X27371449Y-64145076D01*
X28238556Y-64111972D01*
X28495805Y-63809886D01*
X28525504Y-63776522D01*
X29481401Y-63776522D01*
X29509624Y-63927420D01*
X29596129Y-64045368D01*
X29607478Y-64053400D01*
X29739884Y-64086897D01*
X29895415Y-64055130D01*
X30030437Y-63969425D01*
X30059560Y-63936056D01*
X30122941Y-63826161D01*
X30118519Y-63728493D01*
X30097080Y-63674957D01*
X29986336Y-63526435D01*
X29843143Y-63465338D01*
X29688872Y-63492912D01*
X29544888Y-63610407D01*
X29521605Y-63641355D01*
X29481401Y-63776522D01*
X28525504Y-63776522D01*
X28916632Y-63337133D01*
X29123239Y-63124319D01*
X30219043Y-63124319D01*
X30318171Y-63261626D01*
X30335050Y-63275512D01*
X30482523Y-63363804D01*
X30607579Y-63363838D01*
X30738762Y-63275252D01*
X30744025Y-63270344D01*
X30844702Y-63120758D01*
X30844903Y-62957575D01*
X30782519Y-62833303D01*
X30663191Y-62740252D01*
X30511572Y-62728959D01*
X30355889Y-62799572D01*
X30318774Y-62830855D01*
X30219093Y-62976586D01*
X30219043Y-63124319D01*
X29123239Y-63124319D01*
X29346029Y-62894836D01*
X29770677Y-62495161D01*
X30177253Y-62150272D01*
X30552435Y-61872333D01*
X30764059Y-61738609D01*
X31030465Y-61604254D01*
X31306421Y-61500582D01*
X31572763Y-61431259D01*
X31810327Y-61399956D01*
X31999950Y-61410339D01*
G36*
X26886125Y-66006864D02*
G01*
X26995084Y-66099802D01*
X27132984Y-66231136D01*
X27281127Y-66381585D01*
X27420815Y-66531869D01*
X27533351Y-66662708D01*
X27600036Y-66754822D01*
X27610400Y-66781651D01*
X27587406Y-66891286D01*
X27530797Y-67025265D01*
X27459130Y-67149084D01*
X27390963Y-67228238D01*
X27363733Y-67240289D01*
X27303647Y-67206761D01*
X27188061Y-67114100D01*
X27032591Y-66975736D01*
X26852848Y-66805101D01*
X26817633Y-66770527D01*
X26639936Y-66589685D01*
X26492288Y-66429063D01*
X26388359Y-66304310D01*
X26341818Y-66231073D01*
X26340590Y-66224427D01*
X26383305Y-66168318D01*
X26488841Y-66097679D01*
X26623614Y-66030045D01*
X26754038Y-65982952D01*
X26824805Y-65971600D01*
X26886125Y-66006864D01*
G37*
X26886125Y-66006864D02*
X26995084Y-66099802D01*
X27132984Y-66231136D01*
X27281127Y-66381585D01*
X27420815Y-66531869D01*
X27533351Y-66662708D01*
X27600036Y-66754822D01*
X27610400Y-66781651D01*
X27587406Y-66891286D01*
X27530797Y-67025265D01*
X27459130Y-67149084D01*
X27390963Y-67228238D01*
X27363733Y-67240289D01*
X27303647Y-67206761D01*
X27188061Y-67114100D01*
X27032591Y-66975736D01*
X26852848Y-66805101D01*
X26817633Y-66770527D01*
X26639936Y-66589685D01*
X26492288Y-66429063D01*
X26388359Y-66304310D01*
X26341818Y-66231073D01*
X26340590Y-66224427D01*
X26383305Y-66168318D01*
X26488841Y-66097679D01*
X26623614Y-66030045D01*
X26754038Y-65982952D01*
X26824805Y-65971600D01*
X26886125Y-66006864D01*
D12*
%TO.C,U1*%
X59491500Y-51421000D02*
X58126500Y-51421000D01*
X59491500Y-50721000D02*
X59491500Y-51421000D01*
X60191500Y-50721000D02*
X59491500Y-50721000D01*
X73711500Y-50721000D02*
X73711500Y-51421000D01*
X73011500Y-50721000D02*
X73711500Y-50721000D01*
X59491500Y-64941000D02*
X59491500Y-64241000D01*
X60191500Y-64941000D02*
X59491500Y-64941000D01*
X73711500Y-64941000D02*
X73711500Y-64241000D01*
X73011500Y-64941000D02*
X73711500Y-64941000D01*
%TO.C,R15*%
X25966359Y-44460000D02*
X26273641Y-44460000D01*
X25966359Y-45220000D02*
X26273641Y-45220000D01*
D13*
%TO.C,J7*%
X114320000Y-57780000D02*
X114320000Y-49780000D01*
X114320000Y-49780000D02*
X112520000Y-49780000D01*
X110030000Y-49780000D02*
X110670000Y-49780000D01*
X114320000Y-57780000D02*
X112520000Y-57780000D01*
X110030000Y-57780000D02*
X110670000Y-57780000D01*
X108720000Y-55980000D02*
X108720000Y-55480000D01*
X108720000Y-52080000D02*
X108720000Y-51580000D01*
D12*
%TO.C,J8*%
X110254756Y-73556682D02*
G75*
G02*
X110400000Y-74240000I-1534756J-683318D01*
G01*
X108036958Y-72704574D02*
G75*
G02*
X109404000Y-72705000I683042J-1535426D01*
G01*
X107184574Y-74923042D02*
G75*
G02*
X107185000Y-73556000I1535426J683042D01*
G01*
X109403042Y-75775426D02*
G75*
G02*
X108036000Y-75775000I-683042J1535426D01*
G01*
X110400253Y-74211195D02*
G75*
G02*
X110255000Y-74924000I-1680253J-28805D01*
G01*
X113620000Y-77080000D02*
X113620000Y-76580000D01*
X112880000Y-77080000D02*
X113620000Y-77080000D01*
X109743000Y-70387000D02*
X109789000Y-70434000D01*
X107445000Y-68090000D02*
X107481000Y-68125000D01*
X109959000Y-70194000D02*
X109994000Y-70229000D01*
X107651000Y-67885000D02*
X107697000Y-67932000D01*
X103459000Y-66560000D02*
X113380000Y-66560000D01*
X103459000Y-76840000D02*
X113380000Y-76840000D01*
X113380000Y-76840000D02*
X113380000Y-66560000D01*
X103459000Y-76840000D02*
X103459000Y-66560000D01*
X106419000Y-76840000D02*
X106419000Y-66560000D01*
X111320000Y-76840000D02*
X111320000Y-66560000D01*
X112820000Y-76840000D02*
X112820000Y-66560000D01*
X110400000Y-69160000D02*
G75*
G03*
X110400000Y-69160000I-1680000J0D01*
G01*
%TO.C,C26*%
X72070500Y-82091920D02*
X72070500Y-82373080D01*
X73090500Y-82091920D02*
X73090500Y-82373080D01*
%TO.C,C25*%
X69349252Y-78513000D02*
X68826748Y-78513000D01*
X69349252Y-79983000D02*
X68826748Y-79983000D01*
%TO.C,U6*%
X71855500Y-79736500D02*
X71855500Y-80036500D01*
X74575500Y-77316500D02*
X73975500Y-77316500D01*
X74575500Y-77616500D02*
X74575500Y-77316500D01*
X74575500Y-80036500D02*
X73975500Y-80036500D01*
X74575500Y-79736500D02*
X74575500Y-80036500D01*
X71855500Y-77316500D02*
X72455500Y-77316500D01*
X71855500Y-77616500D02*
X71855500Y-77316500D01*
%TO.C,C23*%
X80667836Y-66463500D02*
X80452164Y-66463500D01*
X80667836Y-65743500D02*
X80452164Y-65743500D01*
%TO.C,C21*%
X57760000Y-30567836D02*
X57760000Y-30352164D01*
X58480000Y-30567836D02*
X58480000Y-30352164D01*
%TO.C,C20*%
X52959336Y-33563000D02*
X52743664Y-33563000D01*
X52959336Y-32843000D02*
X52743664Y-32843000D01*
%TO.C,C19*%
X56060000Y-30567836D02*
X56060000Y-30352164D01*
X56780000Y-30567836D02*
X56780000Y-30352164D01*
%TO.C,C8*%
X78332164Y-50030000D02*
X78547836Y-50030000D01*
X78332164Y-50750000D02*
X78547836Y-50750000D01*
%TO.C,C7*%
X74312164Y-65480000D02*
X74527836Y-65480000D01*
X74312164Y-66200000D02*
X74527836Y-66200000D01*
%TO.C,C6*%
X56227836Y-54540000D02*
X56012164Y-54540000D01*
X56227836Y-53820000D02*
X56012164Y-53820000D01*
%TO.C,C5*%
X56168336Y-55905000D02*
X55952664Y-55905000D01*
X56168336Y-55185000D02*
X55952664Y-55185000D01*
%TO.C,C4*%
X60260000Y-48047836D02*
X60260000Y-47832164D01*
X60980000Y-48047836D02*
X60980000Y-47832164D01*
%TO.C,C3*%
X58827836Y-67500000D02*
X58612164Y-67500000D01*
X58827836Y-66780000D02*
X58612164Y-66780000D01*
%TO.C,C2*%
X56507836Y-61200000D02*
X56292164Y-61200000D01*
X56507836Y-60480000D02*
X56292164Y-60480000D01*
%TO.C,C1*%
X58431252Y-48505000D02*
X57908748Y-48505000D01*
X58431252Y-49975000D02*
X57908748Y-49975000D01*
%TO.C,C9*%
X56519000Y-64037664D02*
X56519000Y-64253336D01*
X57239000Y-64037664D02*
X57239000Y-64253336D01*
%TO.C,C10*%
X55460000Y-64032164D02*
X55460000Y-64247836D01*
X56180000Y-64032164D02*
X56180000Y-64247836D01*
%TO.C,C11*%
X73330000Y-68524420D02*
X73330000Y-68805580D01*
X72310000Y-68524420D02*
X72310000Y-68805580D01*
%TO.C,C12*%
X77989420Y-52470000D02*
X78270580Y-52470000D01*
X77989420Y-51450000D02*
X78270580Y-51450000D01*
%TO.C,C13*%
X49212164Y-54000000D02*
X49427836Y-54000000D01*
X49212164Y-53280000D02*
X49427836Y-53280000D01*
%TO.C,C14*%
X49627836Y-60500000D02*
X49412164Y-60500000D01*
X49627836Y-59780000D02*
X49412164Y-59780000D01*
%TO.C,C15*%
X96508748Y-80905000D02*
X97031252Y-80905000D01*
X96508748Y-82375000D02*
X97031252Y-82375000D01*
%TO.C,C16*%
X81885000Y-73728748D02*
X81885000Y-74251252D01*
X83355000Y-73728748D02*
X83355000Y-74251252D01*
%TO.C,C17*%
X96728748Y-72465000D02*
X97251252Y-72465000D01*
X96728748Y-70995000D02*
X97251252Y-70995000D01*
%TO.C,C18*%
X83155000Y-83478748D02*
X83155000Y-84001252D01*
X81685000Y-83478748D02*
X81685000Y-84001252D01*
%TO.C,C22*%
X55810000Y-38874420D02*
X55810000Y-39155580D01*
X56830000Y-38874420D02*
X56830000Y-39155580D01*
%TO.C,C27*%
X54182164Y-80690000D02*
X54397836Y-80690000D01*
X54182164Y-79970000D02*
X54397836Y-79970000D01*
%TO.C,C28*%
X49180000Y-86212164D02*
X49180000Y-86427836D01*
X48460000Y-86212164D02*
X48460000Y-86427836D01*
%TO.C,C29*%
X44430836Y-83261500D02*
X44215164Y-83261500D01*
X44430836Y-83981500D02*
X44215164Y-83981500D01*
%TO.C,C30*%
X44430836Y-82902000D02*
X44215164Y-82902000D01*
X44430836Y-82182000D02*
X44215164Y-82182000D01*
%TO.C,C31*%
X44430836Y-79280000D02*
X44215164Y-79280000D01*
X44430836Y-80000000D02*
X44215164Y-80000000D01*
%TO.C,C32*%
X48217500Y-76117336D02*
X48217500Y-75901664D01*
X48937500Y-76117336D02*
X48937500Y-75901664D01*
%TO.C,C33*%
X52180000Y-78757836D02*
X52180000Y-78542164D01*
X52900000Y-78757836D02*
X52900000Y-78542164D01*
%TO.C,C34*%
X51710000Y-72790164D02*
X51710000Y-73005836D01*
X52430000Y-72790164D02*
X52430000Y-73005836D01*
%TO.C,C35*%
X44852000Y-72751836D02*
X44852000Y-72536164D01*
X45572000Y-72751836D02*
X45572000Y-72536164D01*
%TO.C,C36*%
X38060000Y-87132164D02*
X38060000Y-87347836D01*
X38780000Y-87132164D02*
X38780000Y-87347836D01*
%TO.C,C37*%
X40111000Y-87105664D02*
X40111000Y-87321336D01*
X39391000Y-87105664D02*
X39391000Y-87321336D01*
%TO.C,C38*%
X32810336Y-86000000D02*
X32594664Y-86000000D01*
X32810336Y-86720000D02*
X32594664Y-86720000D01*
%TO.C,C39*%
X32782336Y-85196000D02*
X32566664Y-85196000D01*
X32782336Y-84476000D02*
X32566664Y-84476000D01*
%TO.C,C40*%
X32746836Y-83862500D02*
X32531164Y-83862500D01*
X32746836Y-83142500D02*
X32531164Y-83142500D01*
%TO.C,C41*%
X32850500Y-81677336D02*
X32850500Y-81461664D01*
X33570500Y-81677336D02*
X33570500Y-81461664D01*
%TO.C,C42*%
X30332000Y-81641836D02*
X30332000Y-81426164D01*
X29612000Y-81641836D02*
X29612000Y-81426164D01*
%TO.C,C43*%
X26903000Y-80473664D02*
X26903000Y-80689336D01*
X26183000Y-80473664D02*
X26183000Y-80689336D01*
%TO.C,C44*%
X24847664Y-81358000D02*
X25063336Y-81358000D01*
X24847664Y-80638000D02*
X25063336Y-80638000D01*
%TO.C,C45*%
X35390500Y-44562664D02*
X35390500Y-44778336D01*
X36110500Y-44562664D02*
X36110500Y-44778336D01*
%TO.C,C46*%
X34015000Y-44596164D02*
X34015000Y-44811836D01*
X33295000Y-44596164D02*
X33295000Y-44811836D01*
%TO.C,C47*%
X35980000Y-27447836D02*
X35980000Y-27232164D01*
X35260000Y-27447836D02*
X35260000Y-27232164D01*
%TO.C,C48*%
X34780000Y-27312164D02*
X34780000Y-27527836D01*
X34060000Y-27312164D02*
X34060000Y-27527836D01*
%TO.C,D1*%
X49076500Y-65716000D02*
X51361500Y-65716000D01*
X49076500Y-64246000D02*
X49076500Y-65716000D01*
X51361500Y-64246000D02*
X49076500Y-64246000D01*
%TO.C,D2*%
X77485000Y-78955000D02*
X77485000Y-81240000D01*
X78955000Y-78955000D02*
X77485000Y-78955000D01*
X78955000Y-81240000D02*
X78955000Y-78955000D01*
%TO.C,D3*%
X80655000Y-81227500D02*
X80655000Y-78942500D01*
X80655000Y-78942500D02*
X79185000Y-78942500D01*
X79185000Y-78942500D02*
X79185000Y-81227500D01*
%TO.C,J1*%
X113550000Y-36900000D02*
X112420000Y-36900000D01*
X113550000Y-36140000D02*
X113550000Y-36900000D01*
X110842470Y-36835000D02*
X110020000Y-36835000D01*
X111660000Y-36835000D02*
X111457530Y-36835000D01*
X111660000Y-36703471D02*
X111660000Y-36835000D01*
X111660000Y-35433471D02*
X111660000Y-35576529D01*
X111856529Y-35380000D02*
X111713471Y-35380000D01*
X113550000Y-35380000D02*
X112983471Y-35380000D01*
X110020000Y-36835000D02*
X110020000Y-30365000D01*
X113550000Y-35380000D02*
X113550000Y-30365000D01*
X112112470Y-30365000D02*
X111457530Y-30365000D01*
X110842470Y-30365000D02*
X110020000Y-30365000D01*
X113550000Y-30365000D02*
X112727530Y-30365000D01*
%TO.C,J9*%
X71611695Y-20629247D02*
G75*
G02*
X72324500Y-20774500I28805J-1680253D01*
G01*
X73175926Y-21626458D02*
G75*
G02*
X73175500Y-22993500I-1535426J-683042D01*
G01*
X72323542Y-23844926D02*
G75*
G02*
X70956500Y-23844500I-683042J1535426D01*
G01*
X70105074Y-22992542D02*
G75*
G02*
X70105500Y-21625500I1535426J683042D01*
G01*
X70957182Y-20774744D02*
G75*
G02*
X71640500Y-20629500I683318J-1534756D01*
G01*
X74480500Y-17409500D02*
X73980500Y-17409500D01*
X74480500Y-18149500D02*
X74480500Y-17409500D01*
X62707500Y-21286500D02*
X62754500Y-21240500D01*
X60410500Y-23584500D02*
X60445500Y-23548500D01*
X62514500Y-21070500D02*
X62549500Y-21035500D01*
X60205500Y-23378500D02*
X60252500Y-23332500D01*
X67787500Y-21286500D02*
X67834500Y-21240500D01*
X65490500Y-23584500D02*
X65525500Y-23548500D01*
X67594500Y-21070500D02*
X67629500Y-21035500D01*
X65285500Y-23378500D02*
X65332500Y-23332500D01*
X58880500Y-27570500D02*
X58880500Y-17649500D01*
X74240500Y-27570500D02*
X74240500Y-17649500D01*
X74240500Y-17649500D02*
X58880500Y-17649500D01*
X74240500Y-27570500D02*
X58880500Y-27570500D01*
X74240500Y-24610500D02*
X58880500Y-24610500D01*
X74240500Y-19709500D02*
X58880500Y-19709500D01*
X74240500Y-18209500D02*
X58880500Y-18209500D01*
X63160500Y-22309500D02*
G75*
G03*
X63160500Y-22309500I-1680000J0D01*
G01*
X68240500Y-22309500D02*
G75*
G03*
X68240500Y-22309500I-1680000J0D01*
G01*
%TO.C,J10*%
X88038682Y-20774744D02*
G75*
G02*
X88722000Y-20629500I683318J-1534756D01*
G01*
X87186574Y-22992542D02*
G75*
G02*
X87187000Y-21625500I1535426J683042D01*
G01*
X89405042Y-23844926D02*
G75*
G02*
X88038000Y-23844500I-683042J1535426D01*
G01*
X90257426Y-21626458D02*
G75*
G02*
X90257000Y-22993500I-1535426J-683042D01*
G01*
X88693195Y-20629247D02*
G75*
G02*
X89406000Y-20774500I28805J-1680253D01*
G01*
X85322000Y-22309500D02*
G75*
G03*
X85322000Y-22309500I-1680000J0D01*
G01*
X80242000Y-22309500D02*
G75*
G03*
X80242000Y-22309500I-1680000J0D01*
G01*
X91322000Y-18209500D02*
X75962000Y-18209500D01*
X91322000Y-19709500D02*
X75962000Y-19709500D01*
X91322000Y-24610500D02*
X75962000Y-24610500D01*
X91322000Y-27570500D02*
X75962000Y-27570500D01*
X91322000Y-17649500D02*
X75962000Y-17649500D01*
X91322000Y-27570500D02*
X91322000Y-17649500D01*
X75962000Y-27570500D02*
X75962000Y-17649500D01*
X82367000Y-23378500D02*
X82414000Y-23332500D01*
X84676000Y-21070500D02*
X84711000Y-21035500D01*
X82572000Y-23584500D02*
X82607000Y-23548500D01*
X84869000Y-21286500D02*
X84916000Y-21240500D01*
X77287000Y-23378500D02*
X77334000Y-23332500D01*
X79596000Y-21070500D02*
X79631000Y-21035500D01*
X77492000Y-23584500D02*
X77527000Y-23548500D01*
X79789000Y-21286500D02*
X79836000Y-21240500D01*
X91562000Y-18149500D02*
X91562000Y-17409500D01*
X91562000Y-17409500D02*
X91062000Y-17409500D01*
%TO.C,J11*%
X100891195Y-20559747D02*
G75*
G02*
X101604000Y-20705000I28805J-1680253D01*
G01*
X102455426Y-21556958D02*
G75*
G02*
X102455000Y-22924000I-1535426J-683042D01*
G01*
X101603042Y-23775426D02*
G75*
G02*
X100236000Y-23775000I-683042J1535426D01*
G01*
X99384574Y-22923042D02*
G75*
G02*
X99385000Y-21556000I1535426J683042D01*
G01*
X100236682Y-20705244D02*
G75*
G02*
X100920000Y-20560000I683318J-1534756D01*
G01*
X103760000Y-17340000D02*
X103260000Y-17340000D01*
X103760000Y-18080000D02*
X103760000Y-17340000D01*
X97067000Y-21217000D02*
X97114000Y-21171000D01*
X94770000Y-23515000D02*
X94805000Y-23479000D01*
X96874000Y-21001000D02*
X96909000Y-20966000D01*
X94565000Y-23309000D02*
X94612000Y-23263000D01*
X93240000Y-27501000D02*
X93240000Y-17580000D01*
X103520000Y-27501000D02*
X103520000Y-17580000D01*
X103520000Y-17580000D02*
X93240000Y-17580000D01*
X103520000Y-27501000D02*
X93240000Y-27501000D01*
X103520000Y-24541000D02*
X93240000Y-24541000D01*
X103520000Y-19640000D02*
X93240000Y-19640000D01*
X103520000Y-18140000D02*
X93240000Y-18140000D01*
X97520000Y-22240000D02*
G75*
G03*
X97520000Y-22240000I-1680000J0D01*
G01*
%TO.C,J12*%
X110254756Y-85056682D02*
G75*
G02*
X110400000Y-85740000I-1534756J-683318D01*
G01*
X108036958Y-84204574D02*
G75*
G02*
X109404000Y-84205000I683042J-1535426D01*
G01*
X107184574Y-86423042D02*
G75*
G02*
X107185000Y-85056000I1535426J683042D01*
G01*
X109403042Y-87275426D02*
G75*
G02*
X108036000Y-87275000I-683042J1535426D01*
G01*
X110400253Y-85711195D02*
G75*
G02*
X110255000Y-86424000I-1680253J-28805D01*
G01*
X110400000Y-80660000D02*
G75*
G03*
X110400000Y-80660000I-1680000J0D01*
G01*
X112820000Y-88340000D02*
X112820000Y-78060000D01*
X111320000Y-88340000D02*
X111320000Y-78060000D01*
X106419000Y-88340000D02*
X106419000Y-78060000D01*
X103459000Y-88340000D02*
X103459000Y-78060000D01*
X113380000Y-88340000D02*
X113380000Y-78060000D01*
X103459000Y-88340000D02*
X113380000Y-88340000D01*
X103459000Y-78060000D02*
X113380000Y-78060000D01*
X107651000Y-79385000D02*
X107697000Y-79432000D01*
X109959000Y-81694000D02*
X109994000Y-81729000D01*
X107445000Y-79590000D02*
X107481000Y-79625000D01*
X109743000Y-81887000D02*
X109789000Y-81934000D01*
X112880000Y-88580000D02*
X113620000Y-88580000D01*
X113620000Y-88580000D02*
X113620000Y-88080000D01*
D15*
%TO.C,J13*%
X37220000Y-24240000D02*
X34620000Y-24240000D01*
X32720000Y-19740000D02*
X32720000Y-22340000D01*
X39120000Y-19740000D02*
X39120000Y-22340000D01*
X34620000Y-17840000D02*
X37220000Y-17840000D01*
%TO.C,J14*%
X20731000Y-83972000D02*
X18131000Y-83972000D01*
X16231000Y-82072000D02*
X16231000Y-79472000D01*
X22631000Y-82072000D02*
X22631000Y-79472000D01*
X18131000Y-77572000D02*
X20731000Y-77572000D01*
D12*
%TO.C,Q1*%
X95840000Y-78050000D02*
X95840000Y-76590000D01*
X99000000Y-78050000D02*
X99000000Y-75890000D01*
X99000000Y-78050000D02*
X98070000Y-78050000D01*
X95840000Y-78050000D02*
X96770000Y-78050000D01*
%TO.C,R1*%
X49247400Y-24696359D02*
X49247400Y-25003641D01*
X48487400Y-24696359D02*
X48487400Y-25003641D01*
%TO.C,R2*%
X53801436Y-58820000D02*
X54255564Y-58820000D01*
X53801436Y-57350000D02*
X54255564Y-57350000D01*
%TO.C,R3*%
X47270641Y-65404000D02*
X46963359Y-65404000D01*
X47270641Y-64644000D02*
X46963359Y-64644000D01*
%TO.C,R4*%
X62984500Y-39952859D02*
X62984500Y-40260141D01*
X62224500Y-39952859D02*
X62224500Y-40260141D01*
%TO.C,R5*%
X58160500Y-39952859D02*
X58160500Y-40260141D01*
X58920500Y-39952859D02*
X58920500Y-40260141D01*
%TO.C,R6*%
X77137500Y-91373859D02*
X77137500Y-91681141D01*
X76377500Y-91373859D02*
X76377500Y-91681141D01*
%TO.C,R7*%
X72505500Y-91165859D02*
X72505500Y-91473141D01*
X73265500Y-91165859D02*
X73265500Y-91473141D01*
%TO.C,R8*%
X68966000Y-91001859D02*
X68966000Y-91309141D01*
X69726000Y-91001859D02*
X69726000Y-91309141D01*
%TO.C,R10*%
X107273641Y-30460000D02*
X106966359Y-30460000D01*
X107273641Y-31220000D02*
X106966359Y-31220000D01*
%TO.C,R11*%
X107273641Y-31960000D02*
X106966359Y-31960000D01*
X107273641Y-32720000D02*
X106966359Y-32720000D01*
%TO.C,R12*%
X107183641Y-34020000D02*
X106876359Y-34020000D01*
X107183641Y-33260000D02*
X106876359Y-33260000D01*
%TO.C,R13*%
X106883641Y-35760000D02*
X106576359Y-35760000D01*
X106883641Y-36520000D02*
X106576359Y-36520000D01*
%TO.C,R14*%
X29655500Y-44675359D02*
X29655500Y-44982641D01*
X30415500Y-44675359D02*
X30415500Y-44982641D01*
%TO.C,R16*%
X57807859Y-76091000D02*
X58115141Y-76091000D01*
X57807859Y-75331000D02*
X58115141Y-75331000D01*
%TO.C,R17*%
X57809859Y-79379000D02*
X58117141Y-79379000D01*
X57809859Y-80139000D02*
X58117141Y-80139000D01*
%TO.C,R18*%
X57809859Y-83639000D02*
X58117141Y-83639000D01*
X57809859Y-82879000D02*
X58117141Y-82879000D01*
%TO.C,R19*%
X57809859Y-87239000D02*
X58117141Y-87239000D01*
X57809859Y-86479000D02*
X58117141Y-86479000D01*
%TO.C,R20*%
X82780000Y-59157141D02*
X82780000Y-58849859D01*
X83540000Y-59157141D02*
X83540000Y-58849859D01*
%TO.C,R21*%
X86280000Y-59157141D02*
X86280000Y-58849859D01*
X87040000Y-59157141D02*
X87040000Y-58849859D01*
%TO.C,R22*%
X90540000Y-59257141D02*
X90540000Y-58949859D01*
X89780000Y-59257141D02*
X89780000Y-58949859D01*
%TO.C,R23*%
X93280000Y-59157141D02*
X93280000Y-58849859D01*
X94040000Y-59157141D02*
X94040000Y-58849859D01*
%TO.C,R26*%
X59263641Y-37960000D02*
X58956359Y-37960000D01*
X59263641Y-38720000D02*
X58956359Y-38720000D01*
%TO.C,R27*%
X63173641Y-38820000D02*
X62866359Y-38820000D01*
X63173641Y-38060000D02*
X62866359Y-38060000D01*
%TO.C,R28*%
X75341359Y-73345000D02*
X75648641Y-73345000D01*
X75341359Y-72585000D02*
X75648641Y-72585000D01*
%TO.C,R29*%
X77583641Y-73400000D02*
X77276359Y-73400000D01*
X77583641Y-72640000D02*
X77276359Y-72640000D01*
%TO.C,R30*%
X77940000Y-77493641D02*
X77940000Y-77186359D01*
X78700000Y-77493641D02*
X78700000Y-77186359D01*
%TO.C,R31*%
X80300000Y-77493641D02*
X80300000Y-77186359D01*
X79540000Y-77493641D02*
X79540000Y-77186359D01*
%TO.C,R32*%
X93696641Y-63970500D02*
X93389359Y-63970500D01*
X93696641Y-63210500D02*
X93389359Y-63210500D01*
%TO.C,R33*%
X80406359Y-65183500D02*
X80713641Y-65183500D01*
X80406359Y-64423500D02*
X80713641Y-64423500D01*
%TO.C,R34*%
X47240000Y-86146359D02*
X47240000Y-86453641D01*
X48000000Y-86146359D02*
X48000000Y-86453641D01*
%TO.C,R35*%
X47118000Y-76163141D02*
X47118000Y-75855859D01*
X47878000Y-76163141D02*
X47878000Y-75855859D01*
%TO.C,R36*%
X37240000Y-77613641D02*
X37240000Y-77306359D01*
X38000000Y-77613641D02*
X38000000Y-77306359D01*
%TO.C,R37*%
X32800000Y-26493641D02*
X32800000Y-26186359D01*
X32040000Y-26493641D02*
X32040000Y-26186359D01*
D10*
%TO.C,SW1*%
X46355500Y-17016700D02*
X44055500Y-17016700D01*
X52655500Y-17016700D02*
X50455500Y-17016700D01*
X52655500Y-21616700D02*
X44055500Y-21616700D01*
D12*
%TO.C,U2*%
X93282000Y-75639500D02*
X87272000Y-75639500D01*
X91032000Y-68819500D02*
X87272000Y-68819500D01*
X87272000Y-75639500D02*
X87272000Y-74379500D01*
X87272000Y-68819500D02*
X87272000Y-70079500D01*
%TO.C,U3*%
X87272000Y-79106500D02*
X87272000Y-80366500D01*
X87272000Y-85926500D02*
X87272000Y-84666500D01*
X91032000Y-79106500D02*
X87272000Y-79106500D01*
X93282000Y-85926500D02*
X87272000Y-85926500D01*
D10*
%TO.C,U4*%
X54892500Y-36623000D02*
X55417500Y-36623000D01*
X54892500Y-32323000D02*
X55417500Y-32323000D01*
X59192500Y-32323000D02*
X58667500Y-32323000D01*
X59192500Y-36623000D02*
X58667500Y-36623000D01*
X54892500Y-32323000D02*
X54892500Y-32848000D01*
X59192500Y-32323000D02*
X59192500Y-32848000D01*
X54892500Y-36623000D02*
X54892500Y-36098000D01*
D13*
%TO.C,U5*%
X91793000Y-66912000D02*
G75*
G03*
X91793000Y-66912000I-100000J0D01*
G01*
X83193000Y-61162000D02*
X83193000Y-61662000D01*
X91193000Y-61162000D02*
X83193000Y-61162000D01*
X91193000Y-61662000D02*
X91193000Y-61162000D01*
X83193000Y-67162000D02*
X83193000Y-66662000D01*
X91193000Y-67162000D02*
X83193000Y-67162000D01*
X91193000Y-66662000D02*
X91193000Y-67162000D01*
D12*
%TO.C,U7*%
X50144000Y-83380000D02*
X50869000Y-83380000D01*
X46649000Y-79160000D02*
X46649000Y-79885000D01*
X47374000Y-79160000D02*
X46649000Y-79160000D01*
X50869000Y-79160000D02*
X50869000Y-79885000D01*
X50144000Y-79160000D02*
X50869000Y-79160000D01*
X46649000Y-83380000D02*
X46649000Y-82655000D01*
X47374000Y-83380000D02*
X46649000Y-83380000D01*
D15*
%TO.C,U8*%
X40789500Y-83460500D02*
X40789500Y-82925500D01*
X40789500Y-79460500D02*
X40789500Y-79995500D01*
X36789500Y-83460500D02*
X36789500Y-82925500D01*
X36789500Y-79460500D02*
X36789500Y-79995500D01*
X40789500Y-83460500D02*
X40254500Y-83460500D01*
X40789500Y-79460500D02*
X40254500Y-79460500D01*
X36789500Y-83460500D02*
X37324500Y-83460500D01*
X36789500Y-79460500D02*
X37324500Y-79460500D01*
D13*
X41939500Y-82435500D02*
G75*
G03*
X41939500Y-82435500I-100000J0D01*
G01*
D12*
%TO.C,U9*%
X27263000Y-41656500D02*
X27263000Y-40966500D01*
X27113000Y-40966500D02*
X27263000Y-40966500D01*
X27113000Y-31046500D02*
X27263000Y-31046500D01*
X37283000Y-40966500D02*
X37433000Y-40966500D01*
X37283000Y-31046500D02*
X37433000Y-31046500D01*
X37433000Y-40966500D02*
X37433000Y-31046500D01*
X27113000Y-40966500D02*
X27113000Y-31046500D01*
%TO.C,Y1*%
X47947500Y-54942000D02*
X47947500Y-58942000D01*
X51247500Y-54942000D02*
X47947500Y-54942000D01*
%TO.C,Y2*%
X50759000Y-74411000D02*
X50759000Y-71111000D01*
X50759000Y-71111000D02*
X46759000Y-71111000D01*
%TO.C,J7*%
D16*
X109397523Y-54592333D02*
X110304666Y-54592333D01*
X110486095Y-54652809D01*
X110607047Y-54773761D01*
X110667523Y-54955190D01*
X110667523Y-55076142D01*
X109397523Y-54108523D02*
X109397523Y-53261857D01*
X110667523Y-53806142D01*
%TO.C,D2*%
D10*
X80102380Y-81178095D02*
X79102380Y-81178095D01*
X79102380Y-80940000D01*
X79150000Y-80797142D01*
X79245238Y-80701904D01*
X79340476Y-80654285D01*
X79530952Y-80606666D01*
X79673809Y-80606666D01*
X79864285Y-80654285D01*
X79959523Y-80701904D01*
X80054761Y-80797142D01*
X80102380Y-80940000D01*
X80102380Y-81178095D01*
X79197619Y-80225714D02*
X79150000Y-80178095D01*
X79102380Y-80082857D01*
X79102380Y-79844761D01*
X79150000Y-79749523D01*
X79197619Y-79701904D01*
X79292857Y-79654285D01*
X79388095Y-79654285D01*
X79530952Y-79701904D01*
X80102380Y-80273333D01*
X80102380Y-79654285D01*
%TD*%
M02*
