%TF.GenerationSoftware,KiCad,Pcbnew,(5.1.8)-1*%
%TF.CreationDate,2021-01-18T01:00:06-05:00*%
%TF.ProjectId,Mercury,4d657263-7572-4792-9e6b-696361645f70,rev?*%
%TF.SameCoordinates,Original*%
%TF.FileFunction,Soldermask,Top*%
%TF.FilePolarity,Negative*%
%FSLAX46Y46*%
G04 Gerber Fmt 4.6, Leading zero omitted, Abs format (unit mm)*
G04 Created by KiCad (PCBNEW (5.1.8)-1) date 2021-01-18 01:00:06*
%MOMM*%
%LPD*%
G01*
G04 APERTURE LIST*
%ADD10C,1.600000*%
%ADD11R,1.350000X0.400000*%
%ADD12R,1.400000X1.600000*%
%ADD13R,1.300000X1.450000*%
%ADD14R,1.900000X1.900000*%
%ADD15R,2.600000X2.600000*%
%ADD16C,2.600000*%
%ADD17C,6.000000*%
%ADD18C,0.800000*%
%ADD19O,1.000000X1.000000*%
%ADD20R,1.000000X1.000000*%
%ADD21C,2.250000*%
%ADD22C,2.400000*%
%ADD23R,0.800000X0.900000*%
%ADD24O,2.200000X3.500000*%
%ADD25O,1.500000X2.500000*%
%ADD26R,1.500000X2.500000*%
%ADD27R,2.000000X1.500000*%
%ADD28R,2.000000X3.800000*%
%ADD29R,3.400000X4.300000*%
%ADD30R,0.940000X0.440000*%
%ADD31R,2.400000X2.400000*%
%ADD32R,2.160000X2.160000*%
%ADD33R,0.990000X0.340000*%
%ADD34R,0.340000X0.990000*%
%ADD35R,1.200000X1.400000*%
%ADD36R,1.400000X1.200000*%
G04 APERTURE END LIST*
%TO.C,U1*%
G36*
G01*
X60451500Y-50881000D02*
X60451500Y-49431000D01*
G75*
G02*
X60526500Y-49356000I75000J0D01*
G01*
X60676500Y-49356000D01*
G75*
G02*
X60751500Y-49431000I0J-75000D01*
G01*
X60751500Y-50881000D01*
G75*
G02*
X60676500Y-50956000I-75000J0D01*
G01*
X60526500Y-50956000D01*
G75*
G02*
X60451500Y-50881000I0J75000D01*
G01*
G37*
G36*
G01*
X60951500Y-50881000D02*
X60951500Y-49431000D01*
G75*
G02*
X61026500Y-49356000I75000J0D01*
G01*
X61176500Y-49356000D01*
G75*
G02*
X61251500Y-49431000I0J-75000D01*
G01*
X61251500Y-50881000D01*
G75*
G02*
X61176500Y-50956000I-75000J0D01*
G01*
X61026500Y-50956000D01*
G75*
G02*
X60951500Y-50881000I0J75000D01*
G01*
G37*
G36*
G01*
X61451500Y-50881000D02*
X61451500Y-49431000D01*
G75*
G02*
X61526500Y-49356000I75000J0D01*
G01*
X61676500Y-49356000D01*
G75*
G02*
X61751500Y-49431000I0J-75000D01*
G01*
X61751500Y-50881000D01*
G75*
G02*
X61676500Y-50956000I-75000J0D01*
G01*
X61526500Y-50956000D01*
G75*
G02*
X61451500Y-50881000I0J75000D01*
G01*
G37*
G36*
G01*
X61951500Y-50881000D02*
X61951500Y-49431000D01*
G75*
G02*
X62026500Y-49356000I75000J0D01*
G01*
X62176500Y-49356000D01*
G75*
G02*
X62251500Y-49431000I0J-75000D01*
G01*
X62251500Y-50881000D01*
G75*
G02*
X62176500Y-50956000I-75000J0D01*
G01*
X62026500Y-50956000D01*
G75*
G02*
X61951500Y-50881000I0J75000D01*
G01*
G37*
G36*
G01*
X62451500Y-50881000D02*
X62451500Y-49431000D01*
G75*
G02*
X62526500Y-49356000I75000J0D01*
G01*
X62676500Y-49356000D01*
G75*
G02*
X62751500Y-49431000I0J-75000D01*
G01*
X62751500Y-50881000D01*
G75*
G02*
X62676500Y-50956000I-75000J0D01*
G01*
X62526500Y-50956000D01*
G75*
G02*
X62451500Y-50881000I0J75000D01*
G01*
G37*
G36*
G01*
X62951500Y-50881000D02*
X62951500Y-49431000D01*
G75*
G02*
X63026500Y-49356000I75000J0D01*
G01*
X63176500Y-49356000D01*
G75*
G02*
X63251500Y-49431000I0J-75000D01*
G01*
X63251500Y-50881000D01*
G75*
G02*
X63176500Y-50956000I-75000J0D01*
G01*
X63026500Y-50956000D01*
G75*
G02*
X62951500Y-50881000I0J75000D01*
G01*
G37*
G36*
G01*
X63451500Y-50881000D02*
X63451500Y-49431000D01*
G75*
G02*
X63526500Y-49356000I75000J0D01*
G01*
X63676500Y-49356000D01*
G75*
G02*
X63751500Y-49431000I0J-75000D01*
G01*
X63751500Y-50881000D01*
G75*
G02*
X63676500Y-50956000I-75000J0D01*
G01*
X63526500Y-50956000D01*
G75*
G02*
X63451500Y-50881000I0J75000D01*
G01*
G37*
G36*
G01*
X63951500Y-50881000D02*
X63951500Y-49431000D01*
G75*
G02*
X64026500Y-49356000I75000J0D01*
G01*
X64176500Y-49356000D01*
G75*
G02*
X64251500Y-49431000I0J-75000D01*
G01*
X64251500Y-50881000D01*
G75*
G02*
X64176500Y-50956000I-75000J0D01*
G01*
X64026500Y-50956000D01*
G75*
G02*
X63951500Y-50881000I0J75000D01*
G01*
G37*
G36*
G01*
X64451500Y-50881000D02*
X64451500Y-49431000D01*
G75*
G02*
X64526500Y-49356000I75000J0D01*
G01*
X64676500Y-49356000D01*
G75*
G02*
X64751500Y-49431000I0J-75000D01*
G01*
X64751500Y-50881000D01*
G75*
G02*
X64676500Y-50956000I-75000J0D01*
G01*
X64526500Y-50956000D01*
G75*
G02*
X64451500Y-50881000I0J75000D01*
G01*
G37*
G36*
G01*
X64951500Y-50881000D02*
X64951500Y-49431000D01*
G75*
G02*
X65026500Y-49356000I75000J0D01*
G01*
X65176500Y-49356000D01*
G75*
G02*
X65251500Y-49431000I0J-75000D01*
G01*
X65251500Y-50881000D01*
G75*
G02*
X65176500Y-50956000I-75000J0D01*
G01*
X65026500Y-50956000D01*
G75*
G02*
X64951500Y-50881000I0J75000D01*
G01*
G37*
G36*
G01*
X65451500Y-50881000D02*
X65451500Y-49431000D01*
G75*
G02*
X65526500Y-49356000I75000J0D01*
G01*
X65676500Y-49356000D01*
G75*
G02*
X65751500Y-49431000I0J-75000D01*
G01*
X65751500Y-50881000D01*
G75*
G02*
X65676500Y-50956000I-75000J0D01*
G01*
X65526500Y-50956000D01*
G75*
G02*
X65451500Y-50881000I0J75000D01*
G01*
G37*
G36*
G01*
X65951500Y-50881000D02*
X65951500Y-49431000D01*
G75*
G02*
X66026500Y-49356000I75000J0D01*
G01*
X66176500Y-49356000D01*
G75*
G02*
X66251500Y-49431000I0J-75000D01*
G01*
X66251500Y-50881000D01*
G75*
G02*
X66176500Y-50956000I-75000J0D01*
G01*
X66026500Y-50956000D01*
G75*
G02*
X65951500Y-50881000I0J75000D01*
G01*
G37*
G36*
G01*
X66451500Y-50881000D02*
X66451500Y-49431000D01*
G75*
G02*
X66526500Y-49356000I75000J0D01*
G01*
X66676500Y-49356000D01*
G75*
G02*
X66751500Y-49431000I0J-75000D01*
G01*
X66751500Y-50881000D01*
G75*
G02*
X66676500Y-50956000I-75000J0D01*
G01*
X66526500Y-50956000D01*
G75*
G02*
X66451500Y-50881000I0J75000D01*
G01*
G37*
G36*
G01*
X66951500Y-50881000D02*
X66951500Y-49431000D01*
G75*
G02*
X67026500Y-49356000I75000J0D01*
G01*
X67176500Y-49356000D01*
G75*
G02*
X67251500Y-49431000I0J-75000D01*
G01*
X67251500Y-50881000D01*
G75*
G02*
X67176500Y-50956000I-75000J0D01*
G01*
X67026500Y-50956000D01*
G75*
G02*
X66951500Y-50881000I0J75000D01*
G01*
G37*
G36*
G01*
X67451500Y-50881000D02*
X67451500Y-49431000D01*
G75*
G02*
X67526500Y-49356000I75000J0D01*
G01*
X67676500Y-49356000D01*
G75*
G02*
X67751500Y-49431000I0J-75000D01*
G01*
X67751500Y-50881000D01*
G75*
G02*
X67676500Y-50956000I-75000J0D01*
G01*
X67526500Y-50956000D01*
G75*
G02*
X67451500Y-50881000I0J75000D01*
G01*
G37*
G36*
G01*
X67951500Y-50881000D02*
X67951500Y-49431000D01*
G75*
G02*
X68026500Y-49356000I75000J0D01*
G01*
X68176500Y-49356000D01*
G75*
G02*
X68251500Y-49431000I0J-75000D01*
G01*
X68251500Y-50881000D01*
G75*
G02*
X68176500Y-50956000I-75000J0D01*
G01*
X68026500Y-50956000D01*
G75*
G02*
X67951500Y-50881000I0J75000D01*
G01*
G37*
G36*
G01*
X68451500Y-50881000D02*
X68451500Y-49431000D01*
G75*
G02*
X68526500Y-49356000I75000J0D01*
G01*
X68676500Y-49356000D01*
G75*
G02*
X68751500Y-49431000I0J-75000D01*
G01*
X68751500Y-50881000D01*
G75*
G02*
X68676500Y-50956000I-75000J0D01*
G01*
X68526500Y-50956000D01*
G75*
G02*
X68451500Y-50881000I0J75000D01*
G01*
G37*
G36*
G01*
X68951500Y-50881000D02*
X68951500Y-49431000D01*
G75*
G02*
X69026500Y-49356000I75000J0D01*
G01*
X69176500Y-49356000D01*
G75*
G02*
X69251500Y-49431000I0J-75000D01*
G01*
X69251500Y-50881000D01*
G75*
G02*
X69176500Y-50956000I-75000J0D01*
G01*
X69026500Y-50956000D01*
G75*
G02*
X68951500Y-50881000I0J75000D01*
G01*
G37*
G36*
G01*
X69451500Y-50881000D02*
X69451500Y-49431000D01*
G75*
G02*
X69526500Y-49356000I75000J0D01*
G01*
X69676500Y-49356000D01*
G75*
G02*
X69751500Y-49431000I0J-75000D01*
G01*
X69751500Y-50881000D01*
G75*
G02*
X69676500Y-50956000I-75000J0D01*
G01*
X69526500Y-50956000D01*
G75*
G02*
X69451500Y-50881000I0J75000D01*
G01*
G37*
G36*
G01*
X69951500Y-50881000D02*
X69951500Y-49431000D01*
G75*
G02*
X70026500Y-49356000I75000J0D01*
G01*
X70176500Y-49356000D01*
G75*
G02*
X70251500Y-49431000I0J-75000D01*
G01*
X70251500Y-50881000D01*
G75*
G02*
X70176500Y-50956000I-75000J0D01*
G01*
X70026500Y-50956000D01*
G75*
G02*
X69951500Y-50881000I0J75000D01*
G01*
G37*
G36*
G01*
X70451500Y-50881000D02*
X70451500Y-49431000D01*
G75*
G02*
X70526500Y-49356000I75000J0D01*
G01*
X70676500Y-49356000D01*
G75*
G02*
X70751500Y-49431000I0J-75000D01*
G01*
X70751500Y-50881000D01*
G75*
G02*
X70676500Y-50956000I-75000J0D01*
G01*
X70526500Y-50956000D01*
G75*
G02*
X70451500Y-50881000I0J75000D01*
G01*
G37*
G36*
G01*
X70951500Y-50881000D02*
X70951500Y-49431000D01*
G75*
G02*
X71026500Y-49356000I75000J0D01*
G01*
X71176500Y-49356000D01*
G75*
G02*
X71251500Y-49431000I0J-75000D01*
G01*
X71251500Y-50881000D01*
G75*
G02*
X71176500Y-50956000I-75000J0D01*
G01*
X71026500Y-50956000D01*
G75*
G02*
X70951500Y-50881000I0J75000D01*
G01*
G37*
G36*
G01*
X71451500Y-50881000D02*
X71451500Y-49431000D01*
G75*
G02*
X71526500Y-49356000I75000J0D01*
G01*
X71676500Y-49356000D01*
G75*
G02*
X71751500Y-49431000I0J-75000D01*
G01*
X71751500Y-50881000D01*
G75*
G02*
X71676500Y-50956000I-75000J0D01*
G01*
X71526500Y-50956000D01*
G75*
G02*
X71451500Y-50881000I0J75000D01*
G01*
G37*
G36*
G01*
X71951500Y-50881000D02*
X71951500Y-49431000D01*
G75*
G02*
X72026500Y-49356000I75000J0D01*
G01*
X72176500Y-49356000D01*
G75*
G02*
X72251500Y-49431000I0J-75000D01*
G01*
X72251500Y-50881000D01*
G75*
G02*
X72176500Y-50956000I-75000J0D01*
G01*
X72026500Y-50956000D01*
G75*
G02*
X71951500Y-50881000I0J75000D01*
G01*
G37*
G36*
G01*
X72451500Y-50881000D02*
X72451500Y-49431000D01*
G75*
G02*
X72526500Y-49356000I75000J0D01*
G01*
X72676500Y-49356000D01*
G75*
G02*
X72751500Y-49431000I0J-75000D01*
G01*
X72751500Y-50881000D01*
G75*
G02*
X72676500Y-50956000I-75000J0D01*
G01*
X72526500Y-50956000D01*
G75*
G02*
X72451500Y-50881000I0J75000D01*
G01*
G37*
G36*
G01*
X73476500Y-51906000D02*
X73476500Y-51756000D01*
G75*
G02*
X73551500Y-51681000I75000J0D01*
G01*
X75001500Y-51681000D01*
G75*
G02*
X75076500Y-51756000I0J-75000D01*
G01*
X75076500Y-51906000D01*
G75*
G02*
X75001500Y-51981000I-75000J0D01*
G01*
X73551500Y-51981000D01*
G75*
G02*
X73476500Y-51906000I0J75000D01*
G01*
G37*
G36*
G01*
X73476500Y-52406000D02*
X73476500Y-52256000D01*
G75*
G02*
X73551500Y-52181000I75000J0D01*
G01*
X75001500Y-52181000D01*
G75*
G02*
X75076500Y-52256000I0J-75000D01*
G01*
X75076500Y-52406000D01*
G75*
G02*
X75001500Y-52481000I-75000J0D01*
G01*
X73551500Y-52481000D01*
G75*
G02*
X73476500Y-52406000I0J75000D01*
G01*
G37*
G36*
G01*
X73476500Y-52906000D02*
X73476500Y-52756000D01*
G75*
G02*
X73551500Y-52681000I75000J0D01*
G01*
X75001500Y-52681000D01*
G75*
G02*
X75076500Y-52756000I0J-75000D01*
G01*
X75076500Y-52906000D01*
G75*
G02*
X75001500Y-52981000I-75000J0D01*
G01*
X73551500Y-52981000D01*
G75*
G02*
X73476500Y-52906000I0J75000D01*
G01*
G37*
G36*
G01*
X73476500Y-53406000D02*
X73476500Y-53256000D01*
G75*
G02*
X73551500Y-53181000I75000J0D01*
G01*
X75001500Y-53181000D01*
G75*
G02*
X75076500Y-53256000I0J-75000D01*
G01*
X75076500Y-53406000D01*
G75*
G02*
X75001500Y-53481000I-75000J0D01*
G01*
X73551500Y-53481000D01*
G75*
G02*
X73476500Y-53406000I0J75000D01*
G01*
G37*
G36*
G01*
X73476500Y-53906000D02*
X73476500Y-53756000D01*
G75*
G02*
X73551500Y-53681000I75000J0D01*
G01*
X75001500Y-53681000D01*
G75*
G02*
X75076500Y-53756000I0J-75000D01*
G01*
X75076500Y-53906000D01*
G75*
G02*
X75001500Y-53981000I-75000J0D01*
G01*
X73551500Y-53981000D01*
G75*
G02*
X73476500Y-53906000I0J75000D01*
G01*
G37*
G36*
G01*
X73476500Y-54406000D02*
X73476500Y-54256000D01*
G75*
G02*
X73551500Y-54181000I75000J0D01*
G01*
X75001500Y-54181000D01*
G75*
G02*
X75076500Y-54256000I0J-75000D01*
G01*
X75076500Y-54406000D01*
G75*
G02*
X75001500Y-54481000I-75000J0D01*
G01*
X73551500Y-54481000D01*
G75*
G02*
X73476500Y-54406000I0J75000D01*
G01*
G37*
G36*
G01*
X73476500Y-54906000D02*
X73476500Y-54756000D01*
G75*
G02*
X73551500Y-54681000I75000J0D01*
G01*
X75001500Y-54681000D01*
G75*
G02*
X75076500Y-54756000I0J-75000D01*
G01*
X75076500Y-54906000D01*
G75*
G02*
X75001500Y-54981000I-75000J0D01*
G01*
X73551500Y-54981000D01*
G75*
G02*
X73476500Y-54906000I0J75000D01*
G01*
G37*
G36*
G01*
X73476500Y-55406000D02*
X73476500Y-55256000D01*
G75*
G02*
X73551500Y-55181000I75000J0D01*
G01*
X75001500Y-55181000D01*
G75*
G02*
X75076500Y-55256000I0J-75000D01*
G01*
X75076500Y-55406000D01*
G75*
G02*
X75001500Y-55481000I-75000J0D01*
G01*
X73551500Y-55481000D01*
G75*
G02*
X73476500Y-55406000I0J75000D01*
G01*
G37*
G36*
G01*
X73476500Y-55906000D02*
X73476500Y-55756000D01*
G75*
G02*
X73551500Y-55681000I75000J0D01*
G01*
X75001500Y-55681000D01*
G75*
G02*
X75076500Y-55756000I0J-75000D01*
G01*
X75076500Y-55906000D01*
G75*
G02*
X75001500Y-55981000I-75000J0D01*
G01*
X73551500Y-55981000D01*
G75*
G02*
X73476500Y-55906000I0J75000D01*
G01*
G37*
G36*
G01*
X73476500Y-56406000D02*
X73476500Y-56256000D01*
G75*
G02*
X73551500Y-56181000I75000J0D01*
G01*
X75001500Y-56181000D01*
G75*
G02*
X75076500Y-56256000I0J-75000D01*
G01*
X75076500Y-56406000D01*
G75*
G02*
X75001500Y-56481000I-75000J0D01*
G01*
X73551500Y-56481000D01*
G75*
G02*
X73476500Y-56406000I0J75000D01*
G01*
G37*
G36*
G01*
X73476500Y-56906000D02*
X73476500Y-56756000D01*
G75*
G02*
X73551500Y-56681000I75000J0D01*
G01*
X75001500Y-56681000D01*
G75*
G02*
X75076500Y-56756000I0J-75000D01*
G01*
X75076500Y-56906000D01*
G75*
G02*
X75001500Y-56981000I-75000J0D01*
G01*
X73551500Y-56981000D01*
G75*
G02*
X73476500Y-56906000I0J75000D01*
G01*
G37*
G36*
G01*
X73476500Y-57406000D02*
X73476500Y-57256000D01*
G75*
G02*
X73551500Y-57181000I75000J0D01*
G01*
X75001500Y-57181000D01*
G75*
G02*
X75076500Y-57256000I0J-75000D01*
G01*
X75076500Y-57406000D01*
G75*
G02*
X75001500Y-57481000I-75000J0D01*
G01*
X73551500Y-57481000D01*
G75*
G02*
X73476500Y-57406000I0J75000D01*
G01*
G37*
G36*
G01*
X73476500Y-57906000D02*
X73476500Y-57756000D01*
G75*
G02*
X73551500Y-57681000I75000J0D01*
G01*
X75001500Y-57681000D01*
G75*
G02*
X75076500Y-57756000I0J-75000D01*
G01*
X75076500Y-57906000D01*
G75*
G02*
X75001500Y-57981000I-75000J0D01*
G01*
X73551500Y-57981000D01*
G75*
G02*
X73476500Y-57906000I0J75000D01*
G01*
G37*
G36*
G01*
X73476500Y-58406000D02*
X73476500Y-58256000D01*
G75*
G02*
X73551500Y-58181000I75000J0D01*
G01*
X75001500Y-58181000D01*
G75*
G02*
X75076500Y-58256000I0J-75000D01*
G01*
X75076500Y-58406000D01*
G75*
G02*
X75001500Y-58481000I-75000J0D01*
G01*
X73551500Y-58481000D01*
G75*
G02*
X73476500Y-58406000I0J75000D01*
G01*
G37*
G36*
G01*
X73476500Y-58906000D02*
X73476500Y-58756000D01*
G75*
G02*
X73551500Y-58681000I75000J0D01*
G01*
X75001500Y-58681000D01*
G75*
G02*
X75076500Y-58756000I0J-75000D01*
G01*
X75076500Y-58906000D01*
G75*
G02*
X75001500Y-58981000I-75000J0D01*
G01*
X73551500Y-58981000D01*
G75*
G02*
X73476500Y-58906000I0J75000D01*
G01*
G37*
G36*
G01*
X73476500Y-59406000D02*
X73476500Y-59256000D01*
G75*
G02*
X73551500Y-59181000I75000J0D01*
G01*
X75001500Y-59181000D01*
G75*
G02*
X75076500Y-59256000I0J-75000D01*
G01*
X75076500Y-59406000D01*
G75*
G02*
X75001500Y-59481000I-75000J0D01*
G01*
X73551500Y-59481000D01*
G75*
G02*
X73476500Y-59406000I0J75000D01*
G01*
G37*
G36*
G01*
X73476500Y-59906000D02*
X73476500Y-59756000D01*
G75*
G02*
X73551500Y-59681000I75000J0D01*
G01*
X75001500Y-59681000D01*
G75*
G02*
X75076500Y-59756000I0J-75000D01*
G01*
X75076500Y-59906000D01*
G75*
G02*
X75001500Y-59981000I-75000J0D01*
G01*
X73551500Y-59981000D01*
G75*
G02*
X73476500Y-59906000I0J75000D01*
G01*
G37*
G36*
G01*
X73476500Y-60406000D02*
X73476500Y-60256000D01*
G75*
G02*
X73551500Y-60181000I75000J0D01*
G01*
X75001500Y-60181000D01*
G75*
G02*
X75076500Y-60256000I0J-75000D01*
G01*
X75076500Y-60406000D01*
G75*
G02*
X75001500Y-60481000I-75000J0D01*
G01*
X73551500Y-60481000D01*
G75*
G02*
X73476500Y-60406000I0J75000D01*
G01*
G37*
G36*
G01*
X73476500Y-60906000D02*
X73476500Y-60756000D01*
G75*
G02*
X73551500Y-60681000I75000J0D01*
G01*
X75001500Y-60681000D01*
G75*
G02*
X75076500Y-60756000I0J-75000D01*
G01*
X75076500Y-60906000D01*
G75*
G02*
X75001500Y-60981000I-75000J0D01*
G01*
X73551500Y-60981000D01*
G75*
G02*
X73476500Y-60906000I0J75000D01*
G01*
G37*
G36*
G01*
X73476500Y-61406000D02*
X73476500Y-61256000D01*
G75*
G02*
X73551500Y-61181000I75000J0D01*
G01*
X75001500Y-61181000D01*
G75*
G02*
X75076500Y-61256000I0J-75000D01*
G01*
X75076500Y-61406000D01*
G75*
G02*
X75001500Y-61481000I-75000J0D01*
G01*
X73551500Y-61481000D01*
G75*
G02*
X73476500Y-61406000I0J75000D01*
G01*
G37*
G36*
G01*
X73476500Y-61906000D02*
X73476500Y-61756000D01*
G75*
G02*
X73551500Y-61681000I75000J0D01*
G01*
X75001500Y-61681000D01*
G75*
G02*
X75076500Y-61756000I0J-75000D01*
G01*
X75076500Y-61906000D01*
G75*
G02*
X75001500Y-61981000I-75000J0D01*
G01*
X73551500Y-61981000D01*
G75*
G02*
X73476500Y-61906000I0J75000D01*
G01*
G37*
G36*
G01*
X73476500Y-62406000D02*
X73476500Y-62256000D01*
G75*
G02*
X73551500Y-62181000I75000J0D01*
G01*
X75001500Y-62181000D01*
G75*
G02*
X75076500Y-62256000I0J-75000D01*
G01*
X75076500Y-62406000D01*
G75*
G02*
X75001500Y-62481000I-75000J0D01*
G01*
X73551500Y-62481000D01*
G75*
G02*
X73476500Y-62406000I0J75000D01*
G01*
G37*
G36*
G01*
X73476500Y-62906000D02*
X73476500Y-62756000D01*
G75*
G02*
X73551500Y-62681000I75000J0D01*
G01*
X75001500Y-62681000D01*
G75*
G02*
X75076500Y-62756000I0J-75000D01*
G01*
X75076500Y-62906000D01*
G75*
G02*
X75001500Y-62981000I-75000J0D01*
G01*
X73551500Y-62981000D01*
G75*
G02*
X73476500Y-62906000I0J75000D01*
G01*
G37*
G36*
G01*
X73476500Y-63406000D02*
X73476500Y-63256000D01*
G75*
G02*
X73551500Y-63181000I75000J0D01*
G01*
X75001500Y-63181000D01*
G75*
G02*
X75076500Y-63256000I0J-75000D01*
G01*
X75076500Y-63406000D01*
G75*
G02*
X75001500Y-63481000I-75000J0D01*
G01*
X73551500Y-63481000D01*
G75*
G02*
X73476500Y-63406000I0J75000D01*
G01*
G37*
G36*
G01*
X73476500Y-63906000D02*
X73476500Y-63756000D01*
G75*
G02*
X73551500Y-63681000I75000J0D01*
G01*
X75001500Y-63681000D01*
G75*
G02*
X75076500Y-63756000I0J-75000D01*
G01*
X75076500Y-63906000D01*
G75*
G02*
X75001500Y-63981000I-75000J0D01*
G01*
X73551500Y-63981000D01*
G75*
G02*
X73476500Y-63906000I0J75000D01*
G01*
G37*
G36*
G01*
X72451500Y-66231000D02*
X72451500Y-64781000D01*
G75*
G02*
X72526500Y-64706000I75000J0D01*
G01*
X72676500Y-64706000D01*
G75*
G02*
X72751500Y-64781000I0J-75000D01*
G01*
X72751500Y-66231000D01*
G75*
G02*
X72676500Y-66306000I-75000J0D01*
G01*
X72526500Y-66306000D01*
G75*
G02*
X72451500Y-66231000I0J75000D01*
G01*
G37*
G36*
G01*
X71951500Y-66231000D02*
X71951500Y-64781000D01*
G75*
G02*
X72026500Y-64706000I75000J0D01*
G01*
X72176500Y-64706000D01*
G75*
G02*
X72251500Y-64781000I0J-75000D01*
G01*
X72251500Y-66231000D01*
G75*
G02*
X72176500Y-66306000I-75000J0D01*
G01*
X72026500Y-66306000D01*
G75*
G02*
X71951500Y-66231000I0J75000D01*
G01*
G37*
G36*
G01*
X71451500Y-66231000D02*
X71451500Y-64781000D01*
G75*
G02*
X71526500Y-64706000I75000J0D01*
G01*
X71676500Y-64706000D01*
G75*
G02*
X71751500Y-64781000I0J-75000D01*
G01*
X71751500Y-66231000D01*
G75*
G02*
X71676500Y-66306000I-75000J0D01*
G01*
X71526500Y-66306000D01*
G75*
G02*
X71451500Y-66231000I0J75000D01*
G01*
G37*
G36*
G01*
X70951500Y-66231000D02*
X70951500Y-64781000D01*
G75*
G02*
X71026500Y-64706000I75000J0D01*
G01*
X71176500Y-64706000D01*
G75*
G02*
X71251500Y-64781000I0J-75000D01*
G01*
X71251500Y-66231000D01*
G75*
G02*
X71176500Y-66306000I-75000J0D01*
G01*
X71026500Y-66306000D01*
G75*
G02*
X70951500Y-66231000I0J75000D01*
G01*
G37*
G36*
G01*
X70451500Y-66231000D02*
X70451500Y-64781000D01*
G75*
G02*
X70526500Y-64706000I75000J0D01*
G01*
X70676500Y-64706000D01*
G75*
G02*
X70751500Y-64781000I0J-75000D01*
G01*
X70751500Y-66231000D01*
G75*
G02*
X70676500Y-66306000I-75000J0D01*
G01*
X70526500Y-66306000D01*
G75*
G02*
X70451500Y-66231000I0J75000D01*
G01*
G37*
G36*
G01*
X69951500Y-66231000D02*
X69951500Y-64781000D01*
G75*
G02*
X70026500Y-64706000I75000J0D01*
G01*
X70176500Y-64706000D01*
G75*
G02*
X70251500Y-64781000I0J-75000D01*
G01*
X70251500Y-66231000D01*
G75*
G02*
X70176500Y-66306000I-75000J0D01*
G01*
X70026500Y-66306000D01*
G75*
G02*
X69951500Y-66231000I0J75000D01*
G01*
G37*
G36*
G01*
X69451500Y-66231000D02*
X69451500Y-64781000D01*
G75*
G02*
X69526500Y-64706000I75000J0D01*
G01*
X69676500Y-64706000D01*
G75*
G02*
X69751500Y-64781000I0J-75000D01*
G01*
X69751500Y-66231000D01*
G75*
G02*
X69676500Y-66306000I-75000J0D01*
G01*
X69526500Y-66306000D01*
G75*
G02*
X69451500Y-66231000I0J75000D01*
G01*
G37*
G36*
G01*
X68951500Y-66231000D02*
X68951500Y-64781000D01*
G75*
G02*
X69026500Y-64706000I75000J0D01*
G01*
X69176500Y-64706000D01*
G75*
G02*
X69251500Y-64781000I0J-75000D01*
G01*
X69251500Y-66231000D01*
G75*
G02*
X69176500Y-66306000I-75000J0D01*
G01*
X69026500Y-66306000D01*
G75*
G02*
X68951500Y-66231000I0J75000D01*
G01*
G37*
G36*
G01*
X68451500Y-66231000D02*
X68451500Y-64781000D01*
G75*
G02*
X68526500Y-64706000I75000J0D01*
G01*
X68676500Y-64706000D01*
G75*
G02*
X68751500Y-64781000I0J-75000D01*
G01*
X68751500Y-66231000D01*
G75*
G02*
X68676500Y-66306000I-75000J0D01*
G01*
X68526500Y-66306000D01*
G75*
G02*
X68451500Y-66231000I0J75000D01*
G01*
G37*
G36*
G01*
X67951500Y-66231000D02*
X67951500Y-64781000D01*
G75*
G02*
X68026500Y-64706000I75000J0D01*
G01*
X68176500Y-64706000D01*
G75*
G02*
X68251500Y-64781000I0J-75000D01*
G01*
X68251500Y-66231000D01*
G75*
G02*
X68176500Y-66306000I-75000J0D01*
G01*
X68026500Y-66306000D01*
G75*
G02*
X67951500Y-66231000I0J75000D01*
G01*
G37*
G36*
G01*
X67451500Y-66231000D02*
X67451500Y-64781000D01*
G75*
G02*
X67526500Y-64706000I75000J0D01*
G01*
X67676500Y-64706000D01*
G75*
G02*
X67751500Y-64781000I0J-75000D01*
G01*
X67751500Y-66231000D01*
G75*
G02*
X67676500Y-66306000I-75000J0D01*
G01*
X67526500Y-66306000D01*
G75*
G02*
X67451500Y-66231000I0J75000D01*
G01*
G37*
G36*
G01*
X66951500Y-66231000D02*
X66951500Y-64781000D01*
G75*
G02*
X67026500Y-64706000I75000J0D01*
G01*
X67176500Y-64706000D01*
G75*
G02*
X67251500Y-64781000I0J-75000D01*
G01*
X67251500Y-66231000D01*
G75*
G02*
X67176500Y-66306000I-75000J0D01*
G01*
X67026500Y-66306000D01*
G75*
G02*
X66951500Y-66231000I0J75000D01*
G01*
G37*
G36*
G01*
X66451500Y-66231000D02*
X66451500Y-64781000D01*
G75*
G02*
X66526500Y-64706000I75000J0D01*
G01*
X66676500Y-64706000D01*
G75*
G02*
X66751500Y-64781000I0J-75000D01*
G01*
X66751500Y-66231000D01*
G75*
G02*
X66676500Y-66306000I-75000J0D01*
G01*
X66526500Y-66306000D01*
G75*
G02*
X66451500Y-66231000I0J75000D01*
G01*
G37*
G36*
G01*
X65951500Y-66231000D02*
X65951500Y-64781000D01*
G75*
G02*
X66026500Y-64706000I75000J0D01*
G01*
X66176500Y-64706000D01*
G75*
G02*
X66251500Y-64781000I0J-75000D01*
G01*
X66251500Y-66231000D01*
G75*
G02*
X66176500Y-66306000I-75000J0D01*
G01*
X66026500Y-66306000D01*
G75*
G02*
X65951500Y-66231000I0J75000D01*
G01*
G37*
G36*
G01*
X65451500Y-66231000D02*
X65451500Y-64781000D01*
G75*
G02*
X65526500Y-64706000I75000J0D01*
G01*
X65676500Y-64706000D01*
G75*
G02*
X65751500Y-64781000I0J-75000D01*
G01*
X65751500Y-66231000D01*
G75*
G02*
X65676500Y-66306000I-75000J0D01*
G01*
X65526500Y-66306000D01*
G75*
G02*
X65451500Y-66231000I0J75000D01*
G01*
G37*
G36*
G01*
X64951500Y-66231000D02*
X64951500Y-64781000D01*
G75*
G02*
X65026500Y-64706000I75000J0D01*
G01*
X65176500Y-64706000D01*
G75*
G02*
X65251500Y-64781000I0J-75000D01*
G01*
X65251500Y-66231000D01*
G75*
G02*
X65176500Y-66306000I-75000J0D01*
G01*
X65026500Y-66306000D01*
G75*
G02*
X64951500Y-66231000I0J75000D01*
G01*
G37*
G36*
G01*
X64451500Y-66231000D02*
X64451500Y-64781000D01*
G75*
G02*
X64526500Y-64706000I75000J0D01*
G01*
X64676500Y-64706000D01*
G75*
G02*
X64751500Y-64781000I0J-75000D01*
G01*
X64751500Y-66231000D01*
G75*
G02*
X64676500Y-66306000I-75000J0D01*
G01*
X64526500Y-66306000D01*
G75*
G02*
X64451500Y-66231000I0J75000D01*
G01*
G37*
G36*
G01*
X63951500Y-66231000D02*
X63951500Y-64781000D01*
G75*
G02*
X64026500Y-64706000I75000J0D01*
G01*
X64176500Y-64706000D01*
G75*
G02*
X64251500Y-64781000I0J-75000D01*
G01*
X64251500Y-66231000D01*
G75*
G02*
X64176500Y-66306000I-75000J0D01*
G01*
X64026500Y-66306000D01*
G75*
G02*
X63951500Y-66231000I0J75000D01*
G01*
G37*
G36*
G01*
X63451500Y-66231000D02*
X63451500Y-64781000D01*
G75*
G02*
X63526500Y-64706000I75000J0D01*
G01*
X63676500Y-64706000D01*
G75*
G02*
X63751500Y-64781000I0J-75000D01*
G01*
X63751500Y-66231000D01*
G75*
G02*
X63676500Y-66306000I-75000J0D01*
G01*
X63526500Y-66306000D01*
G75*
G02*
X63451500Y-66231000I0J75000D01*
G01*
G37*
G36*
G01*
X62951500Y-66231000D02*
X62951500Y-64781000D01*
G75*
G02*
X63026500Y-64706000I75000J0D01*
G01*
X63176500Y-64706000D01*
G75*
G02*
X63251500Y-64781000I0J-75000D01*
G01*
X63251500Y-66231000D01*
G75*
G02*
X63176500Y-66306000I-75000J0D01*
G01*
X63026500Y-66306000D01*
G75*
G02*
X62951500Y-66231000I0J75000D01*
G01*
G37*
G36*
G01*
X62451500Y-66231000D02*
X62451500Y-64781000D01*
G75*
G02*
X62526500Y-64706000I75000J0D01*
G01*
X62676500Y-64706000D01*
G75*
G02*
X62751500Y-64781000I0J-75000D01*
G01*
X62751500Y-66231000D01*
G75*
G02*
X62676500Y-66306000I-75000J0D01*
G01*
X62526500Y-66306000D01*
G75*
G02*
X62451500Y-66231000I0J75000D01*
G01*
G37*
G36*
G01*
X61951500Y-66231000D02*
X61951500Y-64781000D01*
G75*
G02*
X62026500Y-64706000I75000J0D01*
G01*
X62176500Y-64706000D01*
G75*
G02*
X62251500Y-64781000I0J-75000D01*
G01*
X62251500Y-66231000D01*
G75*
G02*
X62176500Y-66306000I-75000J0D01*
G01*
X62026500Y-66306000D01*
G75*
G02*
X61951500Y-66231000I0J75000D01*
G01*
G37*
G36*
G01*
X61451500Y-66231000D02*
X61451500Y-64781000D01*
G75*
G02*
X61526500Y-64706000I75000J0D01*
G01*
X61676500Y-64706000D01*
G75*
G02*
X61751500Y-64781000I0J-75000D01*
G01*
X61751500Y-66231000D01*
G75*
G02*
X61676500Y-66306000I-75000J0D01*
G01*
X61526500Y-66306000D01*
G75*
G02*
X61451500Y-66231000I0J75000D01*
G01*
G37*
G36*
G01*
X60951500Y-66231000D02*
X60951500Y-64781000D01*
G75*
G02*
X61026500Y-64706000I75000J0D01*
G01*
X61176500Y-64706000D01*
G75*
G02*
X61251500Y-64781000I0J-75000D01*
G01*
X61251500Y-66231000D01*
G75*
G02*
X61176500Y-66306000I-75000J0D01*
G01*
X61026500Y-66306000D01*
G75*
G02*
X60951500Y-66231000I0J75000D01*
G01*
G37*
G36*
G01*
X60451500Y-66231000D02*
X60451500Y-64781000D01*
G75*
G02*
X60526500Y-64706000I75000J0D01*
G01*
X60676500Y-64706000D01*
G75*
G02*
X60751500Y-64781000I0J-75000D01*
G01*
X60751500Y-66231000D01*
G75*
G02*
X60676500Y-66306000I-75000J0D01*
G01*
X60526500Y-66306000D01*
G75*
G02*
X60451500Y-66231000I0J75000D01*
G01*
G37*
G36*
G01*
X58126500Y-63906000D02*
X58126500Y-63756000D01*
G75*
G02*
X58201500Y-63681000I75000J0D01*
G01*
X59651500Y-63681000D01*
G75*
G02*
X59726500Y-63756000I0J-75000D01*
G01*
X59726500Y-63906000D01*
G75*
G02*
X59651500Y-63981000I-75000J0D01*
G01*
X58201500Y-63981000D01*
G75*
G02*
X58126500Y-63906000I0J75000D01*
G01*
G37*
G36*
G01*
X58126500Y-63406000D02*
X58126500Y-63256000D01*
G75*
G02*
X58201500Y-63181000I75000J0D01*
G01*
X59651500Y-63181000D01*
G75*
G02*
X59726500Y-63256000I0J-75000D01*
G01*
X59726500Y-63406000D01*
G75*
G02*
X59651500Y-63481000I-75000J0D01*
G01*
X58201500Y-63481000D01*
G75*
G02*
X58126500Y-63406000I0J75000D01*
G01*
G37*
G36*
G01*
X58126500Y-62906000D02*
X58126500Y-62756000D01*
G75*
G02*
X58201500Y-62681000I75000J0D01*
G01*
X59651500Y-62681000D01*
G75*
G02*
X59726500Y-62756000I0J-75000D01*
G01*
X59726500Y-62906000D01*
G75*
G02*
X59651500Y-62981000I-75000J0D01*
G01*
X58201500Y-62981000D01*
G75*
G02*
X58126500Y-62906000I0J75000D01*
G01*
G37*
G36*
G01*
X58126500Y-62406000D02*
X58126500Y-62256000D01*
G75*
G02*
X58201500Y-62181000I75000J0D01*
G01*
X59651500Y-62181000D01*
G75*
G02*
X59726500Y-62256000I0J-75000D01*
G01*
X59726500Y-62406000D01*
G75*
G02*
X59651500Y-62481000I-75000J0D01*
G01*
X58201500Y-62481000D01*
G75*
G02*
X58126500Y-62406000I0J75000D01*
G01*
G37*
G36*
G01*
X58126500Y-61906000D02*
X58126500Y-61756000D01*
G75*
G02*
X58201500Y-61681000I75000J0D01*
G01*
X59651500Y-61681000D01*
G75*
G02*
X59726500Y-61756000I0J-75000D01*
G01*
X59726500Y-61906000D01*
G75*
G02*
X59651500Y-61981000I-75000J0D01*
G01*
X58201500Y-61981000D01*
G75*
G02*
X58126500Y-61906000I0J75000D01*
G01*
G37*
G36*
G01*
X58126500Y-61406000D02*
X58126500Y-61256000D01*
G75*
G02*
X58201500Y-61181000I75000J0D01*
G01*
X59651500Y-61181000D01*
G75*
G02*
X59726500Y-61256000I0J-75000D01*
G01*
X59726500Y-61406000D01*
G75*
G02*
X59651500Y-61481000I-75000J0D01*
G01*
X58201500Y-61481000D01*
G75*
G02*
X58126500Y-61406000I0J75000D01*
G01*
G37*
G36*
G01*
X58126500Y-60906000D02*
X58126500Y-60756000D01*
G75*
G02*
X58201500Y-60681000I75000J0D01*
G01*
X59651500Y-60681000D01*
G75*
G02*
X59726500Y-60756000I0J-75000D01*
G01*
X59726500Y-60906000D01*
G75*
G02*
X59651500Y-60981000I-75000J0D01*
G01*
X58201500Y-60981000D01*
G75*
G02*
X58126500Y-60906000I0J75000D01*
G01*
G37*
G36*
G01*
X58126500Y-60406000D02*
X58126500Y-60256000D01*
G75*
G02*
X58201500Y-60181000I75000J0D01*
G01*
X59651500Y-60181000D01*
G75*
G02*
X59726500Y-60256000I0J-75000D01*
G01*
X59726500Y-60406000D01*
G75*
G02*
X59651500Y-60481000I-75000J0D01*
G01*
X58201500Y-60481000D01*
G75*
G02*
X58126500Y-60406000I0J75000D01*
G01*
G37*
G36*
G01*
X58126500Y-59906000D02*
X58126500Y-59756000D01*
G75*
G02*
X58201500Y-59681000I75000J0D01*
G01*
X59651500Y-59681000D01*
G75*
G02*
X59726500Y-59756000I0J-75000D01*
G01*
X59726500Y-59906000D01*
G75*
G02*
X59651500Y-59981000I-75000J0D01*
G01*
X58201500Y-59981000D01*
G75*
G02*
X58126500Y-59906000I0J75000D01*
G01*
G37*
G36*
G01*
X58126500Y-59406000D02*
X58126500Y-59256000D01*
G75*
G02*
X58201500Y-59181000I75000J0D01*
G01*
X59651500Y-59181000D01*
G75*
G02*
X59726500Y-59256000I0J-75000D01*
G01*
X59726500Y-59406000D01*
G75*
G02*
X59651500Y-59481000I-75000J0D01*
G01*
X58201500Y-59481000D01*
G75*
G02*
X58126500Y-59406000I0J75000D01*
G01*
G37*
G36*
G01*
X58126500Y-58906000D02*
X58126500Y-58756000D01*
G75*
G02*
X58201500Y-58681000I75000J0D01*
G01*
X59651500Y-58681000D01*
G75*
G02*
X59726500Y-58756000I0J-75000D01*
G01*
X59726500Y-58906000D01*
G75*
G02*
X59651500Y-58981000I-75000J0D01*
G01*
X58201500Y-58981000D01*
G75*
G02*
X58126500Y-58906000I0J75000D01*
G01*
G37*
G36*
G01*
X58126500Y-58406000D02*
X58126500Y-58256000D01*
G75*
G02*
X58201500Y-58181000I75000J0D01*
G01*
X59651500Y-58181000D01*
G75*
G02*
X59726500Y-58256000I0J-75000D01*
G01*
X59726500Y-58406000D01*
G75*
G02*
X59651500Y-58481000I-75000J0D01*
G01*
X58201500Y-58481000D01*
G75*
G02*
X58126500Y-58406000I0J75000D01*
G01*
G37*
G36*
G01*
X58126500Y-57906000D02*
X58126500Y-57756000D01*
G75*
G02*
X58201500Y-57681000I75000J0D01*
G01*
X59651500Y-57681000D01*
G75*
G02*
X59726500Y-57756000I0J-75000D01*
G01*
X59726500Y-57906000D01*
G75*
G02*
X59651500Y-57981000I-75000J0D01*
G01*
X58201500Y-57981000D01*
G75*
G02*
X58126500Y-57906000I0J75000D01*
G01*
G37*
G36*
G01*
X58126500Y-57406000D02*
X58126500Y-57256000D01*
G75*
G02*
X58201500Y-57181000I75000J0D01*
G01*
X59651500Y-57181000D01*
G75*
G02*
X59726500Y-57256000I0J-75000D01*
G01*
X59726500Y-57406000D01*
G75*
G02*
X59651500Y-57481000I-75000J0D01*
G01*
X58201500Y-57481000D01*
G75*
G02*
X58126500Y-57406000I0J75000D01*
G01*
G37*
G36*
G01*
X58126500Y-56906000D02*
X58126500Y-56756000D01*
G75*
G02*
X58201500Y-56681000I75000J0D01*
G01*
X59651500Y-56681000D01*
G75*
G02*
X59726500Y-56756000I0J-75000D01*
G01*
X59726500Y-56906000D01*
G75*
G02*
X59651500Y-56981000I-75000J0D01*
G01*
X58201500Y-56981000D01*
G75*
G02*
X58126500Y-56906000I0J75000D01*
G01*
G37*
G36*
G01*
X58126500Y-56406000D02*
X58126500Y-56256000D01*
G75*
G02*
X58201500Y-56181000I75000J0D01*
G01*
X59651500Y-56181000D01*
G75*
G02*
X59726500Y-56256000I0J-75000D01*
G01*
X59726500Y-56406000D01*
G75*
G02*
X59651500Y-56481000I-75000J0D01*
G01*
X58201500Y-56481000D01*
G75*
G02*
X58126500Y-56406000I0J75000D01*
G01*
G37*
G36*
G01*
X58126500Y-55906000D02*
X58126500Y-55756000D01*
G75*
G02*
X58201500Y-55681000I75000J0D01*
G01*
X59651500Y-55681000D01*
G75*
G02*
X59726500Y-55756000I0J-75000D01*
G01*
X59726500Y-55906000D01*
G75*
G02*
X59651500Y-55981000I-75000J0D01*
G01*
X58201500Y-55981000D01*
G75*
G02*
X58126500Y-55906000I0J75000D01*
G01*
G37*
G36*
G01*
X58126500Y-55406000D02*
X58126500Y-55256000D01*
G75*
G02*
X58201500Y-55181000I75000J0D01*
G01*
X59651500Y-55181000D01*
G75*
G02*
X59726500Y-55256000I0J-75000D01*
G01*
X59726500Y-55406000D01*
G75*
G02*
X59651500Y-55481000I-75000J0D01*
G01*
X58201500Y-55481000D01*
G75*
G02*
X58126500Y-55406000I0J75000D01*
G01*
G37*
G36*
G01*
X58126500Y-54906000D02*
X58126500Y-54756000D01*
G75*
G02*
X58201500Y-54681000I75000J0D01*
G01*
X59651500Y-54681000D01*
G75*
G02*
X59726500Y-54756000I0J-75000D01*
G01*
X59726500Y-54906000D01*
G75*
G02*
X59651500Y-54981000I-75000J0D01*
G01*
X58201500Y-54981000D01*
G75*
G02*
X58126500Y-54906000I0J75000D01*
G01*
G37*
G36*
G01*
X58126500Y-54406000D02*
X58126500Y-54256000D01*
G75*
G02*
X58201500Y-54181000I75000J0D01*
G01*
X59651500Y-54181000D01*
G75*
G02*
X59726500Y-54256000I0J-75000D01*
G01*
X59726500Y-54406000D01*
G75*
G02*
X59651500Y-54481000I-75000J0D01*
G01*
X58201500Y-54481000D01*
G75*
G02*
X58126500Y-54406000I0J75000D01*
G01*
G37*
G36*
G01*
X58126500Y-53906000D02*
X58126500Y-53756000D01*
G75*
G02*
X58201500Y-53681000I75000J0D01*
G01*
X59651500Y-53681000D01*
G75*
G02*
X59726500Y-53756000I0J-75000D01*
G01*
X59726500Y-53906000D01*
G75*
G02*
X59651500Y-53981000I-75000J0D01*
G01*
X58201500Y-53981000D01*
G75*
G02*
X58126500Y-53906000I0J75000D01*
G01*
G37*
G36*
G01*
X58126500Y-53406000D02*
X58126500Y-53256000D01*
G75*
G02*
X58201500Y-53181000I75000J0D01*
G01*
X59651500Y-53181000D01*
G75*
G02*
X59726500Y-53256000I0J-75000D01*
G01*
X59726500Y-53406000D01*
G75*
G02*
X59651500Y-53481000I-75000J0D01*
G01*
X58201500Y-53481000D01*
G75*
G02*
X58126500Y-53406000I0J75000D01*
G01*
G37*
G36*
G01*
X58126500Y-52906000D02*
X58126500Y-52756000D01*
G75*
G02*
X58201500Y-52681000I75000J0D01*
G01*
X59651500Y-52681000D01*
G75*
G02*
X59726500Y-52756000I0J-75000D01*
G01*
X59726500Y-52906000D01*
G75*
G02*
X59651500Y-52981000I-75000J0D01*
G01*
X58201500Y-52981000D01*
G75*
G02*
X58126500Y-52906000I0J75000D01*
G01*
G37*
G36*
G01*
X58126500Y-52406000D02*
X58126500Y-52256000D01*
G75*
G02*
X58201500Y-52181000I75000J0D01*
G01*
X59651500Y-52181000D01*
G75*
G02*
X59726500Y-52256000I0J-75000D01*
G01*
X59726500Y-52406000D01*
G75*
G02*
X59651500Y-52481000I-75000J0D01*
G01*
X58201500Y-52481000D01*
G75*
G02*
X58126500Y-52406000I0J75000D01*
G01*
G37*
G36*
G01*
X58126500Y-51906000D02*
X58126500Y-51756000D01*
G75*
G02*
X58201500Y-51681000I75000J0D01*
G01*
X59651500Y-51681000D01*
G75*
G02*
X59726500Y-51756000I0J-75000D01*
G01*
X59726500Y-51906000D01*
G75*
G02*
X59651500Y-51981000I-75000J0D01*
G01*
X58201500Y-51981000D01*
G75*
G02*
X58126500Y-51906000I0J75000D01*
G01*
G37*
%TD*%
%TO.C,R15*%
G36*
G01*
X25340000Y-45025000D02*
X25340000Y-44655000D01*
G75*
G02*
X25475000Y-44520000I135000J0D01*
G01*
X25745000Y-44520000D01*
G75*
G02*
X25880000Y-44655000I0J-135000D01*
G01*
X25880000Y-45025000D01*
G75*
G02*
X25745000Y-45160000I-135000J0D01*
G01*
X25475000Y-45160000D01*
G75*
G02*
X25340000Y-45025000I0J135000D01*
G01*
G37*
G36*
G01*
X26360000Y-45025000D02*
X26360000Y-44655000D01*
G75*
G02*
X26495000Y-44520000I135000J0D01*
G01*
X26765000Y-44520000D01*
G75*
G02*
X26900000Y-44655000I0J-135000D01*
G01*
X26900000Y-45025000D01*
G75*
G02*
X26765000Y-45160000I-135000J0D01*
G01*
X26495000Y-45160000D01*
G75*
G02*
X26360000Y-45025000I0J135000D01*
G01*
G37*
%TD*%
%TO.C,J5*%
G36*
G01*
X59870000Y-75040000D02*
X60970000Y-75040000D01*
G75*
G02*
X61220000Y-75290000I0J-250000D01*
G01*
X61220000Y-76390000D01*
G75*
G02*
X60970000Y-76640000I-250000J0D01*
G01*
X59870000Y-76640000D01*
G75*
G02*
X59620000Y-76390000I0J250000D01*
G01*
X59620000Y-75290000D01*
G75*
G02*
X59870000Y-75040000I250000J0D01*
G01*
G37*
D10*
X60420000Y-79440000D03*
X60420000Y-83040000D03*
X60420000Y-86640000D03*
%TD*%
D11*
%TO.C,J7*%
X108895000Y-55080000D03*
X108895000Y-54430000D03*
X108895000Y-53780000D03*
X108895000Y-53130000D03*
X108895000Y-52480000D03*
D12*
X109120000Y-56980000D03*
X109120000Y-50580000D03*
D13*
X111570000Y-57205000D03*
X111570000Y-50355000D03*
D14*
X111570000Y-54930000D03*
X111570000Y-52630000D03*
%TD*%
D15*
%TO.C,J8*%
X108720000Y-74240000D03*
D16*
X108720000Y-69160000D03*
%TD*%
%TO.C,C26*%
G36*
G01*
X72330500Y-81007500D02*
X72830500Y-81007500D01*
G75*
G02*
X73055500Y-81232500I0J-225000D01*
G01*
X73055500Y-81682500D01*
G75*
G02*
X72830500Y-81907500I-225000J0D01*
G01*
X72330500Y-81907500D01*
G75*
G02*
X72105500Y-81682500I0J225000D01*
G01*
X72105500Y-81232500D01*
G75*
G02*
X72330500Y-81007500I225000J0D01*
G01*
G37*
G36*
G01*
X72330500Y-82557500D02*
X72830500Y-82557500D01*
G75*
G02*
X73055500Y-82782500I0J-225000D01*
G01*
X73055500Y-83232500D01*
G75*
G02*
X72830500Y-83457500I-225000J0D01*
G01*
X72330500Y-83457500D01*
G75*
G02*
X72105500Y-83232500I0J225000D01*
G01*
X72105500Y-82782500D01*
G75*
G02*
X72330500Y-82557500I225000J0D01*
G01*
G37*
%TD*%
%TO.C,C25*%
G36*
G01*
X70538000Y-78773000D02*
X70538000Y-79723000D01*
G75*
G02*
X70288000Y-79973000I-250000J0D01*
G01*
X69788000Y-79973000D01*
G75*
G02*
X69538000Y-79723000I0J250000D01*
G01*
X69538000Y-78773000D01*
G75*
G02*
X69788000Y-78523000I250000J0D01*
G01*
X70288000Y-78523000D01*
G75*
G02*
X70538000Y-78773000I0J-250000D01*
G01*
G37*
G36*
G01*
X68638000Y-78773000D02*
X68638000Y-79723000D01*
G75*
G02*
X68388000Y-79973000I-250000J0D01*
G01*
X67888000Y-79973000D01*
G75*
G02*
X67638000Y-79723000I0J250000D01*
G01*
X67638000Y-78773000D01*
G75*
G02*
X67888000Y-78523000I250000J0D01*
G01*
X68388000Y-78523000D01*
G75*
G02*
X68638000Y-78773000I0J-250000D01*
G01*
G37*
%TD*%
%TO.C,U6*%
G36*
G01*
X73015500Y-79876500D02*
X72815500Y-79876500D01*
G75*
G02*
X72715500Y-79776500I0J100000D01*
G01*
X72715500Y-79426500D01*
G75*
G02*
X72815500Y-79326500I100000J0D01*
G01*
X73015500Y-79326500D01*
G75*
G02*
X73115500Y-79426500I0J-100000D01*
G01*
X73115500Y-79776500D01*
G75*
G02*
X73015500Y-79876500I-100000J0D01*
G01*
G37*
G36*
G01*
X73615500Y-79876500D02*
X73415500Y-79876500D01*
G75*
G02*
X73315500Y-79776500I0J100000D01*
G01*
X73315500Y-79426500D01*
G75*
G02*
X73415500Y-79326500I100000J0D01*
G01*
X73615500Y-79326500D01*
G75*
G02*
X73715500Y-79426500I0J-100000D01*
G01*
X73715500Y-79776500D01*
G75*
G02*
X73615500Y-79876500I-100000J0D01*
G01*
G37*
G36*
G01*
X74315500Y-79476500D02*
X73965500Y-79476500D01*
G75*
G02*
X73865500Y-79376500I0J100000D01*
G01*
X73865500Y-79176500D01*
G75*
G02*
X73965500Y-79076500I100000J0D01*
G01*
X74315500Y-79076500D01*
G75*
G02*
X74415500Y-79176500I0J-100000D01*
G01*
X74415500Y-79376500D01*
G75*
G02*
X74315500Y-79476500I-100000J0D01*
G01*
G37*
G36*
G01*
X74315500Y-78876500D02*
X73965500Y-78876500D01*
G75*
G02*
X73865500Y-78776500I0J100000D01*
G01*
X73865500Y-78576500D01*
G75*
G02*
X73965500Y-78476500I100000J0D01*
G01*
X74315500Y-78476500D01*
G75*
G02*
X74415500Y-78576500I0J-100000D01*
G01*
X74415500Y-78776500D01*
G75*
G02*
X74315500Y-78876500I-100000J0D01*
G01*
G37*
G36*
G01*
X74315500Y-78276500D02*
X73965500Y-78276500D01*
G75*
G02*
X73865500Y-78176500I0J100000D01*
G01*
X73865500Y-77976500D01*
G75*
G02*
X73965500Y-77876500I100000J0D01*
G01*
X74315500Y-77876500D01*
G75*
G02*
X74415500Y-77976500I0J-100000D01*
G01*
X74415500Y-78176500D01*
G75*
G02*
X74315500Y-78276500I-100000J0D01*
G01*
G37*
G36*
G01*
X73615500Y-78026500D02*
X73415500Y-78026500D01*
G75*
G02*
X73315500Y-77926500I0J100000D01*
G01*
X73315500Y-77576500D01*
G75*
G02*
X73415500Y-77476500I100000J0D01*
G01*
X73615500Y-77476500D01*
G75*
G02*
X73715500Y-77576500I0J-100000D01*
G01*
X73715500Y-77926500D01*
G75*
G02*
X73615500Y-78026500I-100000J0D01*
G01*
G37*
G36*
G01*
X73015500Y-78026500D02*
X72815500Y-78026500D01*
G75*
G02*
X72715500Y-77926500I0J100000D01*
G01*
X72715500Y-77576500D01*
G75*
G02*
X72815500Y-77476500I100000J0D01*
G01*
X73015500Y-77476500D01*
G75*
G02*
X73115500Y-77576500I0J-100000D01*
G01*
X73115500Y-77926500D01*
G75*
G02*
X73015500Y-78026500I-100000J0D01*
G01*
G37*
G36*
G01*
X72465500Y-78276500D02*
X72115500Y-78276500D01*
G75*
G02*
X72015500Y-78176500I0J100000D01*
G01*
X72015500Y-77976500D01*
G75*
G02*
X72115500Y-77876500I100000J0D01*
G01*
X72465500Y-77876500D01*
G75*
G02*
X72565500Y-77976500I0J-100000D01*
G01*
X72565500Y-78176500D01*
G75*
G02*
X72465500Y-78276500I-100000J0D01*
G01*
G37*
G36*
G01*
X72465500Y-78876500D02*
X72115500Y-78876500D01*
G75*
G02*
X72015500Y-78776500I0J100000D01*
G01*
X72015500Y-78576500D01*
G75*
G02*
X72115500Y-78476500I100000J0D01*
G01*
X72465500Y-78476500D01*
G75*
G02*
X72565500Y-78576500I0J-100000D01*
G01*
X72565500Y-78776500D01*
G75*
G02*
X72465500Y-78876500I-100000J0D01*
G01*
G37*
G36*
G01*
X72465500Y-79476500D02*
X72115500Y-79476500D01*
G75*
G02*
X72015500Y-79376500I0J100000D01*
G01*
X72015500Y-79176500D01*
G75*
G02*
X72115500Y-79076500I100000J0D01*
G01*
X72465500Y-79076500D01*
G75*
G02*
X72565500Y-79176500I0J-100000D01*
G01*
X72565500Y-79376500D01*
G75*
G02*
X72465500Y-79476500I-100000J0D01*
G01*
G37*
%TD*%
%TO.C,J3*%
G36*
G01*
X77444500Y-94509500D02*
X77444500Y-95609500D01*
G75*
G02*
X77194500Y-95859500I-250000J0D01*
G01*
X76094500Y-95859500D01*
G75*
G02*
X75844500Y-95609500I0J250000D01*
G01*
X75844500Y-94509500D01*
G75*
G02*
X76094500Y-94259500I250000J0D01*
G01*
X77194500Y-94259500D01*
G75*
G02*
X77444500Y-94509500I0J-250000D01*
G01*
G37*
D10*
X73044500Y-95059500D03*
X69444500Y-95059500D03*
%TD*%
D17*
%TO.C,H4*%
X110620000Y-20640000D03*
D18*
X108370000Y-20640000D03*
X109029010Y-19049010D03*
X110620000Y-18390000D03*
X112210990Y-19049010D03*
X112870000Y-20640000D03*
X112210990Y-22230990D03*
X110620000Y-22890000D03*
X109029010Y-22230990D03*
%TD*%
%TO.C,J6*%
G36*
G01*
X82260000Y-57160000D02*
X82260000Y-56060000D01*
G75*
G02*
X82510000Y-55810000I250000J0D01*
G01*
X83610000Y-55810000D01*
G75*
G02*
X83860000Y-56060000I0J-250000D01*
G01*
X83860000Y-57160000D01*
G75*
G02*
X83610000Y-57410000I-250000J0D01*
G01*
X82510000Y-57410000D01*
G75*
G02*
X82260000Y-57160000I0J250000D01*
G01*
G37*
D10*
X86660000Y-56610000D03*
X90260000Y-56610000D03*
X93860000Y-56610000D03*
%TD*%
%TO.C,J2*%
G36*
G01*
X63220000Y-42190000D02*
X63220000Y-43290000D01*
G75*
G02*
X62970000Y-43540000I-250000J0D01*
G01*
X61870000Y-43540000D01*
G75*
G02*
X61620000Y-43290000I0J250000D01*
G01*
X61620000Y-42190000D01*
G75*
G02*
X61870000Y-41940000I250000J0D01*
G01*
X62970000Y-41940000D01*
G75*
G02*
X63220000Y-42190000I0J-250000D01*
G01*
G37*
X58820000Y-42740000D03*
%TD*%
D17*
%TO.C,H3*%
X18220000Y-20640000D03*
D18*
X15970000Y-20640000D03*
X16629010Y-19049010D03*
X18220000Y-18390000D03*
X19810990Y-19049010D03*
X20470000Y-20640000D03*
X19810990Y-22230990D03*
X18220000Y-22890000D03*
X16629010Y-22230990D03*
%TD*%
D17*
%TO.C,H2*%
X18220000Y-93040000D03*
D18*
X15970000Y-93040000D03*
X16629010Y-91449010D03*
X18220000Y-90790000D03*
X19810990Y-91449010D03*
X20470000Y-93040000D03*
X19810990Y-94630990D03*
X18220000Y-95290000D03*
X16629010Y-94630990D03*
%TD*%
D17*
%TO.C,H1*%
X110620000Y-93040000D03*
D18*
X108370000Y-93040000D03*
X109029010Y-91449010D03*
X110620000Y-90790000D03*
X112210990Y-91449010D03*
X112870000Y-93040000D03*
X112210990Y-94630990D03*
X110620000Y-95290000D03*
X109029010Y-94630990D03*
%TD*%
%TO.C,J4*%
G36*
G01*
X30645000Y-48218000D02*
X30645000Y-49318000D01*
G75*
G02*
X30395000Y-49568000I-250000J0D01*
G01*
X29295000Y-49568000D01*
G75*
G02*
X29045000Y-49318000I0J250000D01*
G01*
X29045000Y-48218000D01*
G75*
G02*
X29295000Y-47968000I250000J0D01*
G01*
X30395000Y-47968000D01*
G75*
G02*
X30645000Y-48218000I0J-250000D01*
G01*
G37*
D10*
X26245000Y-48768000D03*
%TD*%
%TO.C,C23*%
G36*
G01*
X81320000Y-65933500D02*
X81320000Y-66273500D01*
G75*
G02*
X81180000Y-66413500I-140000J0D01*
G01*
X80900000Y-66413500D01*
G75*
G02*
X80760000Y-66273500I0J140000D01*
G01*
X80760000Y-65933500D01*
G75*
G02*
X80900000Y-65793500I140000J0D01*
G01*
X81180000Y-65793500D01*
G75*
G02*
X81320000Y-65933500I0J-140000D01*
G01*
G37*
G36*
G01*
X80360000Y-65933500D02*
X80360000Y-66273500D01*
G75*
G02*
X80220000Y-66413500I-140000J0D01*
G01*
X79940000Y-66413500D01*
G75*
G02*
X79800000Y-66273500I0J140000D01*
G01*
X79800000Y-65933500D01*
G75*
G02*
X79940000Y-65793500I140000J0D01*
G01*
X80220000Y-65793500D01*
G75*
G02*
X80360000Y-65933500I0J-140000D01*
G01*
G37*
%TD*%
%TO.C,C21*%
G36*
G01*
X58290000Y-31220000D02*
X57950000Y-31220000D01*
G75*
G02*
X57810000Y-31080000I0J140000D01*
G01*
X57810000Y-30800000D01*
G75*
G02*
X57950000Y-30660000I140000J0D01*
G01*
X58290000Y-30660000D01*
G75*
G02*
X58430000Y-30800000I0J-140000D01*
G01*
X58430000Y-31080000D01*
G75*
G02*
X58290000Y-31220000I-140000J0D01*
G01*
G37*
G36*
G01*
X58290000Y-30260000D02*
X57950000Y-30260000D01*
G75*
G02*
X57810000Y-30120000I0J140000D01*
G01*
X57810000Y-29840000D01*
G75*
G02*
X57950000Y-29700000I140000J0D01*
G01*
X58290000Y-29700000D01*
G75*
G02*
X58430000Y-29840000I0J-140000D01*
G01*
X58430000Y-30120000D01*
G75*
G02*
X58290000Y-30260000I-140000J0D01*
G01*
G37*
%TD*%
%TO.C,C20*%
G36*
G01*
X53611500Y-33033000D02*
X53611500Y-33373000D01*
G75*
G02*
X53471500Y-33513000I-140000J0D01*
G01*
X53191500Y-33513000D01*
G75*
G02*
X53051500Y-33373000I0J140000D01*
G01*
X53051500Y-33033000D01*
G75*
G02*
X53191500Y-32893000I140000J0D01*
G01*
X53471500Y-32893000D01*
G75*
G02*
X53611500Y-33033000I0J-140000D01*
G01*
G37*
G36*
G01*
X52651500Y-33033000D02*
X52651500Y-33373000D01*
G75*
G02*
X52511500Y-33513000I-140000J0D01*
G01*
X52231500Y-33513000D01*
G75*
G02*
X52091500Y-33373000I0J140000D01*
G01*
X52091500Y-33033000D01*
G75*
G02*
X52231500Y-32893000I140000J0D01*
G01*
X52511500Y-32893000D01*
G75*
G02*
X52651500Y-33033000I0J-140000D01*
G01*
G37*
%TD*%
%TO.C,C19*%
G36*
G01*
X56590000Y-31220000D02*
X56250000Y-31220000D01*
G75*
G02*
X56110000Y-31080000I0J140000D01*
G01*
X56110000Y-30800000D01*
G75*
G02*
X56250000Y-30660000I140000J0D01*
G01*
X56590000Y-30660000D01*
G75*
G02*
X56730000Y-30800000I0J-140000D01*
G01*
X56730000Y-31080000D01*
G75*
G02*
X56590000Y-31220000I-140000J0D01*
G01*
G37*
G36*
G01*
X56590000Y-30260000D02*
X56250000Y-30260000D01*
G75*
G02*
X56110000Y-30120000I0J140000D01*
G01*
X56110000Y-29840000D01*
G75*
G02*
X56250000Y-29700000I140000J0D01*
G01*
X56590000Y-29700000D01*
G75*
G02*
X56730000Y-29840000I0J-140000D01*
G01*
X56730000Y-30120000D01*
G75*
G02*
X56590000Y-30260000I-140000J0D01*
G01*
G37*
%TD*%
%TO.C,C8*%
G36*
G01*
X77680000Y-50560000D02*
X77680000Y-50220000D01*
G75*
G02*
X77820000Y-50080000I140000J0D01*
G01*
X78100000Y-50080000D01*
G75*
G02*
X78240000Y-50220000I0J-140000D01*
G01*
X78240000Y-50560000D01*
G75*
G02*
X78100000Y-50700000I-140000J0D01*
G01*
X77820000Y-50700000D01*
G75*
G02*
X77680000Y-50560000I0J140000D01*
G01*
G37*
G36*
G01*
X78640000Y-50560000D02*
X78640000Y-50220000D01*
G75*
G02*
X78780000Y-50080000I140000J0D01*
G01*
X79060000Y-50080000D01*
G75*
G02*
X79200000Y-50220000I0J-140000D01*
G01*
X79200000Y-50560000D01*
G75*
G02*
X79060000Y-50700000I-140000J0D01*
G01*
X78780000Y-50700000D01*
G75*
G02*
X78640000Y-50560000I0J140000D01*
G01*
G37*
%TD*%
%TO.C,C7*%
G36*
G01*
X73660000Y-66010000D02*
X73660000Y-65670000D01*
G75*
G02*
X73800000Y-65530000I140000J0D01*
G01*
X74080000Y-65530000D01*
G75*
G02*
X74220000Y-65670000I0J-140000D01*
G01*
X74220000Y-66010000D01*
G75*
G02*
X74080000Y-66150000I-140000J0D01*
G01*
X73800000Y-66150000D01*
G75*
G02*
X73660000Y-66010000I0J140000D01*
G01*
G37*
G36*
G01*
X74620000Y-66010000D02*
X74620000Y-65670000D01*
G75*
G02*
X74760000Y-65530000I140000J0D01*
G01*
X75040000Y-65530000D01*
G75*
G02*
X75180000Y-65670000I0J-140000D01*
G01*
X75180000Y-66010000D01*
G75*
G02*
X75040000Y-66150000I-140000J0D01*
G01*
X74760000Y-66150000D01*
G75*
G02*
X74620000Y-66010000I0J140000D01*
G01*
G37*
%TD*%
%TO.C,C6*%
G36*
G01*
X56880000Y-54010000D02*
X56880000Y-54350000D01*
G75*
G02*
X56740000Y-54490000I-140000J0D01*
G01*
X56460000Y-54490000D01*
G75*
G02*
X56320000Y-54350000I0J140000D01*
G01*
X56320000Y-54010000D01*
G75*
G02*
X56460000Y-53870000I140000J0D01*
G01*
X56740000Y-53870000D01*
G75*
G02*
X56880000Y-54010000I0J-140000D01*
G01*
G37*
G36*
G01*
X55920000Y-54010000D02*
X55920000Y-54350000D01*
G75*
G02*
X55780000Y-54490000I-140000J0D01*
G01*
X55500000Y-54490000D01*
G75*
G02*
X55360000Y-54350000I0J140000D01*
G01*
X55360000Y-54010000D01*
G75*
G02*
X55500000Y-53870000I140000J0D01*
G01*
X55780000Y-53870000D01*
G75*
G02*
X55920000Y-54010000I0J-140000D01*
G01*
G37*
%TD*%
%TO.C,C5*%
G36*
G01*
X56820500Y-55375000D02*
X56820500Y-55715000D01*
G75*
G02*
X56680500Y-55855000I-140000J0D01*
G01*
X56400500Y-55855000D01*
G75*
G02*
X56260500Y-55715000I0J140000D01*
G01*
X56260500Y-55375000D01*
G75*
G02*
X56400500Y-55235000I140000J0D01*
G01*
X56680500Y-55235000D01*
G75*
G02*
X56820500Y-55375000I0J-140000D01*
G01*
G37*
G36*
G01*
X55860500Y-55375000D02*
X55860500Y-55715000D01*
G75*
G02*
X55720500Y-55855000I-140000J0D01*
G01*
X55440500Y-55855000D01*
G75*
G02*
X55300500Y-55715000I0J140000D01*
G01*
X55300500Y-55375000D01*
G75*
G02*
X55440500Y-55235000I140000J0D01*
G01*
X55720500Y-55235000D01*
G75*
G02*
X55860500Y-55375000I0J-140000D01*
G01*
G37*
%TD*%
%TO.C,C4*%
G36*
G01*
X60790000Y-48700000D02*
X60450000Y-48700000D01*
G75*
G02*
X60310000Y-48560000I0J140000D01*
G01*
X60310000Y-48280000D01*
G75*
G02*
X60450000Y-48140000I140000J0D01*
G01*
X60790000Y-48140000D01*
G75*
G02*
X60930000Y-48280000I0J-140000D01*
G01*
X60930000Y-48560000D01*
G75*
G02*
X60790000Y-48700000I-140000J0D01*
G01*
G37*
G36*
G01*
X60790000Y-47740000D02*
X60450000Y-47740000D01*
G75*
G02*
X60310000Y-47600000I0J140000D01*
G01*
X60310000Y-47320000D01*
G75*
G02*
X60450000Y-47180000I140000J0D01*
G01*
X60790000Y-47180000D01*
G75*
G02*
X60930000Y-47320000I0J-140000D01*
G01*
X60930000Y-47600000D01*
G75*
G02*
X60790000Y-47740000I-140000J0D01*
G01*
G37*
%TD*%
%TO.C,C3*%
G36*
G01*
X59480000Y-66970000D02*
X59480000Y-67310000D01*
G75*
G02*
X59340000Y-67450000I-140000J0D01*
G01*
X59060000Y-67450000D01*
G75*
G02*
X58920000Y-67310000I0J140000D01*
G01*
X58920000Y-66970000D01*
G75*
G02*
X59060000Y-66830000I140000J0D01*
G01*
X59340000Y-66830000D01*
G75*
G02*
X59480000Y-66970000I0J-140000D01*
G01*
G37*
G36*
G01*
X58520000Y-66970000D02*
X58520000Y-67310000D01*
G75*
G02*
X58380000Y-67450000I-140000J0D01*
G01*
X58100000Y-67450000D01*
G75*
G02*
X57960000Y-67310000I0J140000D01*
G01*
X57960000Y-66970000D01*
G75*
G02*
X58100000Y-66830000I140000J0D01*
G01*
X58380000Y-66830000D01*
G75*
G02*
X58520000Y-66970000I0J-140000D01*
G01*
G37*
%TD*%
%TO.C,C2*%
G36*
G01*
X57160000Y-60670000D02*
X57160000Y-61010000D01*
G75*
G02*
X57020000Y-61150000I-140000J0D01*
G01*
X56740000Y-61150000D01*
G75*
G02*
X56600000Y-61010000I0J140000D01*
G01*
X56600000Y-60670000D01*
G75*
G02*
X56740000Y-60530000I140000J0D01*
G01*
X57020000Y-60530000D01*
G75*
G02*
X57160000Y-60670000I0J-140000D01*
G01*
G37*
G36*
G01*
X56200000Y-60670000D02*
X56200000Y-61010000D01*
G75*
G02*
X56060000Y-61150000I-140000J0D01*
G01*
X55780000Y-61150000D01*
G75*
G02*
X55640000Y-61010000I0J140000D01*
G01*
X55640000Y-60670000D01*
G75*
G02*
X55780000Y-60530000I140000J0D01*
G01*
X56060000Y-60530000D01*
G75*
G02*
X56200000Y-60670000I0J-140000D01*
G01*
G37*
%TD*%
%TO.C,C1*%
G36*
G01*
X57720000Y-48765000D02*
X57720000Y-49715000D01*
G75*
G02*
X57470000Y-49965000I-250000J0D01*
G01*
X56970000Y-49965000D01*
G75*
G02*
X56720000Y-49715000I0J250000D01*
G01*
X56720000Y-48765000D01*
G75*
G02*
X56970000Y-48515000I250000J0D01*
G01*
X57470000Y-48515000D01*
G75*
G02*
X57720000Y-48765000I0J-250000D01*
G01*
G37*
G36*
G01*
X59620000Y-48765000D02*
X59620000Y-49715000D01*
G75*
G02*
X59370000Y-49965000I-250000J0D01*
G01*
X58870000Y-49965000D01*
G75*
G02*
X58620000Y-49715000I0J250000D01*
G01*
X58620000Y-48765000D01*
G75*
G02*
X58870000Y-48515000I250000J0D01*
G01*
X59370000Y-48515000D01*
G75*
G02*
X59620000Y-48765000I0J-250000D01*
G01*
G37*
%TD*%
%TO.C,C9*%
G36*
G01*
X56709000Y-64345500D02*
X57049000Y-64345500D01*
G75*
G02*
X57189000Y-64485500I0J-140000D01*
G01*
X57189000Y-64765500D01*
G75*
G02*
X57049000Y-64905500I-140000J0D01*
G01*
X56709000Y-64905500D01*
G75*
G02*
X56569000Y-64765500I0J140000D01*
G01*
X56569000Y-64485500D01*
G75*
G02*
X56709000Y-64345500I140000J0D01*
G01*
G37*
G36*
G01*
X56709000Y-63385500D02*
X57049000Y-63385500D01*
G75*
G02*
X57189000Y-63525500I0J-140000D01*
G01*
X57189000Y-63805500D01*
G75*
G02*
X57049000Y-63945500I-140000J0D01*
G01*
X56709000Y-63945500D01*
G75*
G02*
X56569000Y-63805500I0J140000D01*
G01*
X56569000Y-63525500D01*
G75*
G02*
X56709000Y-63385500I140000J0D01*
G01*
G37*
%TD*%
%TO.C,C10*%
G36*
G01*
X55650000Y-64340000D02*
X55990000Y-64340000D01*
G75*
G02*
X56130000Y-64480000I0J-140000D01*
G01*
X56130000Y-64760000D01*
G75*
G02*
X55990000Y-64900000I-140000J0D01*
G01*
X55650000Y-64900000D01*
G75*
G02*
X55510000Y-64760000I0J140000D01*
G01*
X55510000Y-64480000D01*
G75*
G02*
X55650000Y-64340000I140000J0D01*
G01*
G37*
G36*
G01*
X55650000Y-63380000D02*
X55990000Y-63380000D01*
G75*
G02*
X56130000Y-63520000I0J-140000D01*
G01*
X56130000Y-63800000D01*
G75*
G02*
X55990000Y-63940000I-140000J0D01*
G01*
X55650000Y-63940000D01*
G75*
G02*
X55510000Y-63800000I0J140000D01*
G01*
X55510000Y-63520000D01*
G75*
G02*
X55650000Y-63380000I140000J0D01*
G01*
G37*
%TD*%
%TO.C,C11*%
G36*
G01*
X72570000Y-67440000D02*
X73070000Y-67440000D01*
G75*
G02*
X73295000Y-67665000I0J-225000D01*
G01*
X73295000Y-68115000D01*
G75*
G02*
X73070000Y-68340000I-225000J0D01*
G01*
X72570000Y-68340000D01*
G75*
G02*
X72345000Y-68115000I0J225000D01*
G01*
X72345000Y-67665000D01*
G75*
G02*
X72570000Y-67440000I225000J0D01*
G01*
G37*
G36*
G01*
X72570000Y-68990000D02*
X73070000Y-68990000D01*
G75*
G02*
X73295000Y-69215000I0J-225000D01*
G01*
X73295000Y-69665000D01*
G75*
G02*
X73070000Y-69890000I-225000J0D01*
G01*
X72570000Y-69890000D01*
G75*
G02*
X72345000Y-69665000I0J225000D01*
G01*
X72345000Y-69215000D01*
G75*
G02*
X72570000Y-68990000I225000J0D01*
G01*
G37*
%TD*%
%TO.C,C12*%
G36*
G01*
X78455000Y-52210000D02*
X78455000Y-51710000D01*
G75*
G02*
X78680000Y-51485000I225000J0D01*
G01*
X79130000Y-51485000D01*
G75*
G02*
X79355000Y-51710000I0J-225000D01*
G01*
X79355000Y-52210000D01*
G75*
G02*
X79130000Y-52435000I-225000J0D01*
G01*
X78680000Y-52435000D01*
G75*
G02*
X78455000Y-52210000I0J225000D01*
G01*
G37*
G36*
G01*
X76905000Y-52210000D02*
X76905000Y-51710000D01*
G75*
G02*
X77130000Y-51485000I225000J0D01*
G01*
X77580000Y-51485000D01*
G75*
G02*
X77805000Y-51710000I0J-225000D01*
G01*
X77805000Y-52210000D01*
G75*
G02*
X77580000Y-52435000I-225000J0D01*
G01*
X77130000Y-52435000D01*
G75*
G02*
X76905000Y-52210000I0J225000D01*
G01*
G37*
%TD*%
%TO.C,C13*%
G36*
G01*
X49520000Y-53810000D02*
X49520000Y-53470000D01*
G75*
G02*
X49660000Y-53330000I140000J0D01*
G01*
X49940000Y-53330000D01*
G75*
G02*
X50080000Y-53470000I0J-140000D01*
G01*
X50080000Y-53810000D01*
G75*
G02*
X49940000Y-53950000I-140000J0D01*
G01*
X49660000Y-53950000D01*
G75*
G02*
X49520000Y-53810000I0J140000D01*
G01*
G37*
G36*
G01*
X48560000Y-53810000D02*
X48560000Y-53470000D01*
G75*
G02*
X48700000Y-53330000I140000J0D01*
G01*
X48980000Y-53330000D01*
G75*
G02*
X49120000Y-53470000I0J-140000D01*
G01*
X49120000Y-53810000D01*
G75*
G02*
X48980000Y-53950000I-140000J0D01*
G01*
X48700000Y-53950000D01*
G75*
G02*
X48560000Y-53810000I0J140000D01*
G01*
G37*
%TD*%
%TO.C,C14*%
G36*
G01*
X50280000Y-59970000D02*
X50280000Y-60310000D01*
G75*
G02*
X50140000Y-60450000I-140000J0D01*
G01*
X49860000Y-60450000D01*
G75*
G02*
X49720000Y-60310000I0J140000D01*
G01*
X49720000Y-59970000D01*
G75*
G02*
X49860000Y-59830000I140000J0D01*
G01*
X50140000Y-59830000D01*
G75*
G02*
X50280000Y-59970000I0J-140000D01*
G01*
G37*
G36*
G01*
X49320000Y-59970000D02*
X49320000Y-60310000D01*
G75*
G02*
X49180000Y-60450000I-140000J0D01*
G01*
X48900000Y-60450000D01*
G75*
G02*
X48760000Y-60310000I0J140000D01*
G01*
X48760000Y-59970000D01*
G75*
G02*
X48900000Y-59830000I140000J0D01*
G01*
X49180000Y-59830000D01*
G75*
G02*
X49320000Y-59970000I0J-140000D01*
G01*
G37*
%TD*%
%TO.C,C15*%
G36*
G01*
X95320000Y-82115000D02*
X95320000Y-81165000D01*
G75*
G02*
X95570000Y-80915000I250000J0D01*
G01*
X96070000Y-80915000D01*
G75*
G02*
X96320000Y-81165000I0J-250000D01*
G01*
X96320000Y-82115000D01*
G75*
G02*
X96070000Y-82365000I-250000J0D01*
G01*
X95570000Y-82365000D01*
G75*
G02*
X95320000Y-82115000I0J250000D01*
G01*
G37*
G36*
G01*
X97220000Y-82115000D02*
X97220000Y-81165000D01*
G75*
G02*
X97470000Y-80915000I250000J0D01*
G01*
X97970000Y-80915000D01*
G75*
G02*
X98220000Y-81165000I0J-250000D01*
G01*
X98220000Y-82115000D01*
G75*
G02*
X97970000Y-82365000I-250000J0D01*
G01*
X97470000Y-82365000D01*
G75*
G02*
X97220000Y-82115000I0J250000D01*
G01*
G37*
%TD*%
%TO.C,C16*%
G36*
G01*
X82145000Y-74440000D02*
X83095000Y-74440000D01*
G75*
G02*
X83345000Y-74690000I0J-250000D01*
G01*
X83345000Y-75190000D01*
G75*
G02*
X83095000Y-75440000I-250000J0D01*
G01*
X82145000Y-75440000D01*
G75*
G02*
X81895000Y-75190000I0J250000D01*
G01*
X81895000Y-74690000D01*
G75*
G02*
X82145000Y-74440000I250000J0D01*
G01*
G37*
G36*
G01*
X82145000Y-72540000D02*
X83095000Y-72540000D01*
G75*
G02*
X83345000Y-72790000I0J-250000D01*
G01*
X83345000Y-73290000D01*
G75*
G02*
X83095000Y-73540000I-250000J0D01*
G01*
X82145000Y-73540000D01*
G75*
G02*
X81895000Y-73290000I0J250000D01*
G01*
X81895000Y-72790000D01*
G75*
G02*
X82145000Y-72540000I250000J0D01*
G01*
G37*
%TD*%
%TO.C,C17*%
G36*
G01*
X97440000Y-72205000D02*
X97440000Y-71255000D01*
G75*
G02*
X97690000Y-71005000I250000J0D01*
G01*
X98190000Y-71005000D01*
G75*
G02*
X98440000Y-71255000I0J-250000D01*
G01*
X98440000Y-72205000D01*
G75*
G02*
X98190000Y-72455000I-250000J0D01*
G01*
X97690000Y-72455000D01*
G75*
G02*
X97440000Y-72205000I0J250000D01*
G01*
G37*
G36*
G01*
X95540000Y-72205000D02*
X95540000Y-71255000D01*
G75*
G02*
X95790000Y-71005000I250000J0D01*
G01*
X96290000Y-71005000D01*
G75*
G02*
X96540000Y-71255000I0J-250000D01*
G01*
X96540000Y-72205000D01*
G75*
G02*
X96290000Y-72455000I-250000J0D01*
G01*
X95790000Y-72455000D01*
G75*
G02*
X95540000Y-72205000I0J250000D01*
G01*
G37*
%TD*%
%TO.C,C18*%
G36*
G01*
X81945000Y-82290000D02*
X82895000Y-82290000D01*
G75*
G02*
X83145000Y-82540000I0J-250000D01*
G01*
X83145000Y-83040000D01*
G75*
G02*
X82895000Y-83290000I-250000J0D01*
G01*
X81945000Y-83290000D01*
G75*
G02*
X81695000Y-83040000I0J250000D01*
G01*
X81695000Y-82540000D01*
G75*
G02*
X81945000Y-82290000I250000J0D01*
G01*
G37*
G36*
G01*
X81945000Y-84190000D02*
X82895000Y-84190000D01*
G75*
G02*
X83145000Y-84440000I0J-250000D01*
G01*
X83145000Y-84940000D01*
G75*
G02*
X82895000Y-85190000I-250000J0D01*
G01*
X81945000Y-85190000D01*
G75*
G02*
X81695000Y-84940000I0J250000D01*
G01*
X81695000Y-84440000D01*
G75*
G02*
X81945000Y-84190000I250000J0D01*
G01*
G37*
%TD*%
%TO.C,C22*%
G36*
G01*
X56070000Y-39340000D02*
X56570000Y-39340000D01*
G75*
G02*
X56795000Y-39565000I0J-225000D01*
G01*
X56795000Y-40015000D01*
G75*
G02*
X56570000Y-40240000I-225000J0D01*
G01*
X56070000Y-40240000D01*
G75*
G02*
X55845000Y-40015000I0J225000D01*
G01*
X55845000Y-39565000D01*
G75*
G02*
X56070000Y-39340000I225000J0D01*
G01*
G37*
G36*
G01*
X56070000Y-37790000D02*
X56570000Y-37790000D01*
G75*
G02*
X56795000Y-38015000I0J-225000D01*
G01*
X56795000Y-38465000D01*
G75*
G02*
X56570000Y-38690000I-225000J0D01*
G01*
X56070000Y-38690000D01*
G75*
G02*
X55845000Y-38465000I0J225000D01*
G01*
X55845000Y-38015000D01*
G75*
G02*
X56070000Y-37790000I225000J0D01*
G01*
G37*
%TD*%
%TO.C,C27*%
G36*
G01*
X54490000Y-80500000D02*
X54490000Y-80160000D01*
G75*
G02*
X54630000Y-80020000I140000J0D01*
G01*
X54910000Y-80020000D01*
G75*
G02*
X55050000Y-80160000I0J-140000D01*
G01*
X55050000Y-80500000D01*
G75*
G02*
X54910000Y-80640000I-140000J0D01*
G01*
X54630000Y-80640000D01*
G75*
G02*
X54490000Y-80500000I0J140000D01*
G01*
G37*
G36*
G01*
X53530000Y-80500000D02*
X53530000Y-80160000D01*
G75*
G02*
X53670000Y-80020000I140000J0D01*
G01*
X53950000Y-80020000D01*
G75*
G02*
X54090000Y-80160000I0J-140000D01*
G01*
X54090000Y-80500000D01*
G75*
G02*
X53950000Y-80640000I-140000J0D01*
G01*
X53670000Y-80640000D01*
G75*
G02*
X53530000Y-80500000I0J140000D01*
G01*
G37*
%TD*%
%TO.C,C28*%
G36*
G01*
X48650000Y-85560000D02*
X48990000Y-85560000D01*
G75*
G02*
X49130000Y-85700000I0J-140000D01*
G01*
X49130000Y-85980000D01*
G75*
G02*
X48990000Y-86120000I-140000J0D01*
G01*
X48650000Y-86120000D01*
G75*
G02*
X48510000Y-85980000I0J140000D01*
G01*
X48510000Y-85700000D01*
G75*
G02*
X48650000Y-85560000I140000J0D01*
G01*
G37*
G36*
G01*
X48650000Y-86520000D02*
X48990000Y-86520000D01*
G75*
G02*
X49130000Y-86660000I0J-140000D01*
G01*
X49130000Y-86940000D01*
G75*
G02*
X48990000Y-87080000I-140000J0D01*
G01*
X48650000Y-87080000D01*
G75*
G02*
X48510000Y-86940000I0J140000D01*
G01*
X48510000Y-86660000D01*
G75*
G02*
X48650000Y-86520000I140000J0D01*
G01*
G37*
%TD*%
%TO.C,C29*%
G36*
G01*
X44123000Y-83451500D02*
X44123000Y-83791500D01*
G75*
G02*
X43983000Y-83931500I-140000J0D01*
G01*
X43703000Y-83931500D01*
G75*
G02*
X43563000Y-83791500I0J140000D01*
G01*
X43563000Y-83451500D01*
G75*
G02*
X43703000Y-83311500I140000J0D01*
G01*
X43983000Y-83311500D01*
G75*
G02*
X44123000Y-83451500I0J-140000D01*
G01*
G37*
G36*
G01*
X45083000Y-83451500D02*
X45083000Y-83791500D01*
G75*
G02*
X44943000Y-83931500I-140000J0D01*
G01*
X44663000Y-83931500D01*
G75*
G02*
X44523000Y-83791500I0J140000D01*
G01*
X44523000Y-83451500D01*
G75*
G02*
X44663000Y-83311500I140000J0D01*
G01*
X44943000Y-83311500D01*
G75*
G02*
X45083000Y-83451500I0J-140000D01*
G01*
G37*
%TD*%
%TO.C,C30*%
G36*
G01*
X45083000Y-82372000D02*
X45083000Y-82712000D01*
G75*
G02*
X44943000Y-82852000I-140000J0D01*
G01*
X44663000Y-82852000D01*
G75*
G02*
X44523000Y-82712000I0J140000D01*
G01*
X44523000Y-82372000D01*
G75*
G02*
X44663000Y-82232000I140000J0D01*
G01*
X44943000Y-82232000D01*
G75*
G02*
X45083000Y-82372000I0J-140000D01*
G01*
G37*
G36*
G01*
X44123000Y-82372000D02*
X44123000Y-82712000D01*
G75*
G02*
X43983000Y-82852000I-140000J0D01*
G01*
X43703000Y-82852000D01*
G75*
G02*
X43563000Y-82712000I0J140000D01*
G01*
X43563000Y-82372000D01*
G75*
G02*
X43703000Y-82232000I140000J0D01*
G01*
X43983000Y-82232000D01*
G75*
G02*
X44123000Y-82372000I0J-140000D01*
G01*
G37*
%TD*%
%TO.C,C31*%
G36*
G01*
X44123000Y-79470000D02*
X44123000Y-79810000D01*
G75*
G02*
X43983000Y-79950000I-140000J0D01*
G01*
X43703000Y-79950000D01*
G75*
G02*
X43563000Y-79810000I0J140000D01*
G01*
X43563000Y-79470000D01*
G75*
G02*
X43703000Y-79330000I140000J0D01*
G01*
X43983000Y-79330000D01*
G75*
G02*
X44123000Y-79470000I0J-140000D01*
G01*
G37*
G36*
G01*
X45083000Y-79470000D02*
X45083000Y-79810000D01*
G75*
G02*
X44943000Y-79950000I-140000J0D01*
G01*
X44663000Y-79950000D01*
G75*
G02*
X44523000Y-79810000I0J140000D01*
G01*
X44523000Y-79470000D01*
G75*
G02*
X44663000Y-79330000I140000J0D01*
G01*
X44943000Y-79330000D01*
G75*
G02*
X45083000Y-79470000I0J-140000D01*
G01*
G37*
%TD*%
%TO.C,C32*%
G36*
G01*
X48747500Y-76769500D02*
X48407500Y-76769500D01*
G75*
G02*
X48267500Y-76629500I0J140000D01*
G01*
X48267500Y-76349500D01*
G75*
G02*
X48407500Y-76209500I140000J0D01*
G01*
X48747500Y-76209500D01*
G75*
G02*
X48887500Y-76349500I0J-140000D01*
G01*
X48887500Y-76629500D01*
G75*
G02*
X48747500Y-76769500I-140000J0D01*
G01*
G37*
G36*
G01*
X48747500Y-75809500D02*
X48407500Y-75809500D01*
G75*
G02*
X48267500Y-75669500I0J140000D01*
G01*
X48267500Y-75389500D01*
G75*
G02*
X48407500Y-75249500I140000J0D01*
G01*
X48747500Y-75249500D01*
G75*
G02*
X48887500Y-75389500I0J-140000D01*
G01*
X48887500Y-75669500D01*
G75*
G02*
X48747500Y-75809500I-140000J0D01*
G01*
G37*
%TD*%
%TO.C,C33*%
G36*
G01*
X52710000Y-79410000D02*
X52370000Y-79410000D01*
G75*
G02*
X52230000Y-79270000I0J140000D01*
G01*
X52230000Y-78990000D01*
G75*
G02*
X52370000Y-78850000I140000J0D01*
G01*
X52710000Y-78850000D01*
G75*
G02*
X52850000Y-78990000I0J-140000D01*
G01*
X52850000Y-79270000D01*
G75*
G02*
X52710000Y-79410000I-140000J0D01*
G01*
G37*
G36*
G01*
X52710000Y-78450000D02*
X52370000Y-78450000D01*
G75*
G02*
X52230000Y-78310000I0J140000D01*
G01*
X52230000Y-78030000D01*
G75*
G02*
X52370000Y-77890000I140000J0D01*
G01*
X52710000Y-77890000D01*
G75*
G02*
X52850000Y-78030000I0J-140000D01*
G01*
X52850000Y-78310000D01*
G75*
G02*
X52710000Y-78450000I-140000J0D01*
G01*
G37*
%TD*%
%TO.C,C34*%
G36*
G01*
X51900000Y-73098000D02*
X52240000Y-73098000D01*
G75*
G02*
X52380000Y-73238000I0J-140000D01*
G01*
X52380000Y-73518000D01*
G75*
G02*
X52240000Y-73658000I-140000J0D01*
G01*
X51900000Y-73658000D01*
G75*
G02*
X51760000Y-73518000I0J140000D01*
G01*
X51760000Y-73238000D01*
G75*
G02*
X51900000Y-73098000I140000J0D01*
G01*
G37*
G36*
G01*
X51900000Y-72138000D02*
X52240000Y-72138000D01*
G75*
G02*
X52380000Y-72278000I0J-140000D01*
G01*
X52380000Y-72558000D01*
G75*
G02*
X52240000Y-72698000I-140000J0D01*
G01*
X51900000Y-72698000D01*
G75*
G02*
X51760000Y-72558000I0J140000D01*
G01*
X51760000Y-72278000D01*
G75*
G02*
X51900000Y-72138000I140000J0D01*
G01*
G37*
%TD*%
%TO.C,C35*%
G36*
G01*
X45382000Y-73404000D02*
X45042000Y-73404000D01*
G75*
G02*
X44902000Y-73264000I0J140000D01*
G01*
X44902000Y-72984000D01*
G75*
G02*
X45042000Y-72844000I140000J0D01*
G01*
X45382000Y-72844000D01*
G75*
G02*
X45522000Y-72984000I0J-140000D01*
G01*
X45522000Y-73264000D01*
G75*
G02*
X45382000Y-73404000I-140000J0D01*
G01*
G37*
G36*
G01*
X45382000Y-72444000D02*
X45042000Y-72444000D01*
G75*
G02*
X44902000Y-72304000I0J140000D01*
G01*
X44902000Y-72024000D01*
G75*
G02*
X45042000Y-71884000I140000J0D01*
G01*
X45382000Y-71884000D01*
G75*
G02*
X45522000Y-72024000I0J-140000D01*
G01*
X45522000Y-72304000D01*
G75*
G02*
X45382000Y-72444000I-140000J0D01*
G01*
G37*
%TD*%
%TO.C,C36*%
G36*
G01*
X38250000Y-87440000D02*
X38590000Y-87440000D01*
G75*
G02*
X38730000Y-87580000I0J-140000D01*
G01*
X38730000Y-87860000D01*
G75*
G02*
X38590000Y-88000000I-140000J0D01*
G01*
X38250000Y-88000000D01*
G75*
G02*
X38110000Y-87860000I0J140000D01*
G01*
X38110000Y-87580000D01*
G75*
G02*
X38250000Y-87440000I140000J0D01*
G01*
G37*
G36*
G01*
X38250000Y-86480000D02*
X38590000Y-86480000D01*
G75*
G02*
X38730000Y-86620000I0J-140000D01*
G01*
X38730000Y-86900000D01*
G75*
G02*
X38590000Y-87040000I-140000J0D01*
G01*
X38250000Y-87040000D01*
G75*
G02*
X38110000Y-86900000I0J140000D01*
G01*
X38110000Y-86620000D01*
G75*
G02*
X38250000Y-86480000I140000J0D01*
G01*
G37*
%TD*%
%TO.C,C37*%
G36*
G01*
X39581000Y-86453500D02*
X39921000Y-86453500D01*
G75*
G02*
X40061000Y-86593500I0J-140000D01*
G01*
X40061000Y-86873500D01*
G75*
G02*
X39921000Y-87013500I-140000J0D01*
G01*
X39581000Y-87013500D01*
G75*
G02*
X39441000Y-86873500I0J140000D01*
G01*
X39441000Y-86593500D01*
G75*
G02*
X39581000Y-86453500I140000J0D01*
G01*
G37*
G36*
G01*
X39581000Y-87413500D02*
X39921000Y-87413500D01*
G75*
G02*
X40061000Y-87553500I0J-140000D01*
G01*
X40061000Y-87833500D01*
G75*
G02*
X39921000Y-87973500I-140000J0D01*
G01*
X39581000Y-87973500D01*
G75*
G02*
X39441000Y-87833500I0J140000D01*
G01*
X39441000Y-87553500D01*
G75*
G02*
X39581000Y-87413500I140000J0D01*
G01*
G37*
%TD*%
%TO.C,C38*%
G36*
G01*
X32502500Y-86190000D02*
X32502500Y-86530000D01*
G75*
G02*
X32362500Y-86670000I-140000J0D01*
G01*
X32082500Y-86670000D01*
G75*
G02*
X31942500Y-86530000I0J140000D01*
G01*
X31942500Y-86190000D01*
G75*
G02*
X32082500Y-86050000I140000J0D01*
G01*
X32362500Y-86050000D01*
G75*
G02*
X32502500Y-86190000I0J-140000D01*
G01*
G37*
G36*
G01*
X33462500Y-86190000D02*
X33462500Y-86530000D01*
G75*
G02*
X33322500Y-86670000I-140000J0D01*
G01*
X33042500Y-86670000D01*
G75*
G02*
X32902500Y-86530000I0J140000D01*
G01*
X32902500Y-86190000D01*
G75*
G02*
X33042500Y-86050000I140000J0D01*
G01*
X33322500Y-86050000D01*
G75*
G02*
X33462500Y-86190000I0J-140000D01*
G01*
G37*
%TD*%
%TO.C,C39*%
G36*
G01*
X33434500Y-84666000D02*
X33434500Y-85006000D01*
G75*
G02*
X33294500Y-85146000I-140000J0D01*
G01*
X33014500Y-85146000D01*
G75*
G02*
X32874500Y-85006000I0J140000D01*
G01*
X32874500Y-84666000D01*
G75*
G02*
X33014500Y-84526000I140000J0D01*
G01*
X33294500Y-84526000D01*
G75*
G02*
X33434500Y-84666000I0J-140000D01*
G01*
G37*
G36*
G01*
X32474500Y-84666000D02*
X32474500Y-85006000D01*
G75*
G02*
X32334500Y-85146000I-140000J0D01*
G01*
X32054500Y-85146000D01*
G75*
G02*
X31914500Y-85006000I0J140000D01*
G01*
X31914500Y-84666000D01*
G75*
G02*
X32054500Y-84526000I140000J0D01*
G01*
X32334500Y-84526000D01*
G75*
G02*
X32474500Y-84666000I0J-140000D01*
G01*
G37*
%TD*%
%TO.C,C40*%
G36*
G01*
X33399000Y-83332500D02*
X33399000Y-83672500D01*
G75*
G02*
X33259000Y-83812500I-140000J0D01*
G01*
X32979000Y-83812500D01*
G75*
G02*
X32839000Y-83672500I0J140000D01*
G01*
X32839000Y-83332500D01*
G75*
G02*
X32979000Y-83192500I140000J0D01*
G01*
X33259000Y-83192500D01*
G75*
G02*
X33399000Y-83332500I0J-140000D01*
G01*
G37*
G36*
G01*
X32439000Y-83332500D02*
X32439000Y-83672500D01*
G75*
G02*
X32299000Y-83812500I-140000J0D01*
G01*
X32019000Y-83812500D01*
G75*
G02*
X31879000Y-83672500I0J140000D01*
G01*
X31879000Y-83332500D01*
G75*
G02*
X32019000Y-83192500I140000J0D01*
G01*
X32299000Y-83192500D01*
G75*
G02*
X32439000Y-83332500I0J-140000D01*
G01*
G37*
%TD*%
%TO.C,C41*%
G36*
G01*
X33380500Y-82329500D02*
X33040500Y-82329500D01*
G75*
G02*
X32900500Y-82189500I0J140000D01*
G01*
X32900500Y-81909500D01*
G75*
G02*
X33040500Y-81769500I140000J0D01*
G01*
X33380500Y-81769500D01*
G75*
G02*
X33520500Y-81909500I0J-140000D01*
G01*
X33520500Y-82189500D01*
G75*
G02*
X33380500Y-82329500I-140000J0D01*
G01*
G37*
G36*
G01*
X33380500Y-81369500D02*
X33040500Y-81369500D01*
G75*
G02*
X32900500Y-81229500I0J140000D01*
G01*
X32900500Y-80949500D01*
G75*
G02*
X33040500Y-80809500I140000J0D01*
G01*
X33380500Y-80809500D01*
G75*
G02*
X33520500Y-80949500I0J-140000D01*
G01*
X33520500Y-81229500D01*
G75*
G02*
X33380500Y-81369500I-140000J0D01*
G01*
G37*
%TD*%
%TO.C,C42*%
G36*
G01*
X30142000Y-81334000D02*
X29802000Y-81334000D01*
G75*
G02*
X29662000Y-81194000I0J140000D01*
G01*
X29662000Y-80914000D01*
G75*
G02*
X29802000Y-80774000I140000J0D01*
G01*
X30142000Y-80774000D01*
G75*
G02*
X30282000Y-80914000I0J-140000D01*
G01*
X30282000Y-81194000D01*
G75*
G02*
X30142000Y-81334000I-140000J0D01*
G01*
G37*
G36*
G01*
X30142000Y-82294000D02*
X29802000Y-82294000D01*
G75*
G02*
X29662000Y-82154000I0J140000D01*
G01*
X29662000Y-81874000D01*
G75*
G02*
X29802000Y-81734000I140000J0D01*
G01*
X30142000Y-81734000D01*
G75*
G02*
X30282000Y-81874000I0J-140000D01*
G01*
X30282000Y-82154000D01*
G75*
G02*
X30142000Y-82294000I-140000J0D01*
G01*
G37*
%TD*%
%TO.C,C43*%
G36*
G01*
X26373000Y-79821500D02*
X26713000Y-79821500D01*
G75*
G02*
X26853000Y-79961500I0J-140000D01*
G01*
X26853000Y-80241500D01*
G75*
G02*
X26713000Y-80381500I-140000J0D01*
G01*
X26373000Y-80381500D01*
G75*
G02*
X26233000Y-80241500I0J140000D01*
G01*
X26233000Y-79961500D01*
G75*
G02*
X26373000Y-79821500I140000J0D01*
G01*
G37*
G36*
G01*
X26373000Y-80781500D02*
X26713000Y-80781500D01*
G75*
G02*
X26853000Y-80921500I0J-140000D01*
G01*
X26853000Y-81201500D01*
G75*
G02*
X26713000Y-81341500I-140000J0D01*
G01*
X26373000Y-81341500D01*
G75*
G02*
X26233000Y-81201500I0J140000D01*
G01*
X26233000Y-80921500D01*
G75*
G02*
X26373000Y-80781500I140000J0D01*
G01*
G37*
%TD*%
%TO.C,C44*%
G36*
G01*
X25155500Y-81168000D02*
X25155500Y-80828000D01*
G75*
G02*
X25295500Y-80688000I140000J0D01*
G01*
X25575500Y-80688000D01*
G75*
G02*
X25715500Y-80828000I0J-140000D01*
G01*
X25715500Y-81168000D01*
G75*
G02*
X25575500Y-81308000I-140000J0D01*
G01*
X25295500Y-81308000D01*
G75*
G02*
X25155500Y-81168000I0J140000D01*
G01*
G37*
G36*
G01*
X24195500Y-81168000D02*
X24195500Y-80828000D01*
G75*
G02*
X24335500Y-80688000I140000J0D01*
G01*
X24615500Y-80688000D01*
G75*
G02*
X24755500Y-80828000I0J-140000D01*
G01*
X24755500Y-81168000D01*
G75*
G02*
X24615500Y-81308000I-140000J0D01*
G01*
X24335500Y-81308000D01*
G75*
G02*
X24195500Y-81168000I0J140000D01*
G01*
G37*
%TD*%
%TO.C,C45*%
G36*
G01*
X35580500Y-44870500D02*
X35920500Y-44870500D01*
G75*
G02*
X36060500Y-45010500I0J-140000D01*
G01*
X36060500Y-45290500D01*
G75*
G02*
X35920500Y-45430500I-140000J0D01*
G01*
X35580500Y-45430500D01*
G75*
G02*
X35440500Y-45290500I0J140000D01*
G01*
X35440500Y-45010500D01*
G75*
G02*
X35580500Y-44870500I140000J0D01*
G01*
G37*
G36*
G01*
X35580500Y-43910500D02*
X35920500Y-43910500D01*
G75*
G02*
X36060500Y-44050500I0J-140000D01*
G01*
X36060500Y-44330500D01*
G75*
G02*
X35920500Y-44470500I-140000J0D01*
G01*
X35580500Y-44470500D01*
G75*
G02*
X35440500Y-44330500I0J140000D01*
G01*
X35440500Y-44050500D01*
G75*
G02*
X35580500Y-43910500I140000J0D01*
G01*
G37*
%TD*%
%TO.C,C46*%
G36*
G01*
X33485000Y-43944000D02*
X33825000Y-43944000D01*
G75*
G02*
X33965000Y-44084000I0J-140000D01*
G01*
X33965000Y-44364000D01*
G75*
G02*
X33825000Y-44504000I-140000J0D01*
G01*
X33485000Y-44504000D01*
G75*
G02*
X33345000Y-44364000I0J140000D01*
G01*
X33345000Y-44084000D01*
G75*
G02*
X33485000Y-43944000I140000J0D01*
G01*
G37*
G36*
G01*
X33485000Y-44904000D02*
X33825000Y-44904000D01*
G75*
G02*
X33965000Y-45044000I0J-140000D01*
G01*
X33965000Y-45324000D01*
G75*
G02*
X33825000Y-45464000I-140000J0D01*
G01*
X33485000Y-45464000D01*
G75*
G02*
X33345000Y-45324000I0J140000D01*
G01*
X33345000Y-45044000D01*
G75*
G02*
X33485000Y-44904000I140000J0D01*
G01*
G37*
%TD*%
%TO.C,C47*%
G36*
G01*
X35790000Y-27140000D02*
X35450000Y-27140000D01*
G75*
G02*
X35310000Y-27000000I0J140000D01*
G01*
X35310000Y-26720000D01*
G75*
G02*
X35450000Y-26580000I140000J0D01*
G01*
X35790000Y-26580000D01*
G75*
G02*
X35930000Y-26720000I0J-140000D01*
G01*
X35930000Y-27000000D01*
G75*
G02*
X35790000Y-27140000I-140000J0D01*
G01*
G37*
G36*
G01*
X35790000Y-28100000D02*
X35450000Y-28100000D01*
G75*
G02*
X35310000Y-27960000I0J140000D01*
G01*
X35310000Y-27680000D01*
G75*
G02*
X35450000Y-27540000I140000J0D01*
G01*
X35790000Y-27540000D01*
G75*
G02*
X35930000Y-27680000I0J-140000D01*
G01*
X35930000Y-27960000D01*
G75*
G02*
X35790000Y-28100000I-140000J0D01*
G01*
G37*
%TD*%
%TO.C,C48*%
G36*
G01*
X34250000Y-26660000D02*
X34590000Y-26660000D01*
G75*
G02*
X34730000Y-26800000I0J-140000D01*
G01*
X34730000Y-27080000D01*
G75*
G02*
X34590000Y-27220000I-140000J0D01*
G01*
X34250000Y-27220000D01*
G75*
G02*
X34110000Y-27080000I0J140000D01*
G01*
X34110000Y-26800000D01*
G75*
G02*
X34250000Y-26660000I140000J0D01*
G01*
G37*
G36*
G01*
X34250000Y-27620000D02*
X34590000Y-27620000D01*
G75*
G02*
X34730000Y-27760000I0J-140000D01*
G01*
X34730000Y-28040000D01*
G75*
G02*
X34590000Y-28180000I-140000J0D01*
G01*
X34250000Y-28180000D01*
G75*
G02*
X34110000Y-28040000I0J140000D01*
G01*
X34110000Y-27760000D01*
G75*
G02*
X34250000Y-27620000I140000J0D01*
G01*
G37*
%TD*%
%TO.C,D1*%
G36*
G01*
X50911500Y-65237250D02*
X50911500Y-64724750D01*
G75*
G02*
X51130250Y-64506000I218750J0D01*
G01*
X51567750Y-64506000D01*
G75*
G02*
X51786500Y-64724750I0J-218750D01*
G01*
X51786500Y-65237250D01*
G75*
G02*
X51567750Y-65456000I-218750J0D01*
G01*
X51130250Y-65456000D01*
G75*
G02*
X50911500Y-65237250I0J218750D01*
G01*
G37*
G36*
G01*
X49336500Y-65237250D02*
X49336500Y-64724750D01*
G75*
G02*
X49555250Y-64506000I218750J0D01*
G01*
X49992750Y-64506000D01*
G75*
G02*
X50211500Y-64724750I0J-218750D01*
G01*
X50211500Y-65237250D01*
G75*
G02*
X49992750Y-65456000I-218750J0D01*
G01*
X49555250Y-65456000D01*
G75*
G02*
X49336500Y-65237250I0J218750D01*
G01*
G37*
%TD*%
%TO.C,D2*%
G36*
G01*
X77963750Y-80790000D02*
X78476250Y-80790000D01*
G75*
G02*
X78695000Y-81008750I0J-218750D01*
G01*
X78695000Y-81446250D01*
G75*
G02*
X78476250Y-81665000I-218750J0D01*
G01*
X77963750Y-81665000D01*
G75*
G02*
X77745000Y-81446250I0J218750D01*
G01*
X77745000Y-81008750D01*
G75*
G02*
X77963750Y-80790000I218750J0D01*
G01*
G37*
G36*
G01*
X77963750Y-79215000D02*
X78476250Y-79215000D01*
G75*
G02*
X78695000Y-79433750I0J-218750D01*
G01*
X78695000Y-79871250D01*
G75*
G02*
X78476250Y-80090000I-218750J0D01*
G01*
X77963750Y-80090000D01*
G75*
G02*
X77745000Y-79871250I0J218750D01*
G01*
X77745000Y-79433750D01*
G75*
G02*
X77963750Y-79215000I218750J0D01*
G01*
G37*
%TD*%
%TO.C,D3*%
G36*
G01*
X79663750Y-79202500D02*
X80176250Y-79202500D01*
G75*
G02*
X80395000Y-79421250I0J-218750D01*
G01*
X80395000Y-79858750D01*
G75*
G02*
X80176250Y-80077500I-218750J0D01*
G01*
X79663750Y-80077500D01*
G75*
G02*
X79445000Y-79858750I0J218750D01*
G01*
X79445000Y-79421250D01*
G75*
G02*
X79663750Y-79202500I218750J0D01*
G01*
G37*
G36*
G01*
X79663750Y-80777500D02*
X80176250Y-80777500D01*
G75*
G02*
X80395000Y-80996250I0J-218750D01*
G01*
X80395000Y-81433750D01*
G75*
G02*
X80176250Y-81652500I-218750J0D01*
G01*
X79663750Y-81652500D01*
G75*
G02*
X79445000Y-81433750I0J218750D01*
G01*
X79445000Y-80996250D01*
G75*
G02*
X79663750Y-80777500I218750J0D01*
G01*
G37*
%TD*%
D19*
%TO.C,J1*%
X111150000Y-31060000D03*
X112420000Y-31060000D03*
X111150000Y-32330000D03*
X112420000Y-32330000D03*
X111150000Y-33600000D03*
X112420000Y-33600000D03*
X111150000Y-34870000D03*
X112420000Y-34870000D03*
X111150000Y-36140000D03*
D20*
X112420000Y-36140000D03*
%TD*%
D16*
%TO.C,J9*%
X61480500Y-22309500D03*
X66560500Y-22309500D03*
D15*
X71640500Y-22309500D03*
%TD*%
%TO.C,J10*%
X88722000Y-22309500D03*
D16*
X83642000Y-22309500D03*
X78562000Y-22309500D03*
%TD*%
%TO.C,J11*%
X95840000Y-22240000D03*
D15*
X100920000Y-22240000D03*
%TD*%
%TO.C,J12*%
X108720000Y-85740000D03*
D16*
X108720000Y-80660000D03*
%TD*%
D21*
%TO.C,J13*%
X35920000Y-21040000D03*
D22*
X38460000Y-23580000D03*
X33380000Y-23580000D03*
X33380000Y-18500000D03*
X38460000Y-18500000D03*
%TD*%
%TO.C,J14*%
X16891000Y-83312000D03*
X21971000Y-83312000D03*
X21971000Y-78232000D03*
X16891000Y-78232000D03*
D21*
X19431000Y-80772000D03*
%TD*%
%TO.C,L1*%
G36*
G01*
X56610000Y-62512500D02*
X56610000Y-62167500D01*
G75*
G02*
X56757500Y-62020000I147500J0D01*
G01*
X57052500Y-62020000D01*
G75*
G02*
X57200000Y-62167500I0J-147500D01*
G01*
X57200000Y-62512500D01*
G75*
G02*
X57052500Y-62660000I-147500J0D01*
G01*
X56757500Y-62660000D01*
G75*
G02*
X56610000Y-62512500I0J147500D01*
G01*
G37*
G36*
G01*
X55640000Y-62512500D02*
X55640000Y-62167500D01*
G75*
G02*
X55787500Y-62020000I147500J0D01*
G01*
X56082500Y-62020000D01*
G75*
G02*
X56230000Y-62167500I0J-147500D01*
G01*
X56230000Y-62512500D01*
G75*
G02*
X56082500Y-62660000I-147500J0D01*
G01*
X55787500Y-62660000D01*
G75*
G02*
X55640000Y-62512500I0J147500D01*
G01*
G37*
%TD*%
%TO.C,L2*%
G36*
G01*
X34847500Y-80760000D02*
X35192500Y-80760000D01*
G75*
G02*
X35340000Y-80907500I0J-147500D01*
G01*
X35340000Y-81202500D01*
G75*
G02*
X35192500Y-81350000I-147500J0D01*
G01*
X34847500Y-81350000D01*
G75*
G02*
X34700000Y-81202500I0J147500D01*
G01*
X34700000Y-80907500D01*
G75*
G02*
X34847500Y-80760000I147500J0D01*
G01*
G37*
G36*
G01*
X34847500Y-81730000D02*
X35192500Y-81730000D01*
G75*
G02*
X35340000Y-81877500I0J-147500D01*
G01*
X35340000Y-82172500D01*
G75*
G02*
X35192500Y-82320000I-147500J0D01*
G01*
X34847500Y-82320000D01*
G75*
G02*
X34700000Y-82172500I0J147500D01*
G01*
X34700000Y-81877500D01*
G75*
G02*
X34847500Y-81730000I147500J0D01*
G01*
G37*
%TD*%
%TO.C,L3*%
G36*
G01*
X32299000Y-80917000D02*
X32299000Y-81262000D01*
G75*
G02*
X32151500Y-81409500I-147500J0D01*
G01*
X31856500Y-81409500D01*
G75*
G02*
X31709000Y-81262000I0J147500D01*
G01*
X31709000Y-80917000D01*
G75*
G02*
X31856500Y-80769500I147500J0D01*
G01*
X32151500Y-80769500D01*
G75*
G02*
X32299000Y-80917000I0J-147500D01*
G01*
G37*
G36*
G01*
X31329000Y-80917000D02*
X31329000Y-81262000D01*
G75*
G02*
X31181500Y-81409500I-147500J0D01*
G01*
X30886500Y-81409500D01*
G75*
G02*
X30739000Y-81262000I0J147500D01*
G01*
X30739000Y-80917000D01*
G75*
G02*
X30886500Y-80769500I147500J0D01*
G01*
X31181500Y-80769500D01*
G75*
G02*
X31329000Y-80917000I0J-147500D01*
G01*
G37*
%TD*%
%TO.C,L4*%
G36*
G01*
X28131000Y-80853500D02*
X28131000Y-81198500D01*
G75*
G02*
X27983500Y-81346000I-147500J0D01*
G01*
X27688500Y-81346000D01*
G75*
G02*
X27541000Y-81198500I0J147500D01*
G01*
X27541000Y-80853500D01*
G75*
G02*
X27688500Y-80706000I147500J0D01*
G01*
X27983500Y-80706000D01*
G75*
G02*
X28131000Y-80853500I0J-147500D01*
G01*
G37*
G36*
G01*
X29101000Y-80853500D02*
X29101000Y-81198500D01*
G75*
G02*
X28953500Y-81346000I-147500J0D01*
G01*
X28658500Y-81346000D01*
G75*
G02*
X28511000Y-81198500I0J147500D01*
G01*
X28511000Y-80853500D01*
G75*
G02*
X28658500Y-80706000I147500J0D01*
G01*
X28953500Y-80706000D01*
G75*
G02*
X29101000Y-80853500I0J-147500D01*
G01*
G37*
%TD*%
%TO.C,L5*%
G36*
G01*
X34795000Y-25627500D02*
X34795000Y-25972500D01*
G75*
G02*
X34647500Y-26120000I-147500J0D01*
G01*
X34352500Y-26120000D01*
G75*
G02*
X34205000Y-25972500I0J147500D01*
G01*
X34205000Y-25627500D01*
G75*
G02*
X34352500Y-25480000I147500J0D01*
G01*
X34647500Y-25480000D01*
G75*
G02*
X34795000Y-25627500I0J-147500D01*
G01*
G37*
G36*
G01*
X35765000Y-25627500D02*
X35765000Y-25972500D01*
G75*
G02*
X35617500Y-26120000I-147500J0D01*
G01*
X35322500Y-26120000D01*
G75*
G02*
X35175000Y-25972500I0J147500D01*
G01*
X35175000Y-25627500D01*
G75*
G02*
X35322500Y-25480000I147500J0D01*
G01*
X35617500Y-25480000D01*
G75*
G02*
X35765000Y-25627500I0J-147500D01*
G01*
G37*
%TD*%
D23*
%TO.C,Q1*%
X97420000Y-78290000D03*
X96470000Y-76290000D03*
X98370000Y-76290000D03*
%TD*%
%TO.C,R1*%
G36*
G01*
X48682400Y-24070000D02*
X49052400Y-24070000D01*
G75*
G02*
X49187400Y-24205000I0J-135000D01*
G01*
X49187400Y-24475000D01*
G75*
G02*
X49052400Y-24610000I-135000J0D01*
G01*
X48682400Y-24610000D01*
G75*
G02*
X48547400Y-24475000I0J135000D01*
G01*
X48547400Y-24205000D01*
G75*
G02*
X48682400Y-24070000I135000J0D01*
G01*
G37*
G36*
G01*
X48682400Y-25090000D02*
X49052400Y-25090000D01*
G75*
G02*
X49187400Y-25225000I0J-135000D01*
G01*
X49187400Y-25495000D01*
G75*
G02*
X49052400Y-25630000I-135000J0D01*
G01*
X48682400Y-25630000D01*
G75*
G02*
X48547400Y-25495000I0J135000D01*
G01*
X48547400Y-25225000D01*
G75*
G02*
X48682400Y-25090000I135000J0D01*
G01*
G37*
%TD*%
%TO.C,R2*%
G36*
G01*
X54428500Y-58535001D02*
X54428500Y-57634999D01*
G75*
G02*
X54678499Y-57385000I249999J0D01*
G01*
X55203501Y-57385000D01*
G75*
G02*
X55453500Y-57634999I0J-249999D01*
G01*
X55453500Y-58535001D01*
G75*
G02*
X55203501Y-58785000I-249999J0D01*
G01*
X54678499Y-58785000D01*
G75*
G02*
X54428500Y-58535001I0J249999D01*
G01*
G37*
G36*
G01*
X52603500Y-58535001D02*
X52603500Y-57634999D01*
G75*
G02*
X52853499Y-57385000I249999J0D01*
G01*
X53378501Y-57385000D01*
G75*
G02*
X53628500Y-57634999I0J-249999D01*
G01*
X53628500Y-58535001D01*
G75*
G02*
X53378501Y-58785000I-249999J0D01*
G01*
X52853499Y-58785000D01*
G75*
G02*
X52603500Y-58535001I0J249999D01*
G01*
G37*
%TD*%
%TO.C,R3*%
G36*
G01*
X47897000Y-64839000D02*
X47897000Y-65209000D01*
G75*
G02*
X47762000Y-65344000I-135000J0D01*
G01*
X47492000Y-65344000D01*
G75*
G02*
X47357000Y-65209000I0J135000D01*
G01*
X47357000Y-64839000D01*
G75*
G02*
X47492000Y-64704000I135000J0D01*
G01*
X47762000Y-64704000D01*
G75*
G02*
X47897000Y-64839000I0J-135000D01*
G01*
G37*
G36*
G01*
X46877000Y-64839000D02*
X46877000Y-65209000D01*
G75*
G02*
X46742000Y-65344000I-135000J0D01*
G01*
X46472000Y-65344000D01*
G75*
G02*
X46337000Y-65209000I0J135000D01*
G01*
X46337000Y-64839000D01*
G75*
G02*
X46472000Y-64704000I135000J0D01*
G01*
X46742000Y-64704000D01*
G75*
G02*
X46877000Y-64839000I0J-135000D01*
G01*
G37*
%TD*%
%TO.C,R4*%
G36*
G01*
X62419500Y-39326500D02*
X62789500Y-39326500D01*
G75*
G02*
X62924500Y-39461500I0J-135000D01*
G01*
X62924500Y-39731500D01*
G75*
G02*
X62789500Y-39866500I-135000J0D01*
G01*
X62419500Y-39866500D01*
G75*
G02*
X62284500Y-39731500I0J135000D01*
G01*
X62284500Y-39461500D01*
G75*
G02*
X62419500Y-39326500I135000J0D01*
G01*
G37*
G36*
G01*
X62419500Y-40346500D02*
X62789500Y-40346500D01*
G75*
G02*
X62924500Y-40481500I0J-135000D01*
G01*
X62924500Y-40751500D01*
G75*
G02*
X62789500Y-40886500I-135000J0D01*
G01*
X62419500Y-40886500D01*
G75*
G02*
X62284500Y-40751500I0J135000D01*
G01*
X62284500Y-40481500D01*
G75*
G02*
X62419500Y-40346500I135000J0D01*
G01*
G37*
%TD*%
%TO.C,R5*%
G36*
G01*
X58355500Y-40346500D02*
X58725500Y-40346500D01*
G75*
G02*
X58860500Y-40481500I0J-135000D01*
G01*
X58860500Y-40751500D01*
G75*
G02*
X58725500Y-40886500I-135000J0D01*
G01*
X58355500Y-40886500D01*
G75*
G02*
X58220500Y-40751500I0J135000D01*
G01*
X58220500Y-40481500D01*
G75*
G02*
X58355500Y-40346500I135000J0D01*
G01*
G37*
G36*
G01*
X58355500Y-39326500D02*
X58725500Y-39326500D01*
G75*
G02*
X58860500Y-39461500I0J-135000D01*
G01*
X58860500Y-39731500D01*
G75*
G02*
X58725500Y-39866500I-135000J0D01*
G01*
X58355500Y-39866500D01*
G75*
G02*
X58220500Y-39731500I0J135000D01*
G01*
X58220500Y-39461500D01*
G75*
G02*
X58355500Y-39326500I135000J0D01*
G01*
G37*
%TD*%
%TO.C,R6*%
G36*
G01*
X76572500Y-90747500D02*
X76942500Y-90747500D01*
G75*
G02*
X77077500Y-90882500I0J-135000D01*
G01*
X77077500Y-91152500D01*
G75*
G02*
X76942500Y-91287500I-135000J0D01*
G01*
X76572500Y-91287500D01*
G75*
G02*
X76437500Y-91152500I0J135000D01*
G01*
X76437500Y-90882500D01*
G75*
G02*
X76572500Y-90747500I135000J0D01*
G01*
G37*
G36*
G01*
X76572500Y-91767500D02*
X76942500Y-91767500D01*
G75*
G02*
X77077500Y-91902500I0J-135000D01*
G01*
X77077500Y-92172500D01*
G75*
G02*
X76942500Y-92307500I-135000J0D01*
G01*
X76572500Y-92307500D01*
G75*
G02*
X76437500Y-92172500I0J135000D01*
G01*
X76437500Y-91902500D01*
G75*
G02*
X76572500Y-91767500I135000J0D01*
G01*
G37*
%TD*%
%TO.C,R7*%
G36*
G01*
X72700500Y-91559500D02*
X73070500Y-91559500D01*
G75*
G02*
X73205500Y-91694500I0J-135000D01*
G01*
X73205500Y-91964500D01*
G75*
G02*
X73070500Y-92099500I-135000J0D01*
G01*
X72700500Y-92099500D01*
G75*
G02*
X72565500Y-91964500I0J135000D01*
G01*
X72565500Y-91694500D01*
G75*
G02*
X72700500Y-91559500I135000J0D01*
G01*
G37*
G36*
G01*
X72700500Y-90539500D02*
X73070500Y-90539500D01*
G75*
G02*
X73205500Y-90674500I0J-135000D01*
G01*
X73205500Y-90944500D01*
G75*
G02*
X73070500Y-91079500I-135000J0D01*
G01*
X72700500Y-91079500D01*
G75*
G02*
X72565500Y-90944500I0J135000D01*
G01*
X72565500Y-90674500D01*
G75*
G02*
X72700500Y-90539500I135000J0D01*
G01*
G37*
%TD*%
%TO.C,R8*%
G36*
G01*
X69161000Y-91395500D02*
X69531000Y-91395500D01*
G75*
G02*
X69666000Y-91530500I0J-135000D01*
G01*
X69666000Y-91800500D01*
G75*
G02*
X69531000Y-91935500I-135000J0D01*
G01*
X69161000Y-91935500D01*
G75*
G02*
X69026000Y-91800500I0J135000D01*
G01*
X69026000Y-91530500D01*
G75*
G02*
X69161000Y-91395500I135000J0D01*
G01*
G37*
G36*
G01*
X69161000Y-90375500D02*
X69531000Y-90375500D01*
G75*
G02*
X69666000Y-90510500I0J-135000D01*
G01*
X69666000Y-90780500D01*
G75*
G02*
X69531000Y-90915500I-135000J0D01*
G01*
X69161000Y-90915500D01*
G75*
G02*
X69026000Y-90780500I0J135000D01*
G01*
X69026000Y-90510500D01*
G75*
G02*
X69161000Y-90375500I135000J0D01*
G01*
G37*
%TD*%
%TO.C,R10*%
G36*
G01*
X106880000Y-30655000D02*
X106880000Y-31025000D01*
G75*
G02*
X106745000Y-31160000I-135000J0D01*
G01*
X106475000Y-31160000D01*
G75*
G02*
X106340000Y-31025000I0J135000D01*
G01*
X106340000Y-30655000D01*
G75*
G02*
X106475000Y-30520000I135000J0D01*
G01*
X106745000Y-30520000D01*
G75*
G02*
X106880000Y-30655000I0J-135000D01*
G01*
G37*
G36*
G01*
X107900000Y-30655000D02*
X107900000Y-31025000D01*
G75*
G02*
X107765000Y-31160000I-135000J0D01*
G01*
X107495000Y-31160000D01*
G75*
G02*
X107360000Y-31025000I0J135000D01*
G01*
X107360000Y-30655000D01*
G75*
G02*
X107495000Y-30520000I135000J0D01*
G01*
X107765000Y-30520000D01*
G75*
G02*
X107900000Y-30655000I0J-135000D01*
G01*
G37*
%TD*%
%TO.C,R11*%
G36*
G01*
X106880000Y-32155000D02*
X106880000Y-32525000D01*
G75*
G02*
X106745000Y-32660000I-135000J0D01*
G01*
X106475000Y-32660000D01*
G75*
G02*
X106340000Y-32525000I0J135000D01*
G01*
X106340000Y-32155000D01*
G75*
G02*
X106475000Y-32020000I135000J0D01*
G01*
X106745000Y-32020000D01*
G75*
G02*
X106880000Y-32155000I0J-135000D01*
G01*
G37*
G36*
G01*
X107900000Y-32155000D02*
X107900000Y-32525000D01*
G75*
G02*
X107765000Y-32660000I-135000J0D01*
G01*
X107495000Y-32660000D01*
G75*
G02*
X107360000Y-32525000I0J135000D01*
G01*
X107360000Y-32155000D01*
G75*
G02*
X107495000Y-32020000I135000J0D01*
G01*
X107765000Y-32020000D01*
G75*
G02*
X107900000Y-32155000I0J-135000D01*
G01*
G37*
%TD*%
%TO.C,R12*%
G36*
G01*
X107810000Y-33455000D02*
X107810000Y-33825000D01*
G75*
G02*
X107675000Y-33960000I-135000J0D01*
G01*
X107405000Y-33960000D01*
G75*
G02*
X107270000Y-33825000I0J135000D01*
G01*
X107270000Y-33455000D01*
G75*
G02*
X107405000Y-33320000I135000J0D01*
G01*
X107675000Y-33320000D01*
G75*
G02*
X107810000Y-33455000I0J-135000D01*
G01*
G37*
G36*
G01*
X106790000Y-33455000D02*
X106790000Y-33825000D01*
G75*
G02*
X106655000Y-33960000I-135000J0D01*
G01*
X106385000Y-33960000D01*
G75*
G02*
X106250000Y-33825000I0J135000D01*
G01*
X106250000Y-33455000D01*
G75*
G02*
X106385000Y-33320000I135000J0D01*
G01*
X106655000Y-33320000D01*
G75*
G02*
X106790000Y-33455000I0J-135000D01*
G01*
G37*
%TD*%
%TO.C,R13*%
G36*
G01*
X106490000Y-35955000D02*
X106490000Y-36325000D01*
G75*
G02*
X106355000Y-36460000I-135000J0D01*
G01*
X106085000Y-36460000D01*
G75*
G02*
X105950000Y-36325000I0J135000D01*
G01*
X105950000Y-35955000D01*
G75*
G02*
X106085000Y-35820000I135000J0D01*
G01*
X106355000Y-35820000D01*
G75*
G02*
X106490000Y-35955000I0J-135000D01*
G01*
G37*
G36*
G01*
X107510000Y-35955000D02*
X107510000Y-36325000D01*
G75*
G02*
X107375000Y-36460000I-135000J0D01*
G01*
X107105000Y-36460000D01*
G75*
G02*
X106970000Y-36325000I0J135000D01*
G01*
X106970000Y-35955000D01*
G75*
G02*
X107105000Y-35820000I135000J0D01*
G01*
X107375000Y-35820000D01*
G75*
G02*
X107510000Y-35955000I0J-135000D01*
G01*
G37*
%TD*%
%TO.C,R14*%
G36*
G01*
X29850500Y-45069000D02*
X30220500Y-45069000D01*
G75*
G02*
X30355500Y-45204000I0J-135000D01*
G01*
X30355500Y-45474000D01*
G75*
G02*
X30220500Y-45609000I-135000J0D01*
G01*
X29850500Y-45609000D01*
G75*
G02*
X29715500Y-45474000I0J135000D01*
G01*
X29715500Y-45204000D01*
G75*
G02*
X29850500Y-45069000I135000J0D01*
G01*
G37*
G36*
G01*
X29850500Y-44049000D02*
X30220500Y-44049000D01*
G75*
G02*
X30355500Y-44184000I0J-135000D01*
G01*
X30355500Y-44454000D01*
G75*
G02*
X30220500Y-44589000I-135000J0D01*
G01*
X29850500Y-44589000D01*
G75*
G02*
X29715500Y-44454000I0J135000D01*
G01*
X29715500Y-44184000D01*
G75*
G02*
X29850500Y-44049000I135000J0D01*
G01*
G37*
%TD*%
%TO.C,R16*%
G36*
G01*
X58201500Y-75896000D02*
X58201500Y-75526000D01*
G75*
G02*
X58336500Y-75391000I135000J0D01*
G01*
X58606500Y-75391000D01*
G75*
G02*
X58741500Y-75526000I0J-135000D01*
G01*
X58741500Y-75896000D01*
G75*
G02*
X58606500Y-76031000I-135000J0D01*
G01*
X58336500Y-76031000D01*
G75*
G02*
X58201500Y-75896000I0J135000D01*
G01*
G37*
G36*
G01*
X57181500Y-75896000D02*
X57181500Y-75526000D01*
G75*
G02*
X57316500Y-75391000I135000J0D01*
G01*
X57586500Y-75391000D01*
G75*
G02*
X57721500Y-75526000I0J-135000D01*
G01*
X57721500Y-75896000D01*
G75*
G02*
X57586500Y-76031000I-135000J0D01*
G01*
X57316500Y-76031000D01*
G75*
G02*
X57181500Y-75896000I0J135000D01*
G01*
G37*
%TD*%
%TO.C,R17*%
G36*
G01*
X57183500Y-79944000D02*
X57183500Y-79574000D01*
G75*
G02*
X57318500Y-79439000I135000J0D01*
G01*
X57588500Y-79439000D01*
G75*
G02*
X57723500Y-79574000I0J-135000D01*
G01*
X57723500Y-79944000D01*
G75*
G02*
X57588500Y-80079000I-135000J0D01*
G01*
X57318500Y-80079000D01*
G75*
G02*
X57183500Y-79944000I0J135000D01*
G01*
G37*
G36*
G01*
X58203500Y-79944000D02*
X58203500Y-79574000D01*
G75*
G02*
X58338500Y-79439000I135000J0D01*
G01*
X58608500Y-79439000D01*
G75*
G02*
X58743500Y-79574000I0J-135000D01*
G01*
X58743500Y-79944000D01*
G75*
G02*
X58608500Y-80079000I-135000J0D01*
G01*
X58338500Y-80079000D01*
G75*
G02*
X58203500Y-79944000I0J135000D01*
G01*
G37*
%TD*%
%TO.C,R18*%
G36*
G01*
X58203500Y-83444000D02*
X58203500Y-83074000D01*
G75*
G02*
X58338500Y-82939000I135000J0D01*
G01*
X58608500Y-82939000D01*
G75*
G02*
X58743500Y-83074000I0J-135000D01*
G01*
X58743500Y-83444000D01*
G75*
G02*
X58608500Y-83579000I-135000J0D01*
G01*
X58338500Y-83579000D01*
G75*
G02*
X58203500Y-83444000I0J135000D01*
G01*
G37*
G36*
G01*
X57183500Y-83444000D02*
X57183500Y-83074000D01*
G75*
G02*
X57318500Y-82939000I135000J0D01*
G01*
X57588500Y-82939000D01*
G75*
G02*
X57723500Y-83074000I0J-135000D01*
G01*
X57723500Y-83444000D01*
G75*
G02*
X57588500Y-83579000I-135000J0D01*
G01*
X57318500Y-83579000D01*
G75*
G02*
X57183500Y-83444000I0J135000D01*
G01*
G37*
%TD*%
%TO.C,R19*%
G36*
G01*
X58203500Y-87044000D02*
X58203500Y-86674000D01*
G75*
G02*
X58338500Y-86539000I135000J0D01*
G01*
X58608500Y-86539000D01*
G75*
G02*
X58743500Y-86674000I0J-135000D01*
G01*
X58743500Y-87044000D01*
G75*
G02*
X58608500Y-87179000I-135000J0D01*
G01*
X58338500Y-87179000D01*
G75*
G02*
X58203500Y-87044000I0J135000D01*
G01*
G37*
G36*
G01*
X57183500Y-87044000D02*
X57183500Y-86674000D01*
G75*
G02*
X57318500Y-86539000I135000J0D01*
G01*
X57588500Y-86539000D01*
G75*
G02*
X57723500Y-86674000I0J-135000D01*
G01*
X57723500Y-87044000D01*
G75*
G02*
X57588500Y-87179000I-135000J0D01*
G01*
X57318500Y-87179000D01*
G75*
G02*
X57183500Y-87044000I0J135000D01*
G01*
G37*
%TD*%
%TO.C,R20*%
G36*
G01*
X83345000Y-59783500D02*
X82975000Y-59783500D01*
G75*
G02*
X82840000Y-59648500I0J135000D01*
G01*
X82840000Y-59378500D01*
G75*
G02*
X82975000Y-59243500I135000J0D01*
G01*
X83345000Y-59243500D01*
G75*
G02*
X83480000Y-59378500I0J-135000D01*
G01*
X83480000Y-59648500D01*
G75*
G02*
X83345000Y-59783500I-135000J0D01*
G01*
G37*
G36*
G01*
X83345000Y-58763500D02*
X82975000Y-58763500D01*
G75*
G02*
X82840000Y-58628500I0J135000D01*
G01*
X82840000Y-58358500D01*
G75*
G02*
X82975000Y-58223500I135000J0D01*
G01*
X83345000Y-58223500D01*
G75*
G02*
X83480000Y-58358500I0J-135000D01*
G01*
X83480000Y-58628500D01*
G75*
G02*
X83345000Y-58763500I-135000J0D01*
G01*
G37*
%TD*%
%TO.C,R21*%
G36*
G01*
X86845000Y-59783500D02*
X86475000Y-59783500D01*
G75*
G02*
X86340000Y-59648500I0J135000D01*
G01*
X86340000Y-59378500D01*
G75*
G02*
X86475000Y-59243500I135000J0D01*
G01*
X86845000Y-59243500D01*
G75*
G02*
X86980000Y-59378500I0J-135000D01*
G01*
X86980000Y-59648500D01*
G75*
G02*
X86845000Y-59783500I-135000J0D01*
G01*
G37*
G36*
G01*
X86845000Y-58763500D02*
X86475000Y-58763500D01*
G75*
G02*
X86340000Y-58628500I0J135000D01*
G01*
X86340000Y-58358500D01*
G75*
G02*
X86475000Y-58223500I135000J0D01*
G01*
X86845000Y-58223500D01*
G75*
G02*
X86980000Y-58358500I0J-135000D01*
G01*
X86980000Y-58628500D01*
G75*
G02*
X86845000Y-58763500I-135000J0D01*
G01*
G37*
%TD*%
%TO.C,R22*%
G36*
G01*
X90345000Y-58863500D02*
X89975000Y-58863500D01*
G75*
G02*
X89840000Y-58728500I0J135000D01*
G01*
X89840000Y-58458500D01*
G75*
G02*
X89975000Y-58323500I135000J0D01*
G01*
X90345000Y-58323500D01*
G75*
G02*
X90480000Y-58458500I0J-135000D01*
G01*
X90480000Y-58728500D01*
G75*
G02*
X90345000Y-58863500I-135000J0D01*
G01*
G37*
G36*
G01*
X90345000Y-59883500D02*
X89975000Y-59883500D01*
G75*
G02*
X89840000Y-59748500I0J135000D01*
G01*
X89840000Y-59478500D01*
G75*
G02*
X89975000Y-59343500I135000J0D01*
G01*
X90345000Y-59343500D01*
G75*
G02*
X90480000Y-59478500I0J-135000D01*
G01*
X90480000Y-59748500D01*
G75*
G02*
X90345000Y-59883500I-135000J0D01*
G01*
G37*
%TD*%
%TO.C,R23*%
G36*
G01*
X93845000Y-59783500D02*
X93475000Y-59783500D01*
G75*
G02*
X93340000Y-59648500I0J135000D01*
G01*
X93340000Y-59378500D01*
G75*
G02*
X93475000Y-59243500I135000J0D01*
G01*
X93845000Y-59243500D01*
G75*
G02*
X93980000Y-59378500I0J-135000D01*
G01*
X93980000Y-59648500D01*
G75*
G02*
X93845000Y-59783500I-135000J0D01*
G01*
G37*
G36*
G01*
X93845000Y-58763500D02*
X93475000Y-58763500D01*
G75*
G02*
X93340000Y-58628500I0J135000D01*
G01*
X93340000Y-58358500D01*
G75*
G02*
X93475000Y-58223500I135000J0D01*
G01*
X93845000Y-58223500D01*
G75*
G02*
X93980000Y-58358500I0J-135000D01*
G01*
X93980000Y-58628500D01*
G75*
G02*
X93845000Y-58763500I-135000J0D01*
G01*
G37*
%TD*%
%TO.C,R26*%
G36*
G01*
X58870000Y-38155000D02*
X58870000Y-38525000D01*
G75*
G02*
X58735000Y-38660000I-135000J0D01*
G01*
X58465000Y-38660000D01*
G75*
G02*
X58330000Y-38525000I0J135000D01*
G01*
X58330000Y-38155000D01*
G75*
G02*
X58465000Y-38020000I135000J0D01*
G01*
X58735000Y-38020000D01*
G75*
G02*
X58870000Y-38155000I0J-135000D01*
G01*
G37*
G36*
G01*
X59890000Y-38155000D02*
X59890000Y-38525000D01*
G75*
G02*
X59755000Y-38660000I-135000J0D01*
G01*
X59485000Y-38660000D01*
G75*
G02*
X59350000Y-38525000I0J135000D01*
G01*
X59350000Y-38155000D01*
G75*
G02*
X59485000Y-38020000I135000J0D01*
G01*
X59755000Y-38020000D01*
G75*
G02*
X59890000Y-38155000I0J-135000D01*
G01*
G37*
%TD*%
%TO.C,R27*%
G36*
G01*
X63800000Y-38255000D02*
X63800000Y-38625000D01*
G75*
G02*
X63665000Y-38760000I-135000J0D01*
G01*
X63395000Y-38760000D01*
G75*
G02*
X63260000Y-38625000I0J135000D01*
G01*
X63260000Y-38255000D01*
G75*
G02*
X63395000Y-38120000I135000J0D01*
G01*
X63665000Y-38120000D01*
G75*
G02*
X63800000Y-38255000I0J-135000D01*
G01*
G37*
G36*
G01*
X62780000Y-38255000D02*
X62780000Y-38625000D01*
G75*
G02*
X62645000Y-38760000I-135000J0D01*
G01*
X62375000Y-38760000D01*
G75*
G02*
X62240000Y-38625000I0J135000D01*
G01*
X62240000Y-38255000D01*
G75*
G02*
X62375000Y-38120000I135000J0D01*
G01*
X62645000Y-38120000D01*
G75*
G02*
X62780000Y-38255000I0J-135000D01*
G01*
G37*
%TD*%
%TO.C,R28*%
G36*
G01*
X75735000Y-73150000D02*
X75735000Y-72780000D01*
G75*
G02*
X75870000Y-72645000I135000J0D01*
G01*
X76140000Y-72645000D01*
G75*
G02*
X76275000Y-72780000I0J-135000D01*
G01*
X76275000Y-73150000D01*
G75*
G02*
X76140000Y-73285000I-135000J0D01*
G01*
X75870000Y-73285000D01*
G75*
G02*
X75735000Y-73150000I0J135000D01*
G01*
G37*
G36*
G01*
X74715000Y-73150000D02*
X74715000Y-72780000D01*
G75*
G02*
X74850000Y-72645000I135000J0D01*
G01*
X75120000Y-72645000D01*
G75*
G02*
X75255000Y-72780000I0J-135000D01*
G01*
X75255000Y-73150000D01*
G75*
G02*
X75120000Y-73285000I-135000J0D01*
G01*
X74850000Y-73285000D01*
G75*
G02*
X74715000Y-73150000I0J135000D01*
G01*
G37*
%TD*%
%TO.C,R29*%
G36*
G01*
X78210000Y-72835000D02*
X78210000Y-73205000D01*
G75*
G02*
X78075000Y-73340000I-135000J0D01*
G01*
X77805000Y-73340000D01*
G75*
G02*
X77670000Y-73205000I0J135000D01*
G01*
X77670000Y-72835000D01*
G75*
G02*
X77805000Y-72700000I135000J0D01*
G01*
X78075000Y-72700000D01*
G75*
G02*
X78210000Y-72835000I0J-135000D01*
G01*
G37*
G36*
G01*
X77190000Y-72835000D02*
X77190000Y-73205000D01*
G75*
G02*
X77055000Y-73340000I-135000J0D01*
G01*
X76785000Y-73340000D01*
G75*
G02*
X76650000Y-73205000I0J135000D01*
G01*
X76650000Y-72835000D01*
G75*
G02*
X76785000Y-72700000I135000J0D01*
G01*
X77055000Y-72700000D01*
G75*
G02*
X77190000Y-72835000I0J-135000D01*
G01*
G37*
%TD*%
%TO.C,R30*%
G36*
G01*
X78505000Y-78120000D02*
X78135000Y-78120000D01*
G75*
G02*
X78000000Y-77985000I0J135000D01*
G01*
X78000000Y-77715000D01*
G75*
G02*
X78135000Y-77580000I135000J0D01*
G01*
X78505000Y-77580000D01*
G75*
G02*
X78640000Y-77715000I0J-135000D01*
G01*
X78640000Y-77985000D01*
G75*
G02*
X78505000Y-78120000I-135000J0D01*
G01*
G37*
G36*
G01*
X78505000Y-77100000D02*
X78135000Y-77100000D01*
G75*
G02*
X78000000Y-76965000I0J135000D01*
G01*
X78000000Y-76695000D01*
G75*
G02*
X78135000Y-76560000I135000J0D01*
G01*
X78505000Y-76560000D01*
G75*
G02*
X78640000Y-76695000I0J-135000D01*
G01*
X78640000Y-76965000D01*
G75*
G02*
X78505000Y-77100000I-135000J0D01*
G01*
G37*
%TD*%
%TO.C,R31*%
G36*
G01*
X80105000Y-77100000D02*
X79735000Y-77100000D01*
G75*
G02*
X79600000Y-76965000I0J135000D01*
G01*
X79600000Y-76695000D01*
G75*
G02*
X79735000Y-76560000I135000J0D01*
G01*
X80105000Y-76560000D01*
G75*
G02*
X80240000Y-76695000I0J-135000D01*
G01*
X80240000Y-76965000D01*
G75*
G02*
X80105000Y-77100000I-135000J0D01*
G01*
G37*
G36*
G01*
X80105000Y-78120000D02*
X79735000Y-78120000D01*
G75*
G02*
X79600000Y-77985000I0J135000D01*
G01*
X79600000Y-77715000D01*
G75*
G02*
X79735000Y-77580000I135000J0D01*
G01*
X80105000Y-77580000D01*
G75*
G02*
X80240000Y-77715000I0J-135000D01*
G01*
X80240000Y-77985000D01*
G75*
G02*
X80105000Y-78120000I-135000J0D01*
G01*
G37*
%TD*%
%TO.C,R32*%
G36*
G01*
X94323000Y-63405500D02*
X94323000Y-63775500D01*
G75*
G02*
X94188000Y-63910500I-135000J0D01*
G01*
X93918000Y-63910500D01*
G75*
G02*
X93783000Y-63775500I0J135000D01*
G01*
X93783000Y-63405500D01*
G75*
G02*
X93918000Y-63270500I135000J0D01*
G01*
X94188000Y-63270500D01*
G75*
G02*
X94323000Y-63405500I0J-135000D01*
G01*
G37*
G36*
G01*
X93303000Y-63405500D02*
X93303000Y-63775500D01*
G75*
G02*
X93168000Y-63910500I-135000J0D01*
G01*
X92898000Y-63910500D01*
G75*
G02*
X92763000Y-63775500I0J135000D01*
G01*
X92763000Y-63405500D01*
G75*
G02*
X92898000Y-63270500I135000J0D01*
G01*
X93168000Y-63270500D01*
G75*
G02*
X93303000Y-63405500I0J-135000D01*
G01*
G37*
%TD*%
%TO.C,R33*%
G36*
G01*
X80800000Y-64988500D02*
X80800000Y-64618500D01*
G75*
G02*
X80935000Y-64483500I135000J0D01*
G01*
X81205000Y-64483500D01*
G75*
G02*
X81340000Y-64618500I0J-135000D01*
G01*
X81340000Y-64988500D01*
G75*
G02*
X81205000Y-65123500I-135000J0D01*
G01*
X80935000Y-65123500D01*
G75*
G02*
X80800000Y-64988500I0J135000D01*
G01*
G37*
G36*
G01*
X79780000Y-64988500D02*
X79780000Y-64618500D01*
G75*
G02*
X79915000Y-64483500I135000J0D01*
G01*
X80185000Y-64483500D01*
G75*
G02*
X80320000Y-64618500I0J-135000D01*
G01*
X80320000Y-64988500D01*
G75*
G02*
X80185000Y-65123500I-135000J0D01*
G01*
X79915000Y-65123500D01*
G75*
G02*
X79780000Y-64988500I0J135000D01*
G01*
G37*
%TD*%
%TO.C,R34*%
G36*
G01*
X47435000Y-86540000D02*
X47805000Y-86540000D01*
G75*
G02*
X47940000Y-86675000I0J-135000D01*
G01*
X47940000Y-86945000D01*
G75*
G02*
X47805000Y-87080000I-135000J0D01*
G01*
X47435000Y-87080000D01*
G75*
G02*
X47300000Y-86945000I0J135000D01*
G01*
X47300000Y-86675000D01*
G75*
G02*
X47435000Y-86540000I135000J0D01*
G01*
G37*
G36*
G01*
X47435000Y-85520000D02*
X47805000Y-85520000D01*
G75*
G02*
X47940000Y-85655000I0J-135000D01*
G01*
X47940000Y-85925000D01*
G75*
G02*
X47805000Y-86060000I-135000J0D01*
G01*
X47435000Y-86060000D01*
G75*
G02*
X47300000Y-85925000I0J135000D01*
G01*
X47300000Y-85655000D01*
G75*
G02*
X47435000Y-85520000I135000J0D01*
G01*
G37*
%TD*%
%TO.C,R35*%
G36*
G01*
X47683000Y-76789500D02*
X47313000Y-76789500D01*
G75*
G02*
X47178000Y-76654500I0J135000D01*
G01*
X47178000Y-76384500D01*
G75*
G02*
X47313000Y-76249500I135000J0D01*
G01*
X47683000Y-76249500D01*
G75*
G02*
X47818000Y-76384500I0J-135000D01*
G01*
X47818000Y-76654500D01*
G75*
G02*
X47683000Y-76789500I-135000J0D01*
G01*
G37*
G36*
G01*
X47683000Y-75769500D02*
X47313000Y-75769500D01*
G75*
G02*
X47178000Y-75634500I0J135000D01*
G01*
X47178000Y-75364500D01*
G75*
G02*
X47313000Y-75229500I135000J0D01*
G01*
X47683000Y-75229500D01*
G75*
G02*
X47818000Y-75364500I0J-135000D01*
G01*
X47818000Y-75634500D01*
G75*
G02*
X47683000Y-75769500I-135000J0D01*
G01*
G37*
%TD*%
%TO.C,R36*%
G36*
G01*
X37805000Y-78240000D02*
X37435000Y-78240000D01*
G75*
G02*
X37300000Y-78105000I0J135000D01*
G01*
X37300000Y-77835000D01*
G75*
G02*
X37435000Y-77700000I135000J0D01*
G01*
X37805000Y-77700000D01*
G75*
G02*
X37940000Y-77835000I0J-135000D01*
G01*
X37940000Y-78105000D01*
G75*
G02*
X37805000Y-78240000I-135000J0D01*
G01*
G37*
G36*
G01*
X37805000Y-77220000D02*
X37435000Y-77220000D01*
G75*
G02*
X37300000Y-77085000I0J135000D01*
G01*
X37300000Y-76815000D01*
G75*
G02*
X37435000Y-76680000I135000J0D01*
G01*
X37805000Y-76680000D01*
G75*
G02*
X37940000Y-76815000I0J-135000D01*
G01*
X37940000Y-77085000D01*
G75*
G02*
X37805000Y-77220000I-135000J0D01*
G01*
G37*
%TD*%
%TO.C,R37*%
G36*
G01*
X32605000Y-26100000D02*
X32235000Y-26100000D01*
G75*
G02*
X32100000Y-25965000I0J135000D01*
G01*
X32100000Y-25695000D01*
G75*
G02*
X32235000Y-25560000I135000J0D01*
G01*
X32605000Y-25560000D01*
G75*
G02*
X32740000Y-25695000I0J-135000D01*
G01*
X32740000Y-25965000D01*
G75*
G02*
X32605000Y-26100000I-135000J0D01*
G01*
G37*
G36*
G01*
X32605000Y-27120000D02*
X32235000Y-27120000D01*
G75*
G02*
X32100000Y-26985000I0J135000D01*
G01*
X32100000Y-26715000D01*
G75*
G02*
X32235000Y-26580000I135000J0D01*
G01*
X32605000Y-26580000D01*
G75*
G02*
X32740000Y-26715000I0J-135000D01*
G01*
X32740000Y-26985000D01*
G75*
G02*
X32605000Y-27120000I-135000J0D01*
G01*
G37*
%TD*%
D24*
%TO.C,SW1*%
X44255500Y-19316700D03*
X52455500Y-19316700D03*
D25*
X46355500Y-19316700D03*
X48355500Y-19316700D03*
D26*
X50355500Y-19316700D03*
%TD*%
D27*
%TO.C,U2*%
X92332000Y-74529500D03*
X92332000Y-69929500D03*
X92332000Y-72229500D03*
D28*
X86032000Y-72229500D03*
%TD*%
%TO.C,U3*%
X86032000Y-82516500D03*
D27*
X92332000Y-82516500D03*
X92332000Y-80216500D03*
X92332000Y-84816500D03*
%TD*%
%TO.C,U4*%
G36*
G01*
X58217500Y-35998000D02*
X58367500Y-35998000D01*
G75*
G02*
X58442500Y-36073000I0J-75000D01*
G01*
X58442500Y-36773000D01*
G75*
G02*
X58367500Y-36848000I-75000J0D01*
G01*
X58217500Y-36848000D01*
G75*
G02*
X58142500Y-36773000I0J75000D01*
G01*
X58142500Y-36073000D01*
G75*
G02*
X58217500Y-35998000I75000J0D01*
G01*
G37*
G36*
G01*
X57717500Y-35998000D02*
X57867500Y-35998000D01*
G75*
G02*
X57942500Y-36073000I0J-75000D01*
G01*
X57942500Y-36773000D01*
G75*
G02*
X57867500Y-36848000I-75000J0D01*
G01*
X57717500Y-36848000D01*
G75*
G02*
X57642500Y-36773000I0J75000D01*
G01*
X57642500Y-36073000D01*
G75*
G02*
X57717500Y-35998000I75000J0D01*
G01*
G37*
G36*
G01*
X57217500Y-35998000D02*
X57367500Y-35998000D01*
G75*
G02*
X57442500Y-36073000I0J-75000D01*
G01*
X57442500Y-36773000D01*
G75*
G02*
X57367500Y-36848000I-75000J0D01*
G01*
X57217500Y-36848000D01*
G75*
G02*
X57142500Y-36773000I0J75000D01*
G01*
X57142500Y-36073000D01*
G75*
G02*
X57217500Y-35998000I75000J0D01*
G01*
G37*
G36*
G01*
X56717500Y-35998000D02*
X56867500Y-35998000D01*
G75*
G02*
X56942500Y-36073000I0J-75000D01*
G01*
X56942500Y-36773000D01*
G75*
G02*
X56867500Y-36848000I-75000J0D01*
G01*
X56717500Y-36848000D01*
G75*
G02*
X56642500Y-36773000I0J75000D01*
G01*
X56642500Y-36073000D01*
G75*
G02*
X56717500Y-35998000I75000J0D01*
G01*
G37*
G36*
G01*
X56217500Y-35998000D02*
X56367500Y-35998000D01*
G75*
G02*
X56442500Y-36073000I0J-75000D01*
G01*
X56442500Y-36773000D01*
G75*
G02*
X56367500Y-36848000I-75000J0D01*
G01*
X56217500Y-36848000D01*
G75*
G02*
X56142500Y-36773000I0J75000D01*
G01*
X56142500Y-36073000D01*
G75*
G02*
X56217500Y-35998000I75000J0D01*
G01*
G37*
G36*
G01*
X55717500Y-35998000D02*
X55867500Y-35998000D01*
G75*
G02*
X55942500Y-36073000I0J-75000D01*
G01*
X55942500Y-36773000D01*
G75*
G02*
X55867500Y-36848000I-75000J0D01*
G01*
X55717500Y-36848000D01*
G75*
G02*
X55642500Y-36773000I0J75000D01*
G01*
X55642500Y-36073000D01*
G75*
G02*
X55717500Y-35998000I75000J0D01*
G01*
G37*
G36*
G01*
X55517500Y-35648000D02*
X55517500Y-35798000D01*
G75*
G02*
X55442500Y-35873000I-75000J0D01*
G01*
X54742500Y-35873000D01*
G75*
G02*
X54667500Y-35798000I0J75000D01*
G01*
X54667500Y-35648000D01*
G75*
G02*
X54742500Y-35573000I75000J0D01*
G01*
X55442500Y-35573000D01*
G75*
G02*
X55517500Y-35648000I0J-75000D01*
G01*
G37*
G36*
G01*
X55517500Y-35148000D02*
X55517500Y-35298000D01*
G75*
G02*
X55442500Y-35373000I-75000J0D01*
G01*
X54742500Y-35373000D01*
G75*
G02*
X54667500Y-35298000I0J75000D01*
G01*
X54667500Y-35148000D01*
G75*
G02*
X54742500Y-35073000I75000J0D01*
G01*
X55442500Y-35073000D01*
G75*
G02*
X55517500Y-35148000I0J-75000D01*
G01*
G37*
G36*
G01*
X55517500Y-34648000D02*
X55517500Y-34798000D01*
G75*
G02*
X55442500Y-34873000I-75000J0D01*
G01*
X54742500Y-34873000D01*
G75*
G02*
X54667500Y-34798000I0J75000D01*
G01*
X54667500Y-34648000D01*
G75*
G02*
X54742500Y-34573000I75000J0D01*
G01*
X55442500Y-34573000D01*
G75*
G02*
X55517500Y-34648000I0J-75000D01*
G01*
G37*
G36*
G01*
X55517500Y-34148000D02*
X55517500Y-34298000D01*
G75*
G02*
X55442500Y-34373000I-75000J0D01*
G01*
X54742500Y-34373000D01*
G75*
G02*
X54667500Y-34298000I0J75000D01*
G01*
X54667500Y-34148000D01*
G75*
G02*
X54742500Y-34073000I75000J0D01*
G01*
X55442500Y-34073000D01*
G75*
G02*
X55517500Y-34148000I0J-75000D01*
G01*
G37*
G36*
G01*
X55517500Y-33648000D02*
X55517500Y-33798000D01*
G75*
G02*
X55442500Y-33873000I-75000J0D01*
G01*
X54742500Y-33873000D01*
G75*
G02*
X54667500Y-33798000I0J75000D01*
G01*
X54667500Y-33648000D01*
G75*
G02*
X54742500Y-33573000I75000J0D01*
G01*
X55442500Y-33573000D01*
G75*
G02*
X55517500Y-33648000I0J-75000D01*
G01*
G37*
G36*
G01*
X55517500Y-33148000D02*
X55517500Y-33298000D01*
G75*
G02*
X55442500Y-33373000I-75000J0D01*
G01*
X54742500Y-33373000D01*
G75*
G02*
X54667500Y-33298000I0J75000D01*
G01*
X54667500Y-33148000D01*
G75*
G02*
X54742500Y-33073000I75000J0D01*
G01*
X55442500Y-33073000D01*
G75*
G02*
X55517500Y-33148000I0J-75000D01*
G01*
G37*
G36*
G01*
X55717500Y-32098000D02*
X55867500Y-32098000D01*
G75*
G02*
X55942500Y-32173000I0J-75000D01*
G01*
X55942500Y-32873000D01*
G75*
G02*
X55867500Y-32948000I-75000J0D01*
G01*
X55717500Y-32948000D01*
G75*
G02*
X55642500Y-32873000I0J75000D01*
G01*
X55642500Y-32173000D01*
G75*
G02*
X55717500Y-32098000I75000J0D01*
G01*
G37*
G36*
G01*
X56217500Y-32098000D02*
X56367500Y-32098000D01*
G75*
G02*
X56442500Y-32173000I0J-75000D01*
G01*
X56442500Y-32873000D01*
G75*
G02*
X56367500Y-32948000I-75000J0D01*
G01*
X56217500Y-32948000D01*
G75*
G02*
X56142500Y-32873000I0J75000D01*
G01*
X56142500Y-32173000D01*
G75*
G02*
X56217500Y-32098000I75000J0D01*
G01*
G37*
G36*
G01*
X56717500Y-32098000D02*
X56867500Y-32098000D01*
G75*
G02*
X56942500Y-32173000I0J-75000D01*
G01*
X56942500Y-32873000D01*
G75*
G02*
X56867500Y-32948000I-75000J0D01*
G01*
X56717500Y-32948000D01*
G75*
G02*
X56642500Y-32873000I0J75000D01*
G01*
X56642500Y-32173000D01*
G75*
G02*
X56717500Y-32098000I75000J0D01*
G01*
G37*
G36*
G01*
X57217500Y-32098000D02*
X57367500Y-32098000D01*
G75*
G02*
X57442500Y-32173000I0J-75000D01*
G01*
X57442500Y-32873000D01*
G75*
G02*
X57367500Y-32948000I-75000J0D01*
G01*
X57217500Y-32948000D01*
G75*
G02*
X57142500Y-32873000I0J75000D01*
G01*
X57142500Y-32173000D01*
G75*
G02*
X57217500Y-32098000I75000J0D01*
G01*
G37*
G36*
G01*
X57717500Y-32098000D02*
X57867500Y-32098000D01*
G75*
G02*
X57942500Y-32173000I0J-75000D01*
G01*
X57942500Y-32873000D01*
G75*
G02*
X57867500Y-32948000I-75000J0D01*
G01*
X57717500Y-32948000D01*
G75*
G02*
X57642500Y-32873000I0J75000D01*
G01*
X57642500Y-32173000D01*
G75*
G02*
X57717500Y-32098000I75000J0D01*
G01*
G37*
G36*
G01*
X58217500Y-32098000D02*
X58367500Y-32098000D01*
G75*
G02*
X58442500Y-32173000I0J-75000D01*
G01*
X58442500Y-32873000D01*
G75*
G02*
X58367500Y-32948000I-75000J0D01*
G01*
X58217500Y-32948000D01*
G75*
G02*
X58142500Y-32873000I0J75000D01*
G01*
X58142500Y-32173000D01*
G75*
G02*
X58217500Y-32098000I75000J0D01*
G01*
G37*
G36*
G01*
X59417500Y-33148000D02*
X59417500Y-33298000D01*
G75*
G02*
X59342500Y-33373000I-75000J0D01*
G01*
X58642500Y-33373000D01*
G75*
G02*
X58567500Y-33298000I0J75000D01*
G01*
X58567500Y-33148000D01*
G75*
G02*
X58642500Y-33073000I75000J0D01*
G01*
X59342500Y-33073000D01*
G75*
G02*
X59417500Y-33148000I0J-75000D01*
G01*
G37*
G36*
G01*
X59417500Y-33648000D02*
X59417500Y-33798000D01*
G75*
G02*
X59342500Y-33873000I-75000J0D01*
G01*
X58642500Y-33873000D01*
G75*
G02*
X58567500Y-33798000I0J75000D01*
G01*
X58567500Y-33648000D01*
G75*
G02*
X58642500Y-33573000I75000J0D01*
G01*
X59342500Y-33573000D01*
G75*
G02*
X59417500Y-33648000I0J-75000D01*
G01*
G37*
G36*
G01*
X59417500Y-34148000D02*
X59417500Y-34298000D01*
G75*
G02*
X59342500Y-34373000I-75000J0D01*
G01*
X58642500Y-34373000D01*
G75*
G02*
X58567500Y-34298000I0J75000D01*
G01*
X58567500Y-34148000D01*
G75*
G02*
X58642500Y-34073000I75000J0D01*
G01*
X59342500Y-34073000D01*
G75*
G02*
X59417500Y-34148000I0J-75000D01*
G01*
G37*
G36*
G01*
X59417500Y-34648000D02*
X59417500Y-34798000D01*
G75*
G02*
X59342500Y-34873000I-75000J0D01*
G01*
X58642500Y-34873000D01*
G75*
G02*
X58567500Y-34798000I0J75000D01*
G01*
X58567500Y-34648000D01*
G75*
G02*
X58642500Y-34573000I75000J0D01*
G01*
X59342500Y-34573000D01*
G75*
G02*
X59417500Y-34648000I0J-75000D01*
G01*
G37*
G36*
G01*
X59417500Y-35148000D02*
X59417500Y-35298000D01*
G75*
G02*
X59342500Y-35373000I-75000J0D01*
G01*
X58642500Y-35373000D01*
G75*
G02*
X58567500Y-35298000I0J75000D01*
G01*
X58567500Y-35148000D01*
G75*
G02*
X58642500Y-35073000I75000J0D01*
G01*
X59342500Y-35073000D01*
G75*
G02*
X59417500Y-35148000I0J-75000D01*
G01*
G37*
G36*
G01*
X59417500Y-35648000D02*
X59417500Y-35798000D01*
G75*
G02*
X59342500Y-35873000I-75000J0D01*
G01*
X58642500Y-35873000D01*
G75*
G02*
X58567500Y-35798000I0J75000D01*
G01*
X58567500Y-35648000D01*
G75*
G02*
X58642500Y-35573000I75000J0D01*
G01*
X59342500Y-35573000D01*
G75*
G02*
X59417500Y-35648000I0J-75000D01*
G01*
G37*
%TD*%
D29*
%TO.C,U5*%
X87193000Y-64162000D03*
D30*
X83298000Y-66067000D03*
X83298000Y-62257000D03*
X83298000Y-63527000D03*
X83298000Y-64797000D03*
X91088000Y-66067000D03*
X91088000Y-62257000D03*
X91088000Y-63527000D03*
X91088000Y-64797000D03*
%TD*%
D31*
%TO.C,U7*%
X48759000Y-81270000D03*
G36*
G01*
X49884000Y-82732500D02*
X49884000Y-83582500D01*
G75*
G02*
X49821500Y-83645000I-62500J0D01*
G01*
X49696500Y-83645000D01*
G75*
G02*
X49634000Y-83582500I0J62500D01*
G01*
X49634000Y-82732500D01*
G75*
G02*
X49696500Y-82670000I62500J0D01*
G01*
X49821500Y-82670000D01*
G75*
G02*
X49884000Y-82732500I0J-62500D01*
G01*
G37*
G36*
G01*
X49384000Y-82732500D02*
X49384000Y-83582500D01*
G75*
G02*
X49321500Y-83645000I-62500J0D01*
G01*
X49196500Y-83645000D01*
G75*
G02*
X49134000Y-83582500I0J62500D01*
G01*
X49134000Y-82732500D01*
G75*
G02*
X49196500Y-82670000I62500J0D01*
G01*
X49321500Y-82670000D01*
G75*
G02*
X49384000Y-82732500I0J-62500D01*
G01*
G37*
G36*
G01*
X48884000Y-82732500D02*
X48884000Y-83582500D01*
G75*
G02*
X48821500Y-83645000I-62500J0D01*
G01*
X48696500Y-83645000D01*
G75*
G02*
X48634000Y-83582500I0J62500D01*
G01*
X48634000Y-82732500D01*
G75*
G02*
X48696500Y-82670000I62500J0D01*
G01*
X48821500Y-82670000D01*
G75*
G02*
X48884000Y-82732500I0J-62500D01*
G01*
G37*
G36*
G01*
X48384000Y-82732500D02*
X48384000Y-83582500D01*
G75*
G02*
X48321500Y-83645000I-62500J0D01*
G01*
X48196500Y-83645000D01*
G75*
G02*
X48134000Y-83582500I0J62500D01*
G01*
X48134000Y-82732500D01*
G75*
G02*
X48196500Y-82670000I62500J0D01*
G01*
X48321500Y-82670000D01*
G75*
G02*
X48384000Y-82732500I0J-62500D01*
G01*
G37*
G36*
G01*
X47884000Y-82732500D02*
X47884000Y-83582500D01*
G75*
G02*
X47821500Y-83645000I-62500J0D01*
G01*
X47696500Y-83645000D01*
G75*
G02*
X47634000Y-83582500I0J62500D01*
G01*
X47634000Y-82732500D01*
G75*
G02*
X47696500Y-82670000I62500J0D01*
G01*
X47821500Y-82670000D01*
G75*
G02*
X47884000Y-82732500I0J-62500D01*
G01*
G37*
G36*
G01*
X47359000Y-82207500D02*
X47359000Y-82332500D01*
G75*
G02*
X47296500Y-82395000I-62500J0D01*
G01*
X46446500Y-82395000D01*
G75*
G02*
X46384000Y-82332500I0J62500D01*
G01*
X46384000Y-82207500D01*
G75*
G02*
X46446500Y-82145000I62500J0D01*
G01*
X47296500Y-82145000D01*
G75*
G02*
X47359000Y-82207500I0J-62500D01*
G01*
G37*
G36*
G01*
X47359000Y-81707500D02*
X47359000Y-81832500D01*
G75*
G02*
X47296500Y-81895000I-62500J0D01*
G01*
X46446500Y-81895000D01*
G75*
G02*
X46384000Y-81832500I0J62500D01*
G01*
X46384000Y-81707500D01*
G75*
G02*
X46446500Y-81645000I62500J0D01*
G01*
X47296500Y-81645000D01*
G75*
G02*
X47359000Y-81707500I0J-62500D01*
G01*
G37*
G36*
G01*
X47359000Y-81207500D02*
X47359000Y-81332500D01*
G75*
G02*
X47296500Y-81395000I-62500J0D01*
G01*
X46446500Y-81395000D01*
G75*
G02*
X46384000Y-81332500I0J62500D01*
G01*
X46384000Y-81207500D01*
G75*
G02*
X46446500Y-81145000I62500J0D01*
G01*
X47296500Y-81145000D01*
G75*
G02*
X47359000Y-81207500I0J-62500D01*
G01*
G37*
G36*
G01*
X47359000Y-80707500D02*
X47359000Y-80832500D01*
G75*
G02*
X47296500Y-80895000I-62500J0D01*
G01*
X46446500Y-80895000D01*
G75*
G02*
X46384000Y-80832500I0J62500D01*
G01*
X46384000Y-80707500D01*
G75*
G02*
X46446500Y-80645000I62500J0D01*
G01*
X47296500Y-80645000D01*
G75*
G02*
X47359000Y-80707500I0J-62500D01*
G01*
G37*
G36*
G01*
X47359000Y-80207500D02*
X47359000Y-80332500D01*
G75*
G02*
X47296500Y-80395000I-62500J0D01*
G01*
X46446500Y-80395000D01*
G75*
G02*
X46384000Y-80332500I0J62500D01*
G01*
X46384000Y-80207500D01*
G75*
G02*
X46446500Y-80145000I62500J0D01*
G01*
X47296500Y-80145000D01*
G75*
G02*
X47359000Y-80207500I0J-62500D01*
G01*
G37*
G36*
G01*
X47884000Y-78957500D02*
X47884000Y-79807500D01*
G75*
G02*
X47821500Y-79870000I-62500J0D01*
G01*
X47696500Y-79870000D01*
G75*
G02*
X47634000Y-79807500I0J62500D01*
G01*
X47634000Y-78957500D01*
G75*
G02*
X47696500Y-78895000I62500J0D01*
G01*
X47821500Y-78895000D01*
G75*
G02*
X47884000Y-78957500I0J-62500D01*
G01*
G37*
G36*
G01*
X48384000Y-78957500D02*
X48384000Y-79807500D01*
G75*
G02*
X48321500Y-79870000I-62500J0D01*
G01*
X48196500Y-79870000D01*
G75*
G02*
X48134000Y-79807500I0J62500D01*
G01*
X48134000Y-78957500D01*
G75*
G02*
X48196500Y-78895000I62500J0D01*
G01*
X48321500Y-78895000D01*
G75*
G02*
X48384000Y-78957500I0J-62500D01*
G01*
G37*
G36*
G01*
X48884000Y-78957500D02*
X48884000Y-79807500D01*
G75*
G02*
X48821500Y-79870000I-62500J0D01*
G01*
X48696500Y-79870000D01*
G75*
G02*
X48634000Y-79807500I0J62500D01*
G01*
X48634000Y-78957500D01*
G75*
G02*
X48696500Y-78895000I62500J0D01*
G01*
X48821500Y-78895000D01*
G75*
G02*
X48884000Y-78957500I0J-62500D01*
G01*
G37*
G36*
G01*
X49384000Y-78957500D02*
X49384000Y-79807500D01*
G75*
G02*
X49321500Y-79870000I-62500J0D01*
G01*
X49196500Y-79870000D01*
G75*
G02*
X49134000Y-79807500I0J62500D01*
G01*
X49134000Y-78957500D01*
G75*
G02*
X49196500Y-78895000I62500J0D01*
G01*
X49321500Y-78895000D01*
G75*
G02*
X49384000Y-78957500I0J-62500D01*
G01*
G37*
G36*
G01*
X49884000Y-78957500D02*
X49884000Y-79807500D01*
G75*
G02*
X49821500Y-79870000I-62500J0D01*
G01*
X49696500Y-79870000D01*
G75*
G02*
X49634000Y-79807500I0J62500D01*
G01*
X49634000Y-78957500D01*
G75*
G02*
X49696500Y-78895000I62500J0D01*
G01*
X49821500Y-78895000D01*
G75*
G02*
X49884000Y-78957500I0J-62500D01*
G01*
G37*
G36*
G01*
X51134000Y-80207500D02*
X51134000Y-80332500D01*
G75*
G02*
X51071500Y-80395000I-62500J0D01*
G01*
X50221500Y-80395000D01*
G75*
G02*
X50159000Y-80332500I0J62500D01*
G01*
X50159000Y-80207500D01*
G75*
G02*
X50221500Y-80145000I62500J0D01*
G01*
X51071500Y-80145000D01*
G75*
G02*
X51134000Y-80207500I0J-62500D01*
G01*
G37*
G36*
G01*
X51134000Y-80707500D02*
X51134000Y-80832500D01*
G75*
G02*
X51071500Y-80895000I-62500J0D01*
G01*
X50221500Y-80895000D01*
G75*
G02*
X50159000Y-80832500I0J62500D01*
G01*
X50159000Y-80707500D01*
G75*
G02*
X50221500Y-80645000I62500J0D01*
G01*
X51071500Y-80645000D01*
G75*
G02*
X51134000Y-80707500I0J-62500D01*
G01*
G37*
G36*
G01*
X51134000Y-81207500D02*
X51134000Y-81332500D01*
G75*
G02*
X51071500Y-81395000I-62500J0D01*
G01*
X50221500Y-81395000D01*
G75*
G02*
X50159000Y-81332500I0J62500D01*
G01*
X50159000Y-81207500D01*
G75*
G02*
X50221500Y-81145000I62500J0D01*
G01*
X51071500Y-81145000D01*
G75*
G02*
X51134000Y-81207500I0J-62500D01*
G01*
G37*
G36*
G01*
X51134000Y-81707500D02*
X51134000Y-81832500D01*
G75*
G02*
X51071500Y-81895000I-62500J0D01*
G01*
X50221500Y-81895000D01*
G75*
G02*
X50159000Y-81832500I0J62500D01*
G01*
X50159000Y-81707500D01*
G75*
G02*
X50221500Y-81645000I62500J0D01*
G01*
X51071500Y-81645000D01*
G75*
G02*
X51134000Y-81707500I0J-62500D01*
G01*
G37*
G36*
G01*
X51134000Y-82207500D02*
X51134000Y-82332500D01*
G75*
G02*
X51071500Y-82395000I-62500J0D01*
G01*
X50221500Y-82395000D01*
G75*
G02*
X50159000Y-82332500I0J62500D01*
G01*
X50159000Y-82207500D01*
G75*
G02*
X50221500Y-82145000I62500J0D01*
G01*
X51071500Y-82145000D01*
G75*
G02*
X51134000Y-82207500I0J-62500D01*
G01*
G37*
%TD*%
D32*
%TO.C,U8*%
X38789500Y-81460500D03*
D33*
X36929500Y-82435500D03*
X36929500Y-81785500D03*
X36929500Y-81135500D03*
X36929500Y-80485500D03*
X40649500Y-80485500D03*
X40649500Y-81135500D03*
X40649500Y-81785500D03*
X40649500Y-82435500D03*
D34*
X39764500Y-83320500D03*
X39114500Y-83320500D03*
X38464500Y-83320500D03*
X37814500Y-83320500D03*
X37814500Y-79600500D03*
X38464500Y-79600500D03*
X39114500Y-79600500D03*
X39764500Y-79600500D03*
%TD*%
%TO.C,U9*%
G36*
G01*
X28048000Y-32156500D02*
X27698000Y-32156500D01*
G75*
G02*
X27523000Y-31981500I0J175000D01*
G01*
X27523000Y-30531500D01*
G75*
G02*
X27698000Y-30356500I175000J0D01*
G01*
X28048000Y-30356500D01*
G75*
G02*
X28223000Y-30531500I0J-175000D01*
G01*
X28223000Y-31981500D01*
G75*
G02*
X28048000Y-32156500I-175000J0D01*
G01*
G37*
G36*
G01*
X29173000Y-32156500D02*
X28773000Y-32156500D01*
G75*
G02*
X28573000Y-31956500I0J200000D01*
G01*
X28573000Y-30556500D01*
G75*
G02*
X28773000Y-30356500I200000J0D01*
G01*
X29173000Y-30356500D01*
G75*
G02*
X29373000Y-30556500I0J-200000D01*
G01*
X29373000Y-31956500D01*
G75*
G02*
X29173000Y-32156500I-200000J0D01*
G01*
G37*
G36*
G01*
X30273000Y-32156500D02*
X29873000Y-32156500D01*
G75*
G02*
X29673000Y-31956500I0J200000D01*
G01*
X29673000Y-30556500D01*
G75*
G02*
X29873000Y-30356500I200000J0D01*
G01*
X30273000Y-30356500D01*
G75*
G02*
X30473000Y-30556500I0J-200000D01*
G01*
X30473000Y-31956500D01*
G75*
G02*
X30273000Y-32156500I-200000J0D01*
G01*
G37*
G36*
G01*
X31373000Y-32156500D02*
X30973000Y-32156500D01*
G75*
G02*
X30773000Y-31956500I0J200000D01*
G01*
X30773000Y-30556500D01*
G75*
G02*
X30973000Y-30356500I200000J0D01*
G01*
X31373000Y-30356500D01*
G75*
G02*
X31573000Y-30556500I0J-200000D01*
G01*
X31573000Y-31956500D01*
G75*
G02*
X31373000Y-32156500I-200000J0D01*
G01*
G37*
G36*
G01*
X32473000Y-32156500D02*
X32073000Y-32156500D01*
G75*
G02*
X31873000Y-31956500I0J200000D01*
G01*
X31873000Y-30556500D01*
G75*
G02*
X32073000Y-30356500I200000J0D01*
G01*
X32473000Y-30356500D01*
G75*
G02*
X32673000Y-30556500I0J-200000D01*
G01*
X32673000Y-31956500D01*
G75*
G02*
X32473000Y-32156500I-200000J0D01*
G01*
G37*
G36*
G01*
X33573000Y-32156500D02*
X33173000Y-32156500D01*
G75*
G02*
X32973000Y-31956500I0J200000D01*
G01*
X32973000Y-30556500D01*
G75*
G02*
X33173000Y-30356500I200000J0D01*
G01*
X33573000Y-30356500D01*
G75*
G02*
X33773000Y-30556500I0J-200000D01*
G01*
X33773000Y-31956500D01*
G75*
G02*
X33573000Y-32156500I-200000J0D01*
G01*
G37*
G36*
G01*
X34673000Y-32156500D02*
X34273000Y-32156500D01*
G75*
G02*
X34073000Y-31956500I0J200000D01*
G01*
X34073000Y-30556500D01*
G75*
G02*
X34273000Y-30356500I200000J0D01*
G01*
X34673000Y-30356500D01*
G75*
G02*
X34873000Y-30556500I0J-200000D01*
G01*
X34873000Y-31956500D01*
G75*
G02*
X34673000Y-32156500I-200000J0D01*
G01*
G37*
G36*
G01*
X35773000Y-32156500D02*
X35373000Y-32156500D01*
G75*
G02*
X35173000Y-31956500I0J200000D01*
G01*
X35173000Y-30556500D01*
G75*
G02*
X35373000Y-30356500I200000J0D01*
G01*
X35773000Y-30356500D01*
G75*
G02*
X35973000Y-30556500I0J-200000D01*
G01*
X35973000Y-31956500D01*
G75*
G02*
X35773000Y-32156500I-200000J0D01*
G01*
G37*
G36*
G01*
X36848000Y-32156500D02*
X36498000Y-32156500D01*
G75*
G02*
X36323000Y-31981500I0J175000D01*
G01*
X36323000Y-30531500D01*
G75*
G02*
X36498000Y-30356500I175000J0D01*
G01*
X36848000Y-30356500D01*
G75*
G02*
X37023000Y-30531500I0J-175000D01*
G01*
X37023000Y-31981500D01*
G75*
G02*
X36848000Y-32156500I-175000J0D01*
G01*
G37*
G36*
G01*
X36848000Y-41656500D02*
X36498000Y-41656500D01*
G75*
G02*
X36323000Y-41481500I0J175000D01*
G01*
X36323000Y-40031500D01*
G75*
G02*
X36498000Y-39856500I175000J0D01*
G01*
X36848000Y-39856500D01*
G75*
G02*
X37023000Y-40031500I0J-175000D01*
G01*
X37023000Y-41481500D01*
G75*
G02*
X36848000Y-41656500I-175000J0D01*
G01*
G37*
G36*
G01*
X35773000Y-41656500D02*
X35373000Y-41656500D01*
G75*
G02*
X35173000Y-41456500I0J200000D01*
G01*
X35173000Y-40056500D01*
G75*
G02*
X35373000Y-39856500I200000J0D01*
G01*
X35773000Y-39856500D01*
G75*
G02*
X35973000Y-40056500I0J-200000D01*
G01*
X35973000Y-41456500D01*
G75*
G02*
X35773000Y-41656500I-200000J0D01*
G01*
G37*
G36*
G01*
X34673000Y-41656500D02*
X34273000Y-41656500D01*
G75*
G02*
X34073000Y-41456500I0J200000D01*
G01*
X34073000Y-40056500D01*
G75*
G02*
X34273000Y-39856500I200000J0D01*
G01*
X34673000Y-39856500D01*
G75*
G02*
X34873000Y-40056500I0J-200000D01*
G01*
X34873000Y-41456500D01*
G75*
G02*
X34673000Y-41656500I-200000J0D01*
G01*
G37*
G36*
G01*
X33573000Y-41656500D02*
X33173000Y-41656500D01*
G75*
G02*
X32973000Y-41456500I0J200000D01*
G01*
X32973000Y-40056500D01*
G75*
G02*
X33173000Y-39856500I200000J0D01*
G01*
X33573000Y-39856500D01*
G75*
G02*
X33773000Y-40056500I0J-200000D01*
G01*
X33773000Y-41456500D01*
G75*
G02*
X33573000Y-41656500I-200000J0D01*
G01*
G37*
G36*
G01*
X32473000Y-41656500D02*
X32073000Y-41656500D01*
G75*
G02*
X31873000Y-41456500I0J200000D01*
G01*
X31873000Y-40056500D01*
G75*
G02*
X32073000Y-39856500I200000J0D01*
G01*
X32473000Y-39856500D01*
G75*
G02*
X32673000Y-40056500I0J-200000D01*
G01*
X32673000Y-41456500D01*
G75*
G02*
X32473000Y-41656500I-200000J0D01*
G01*
G37*
G36*
G01*
X31373000Y-41656500D02*
X30973000Y-41656500D01*
G75*
G02*
X30773000Y-41456500I0J200000D01*
G01*
X30773000Y-40056500D01*
G75*
G02*
X30973000Y-39856500I200000J0D01*
G01*
X31373000Y-39856500D01*
G75*
G02*
X31573000Y-40056500I0J-200000D01*
G01*
X31573000Y-41456500D01*
G75*
G02*
X31373000Y-41656500I-200000J0D01*
G01*
G37*
G36*
G01*
X30273000Y-41656500D02*
X29873000Y-41656500D01*
G75*
G02*
X29673000Y-41456500I0J200000D01*
G01*
X29673000Y-40056500D01*
G75*
G02*
X29873000Y-39856500I200000J0D01*
G01*
X30273000Y-39856500D01*
G75*
G02*
X30473000Y-40056500I0J-200000D01*
G01*
X30473000Y-41456500D01*
G75*
G02*
X30273000Y-41656500I-200000J0D01*
G01*
G37*
G36*
G01*
X29173000Y-41656500D02*
X28773000Y-41656500D01*
G75*
G02*
X28573000Y-41456500I0J200000D01*
G01*
X28573000Y-40056500D01*
G75*
G02*
X28773000Y-39856500I200000J0D01*
G01*
X29173000Y-39856500D01*
G75*
G02*
X29373000Y-40056500I0J-200000D01*
G01*
X29373000Y-41456500D01*
G75*
G02*
X29173000Y-41656500I-200000J0D01*
G01*
G37*
G36*
G01*
X28048000Y-41656500D02*
X27698000Y-41656500D01*
G75*
G02*
X27523000Y-41481500I0J175000D01*
G01*
X27523000Y-40031500D01*
G75*
G02*
X27698000Y-39856500I175000J0D01*
G01*
X28048000Y-39856500D01*
G75*
G02*
X28223000Y-40031500I0J-175000D01*
G01*
X28223000Y-41481500D01*
G75*
G02*
X28048000Y-41656500I-175000J0D01*
G01*
G37*
%TD*%
D35*
%TO.C,Y1*%
X50447500Y-55842000D03*
X50447500Y-58042000D03*
X48747500Y-58042000D03*
X48747500Y-55842000D03*
%TD*%
D36*
%TO.C,Y2*%
X49859000Y-71911000D03*
X47659000Y-71911000D03*
X47659000Y-73611000D03*
X49859000Y-73611000D03*
%TD*%
M02*
